<svg width="526" height="526" viewBox="0 0 526 526" fill="none" xmlns="http://www.w3.org/2000/svg">
<path d="M460.85 87.1582C503.74 149.289 504.96 235.143 471.685 302.976C438.411 370.809 374.291 420.579 302.976 445.438C252.08 463.185 195.462 468.95 144.303 451.95C93.1442 434.949 48.897 392.554 38.5664 339.659C34.6635 319.671 35.9469 297.695 47.277 280.747C65.3714 253.742 101.876 247.778 134.193 244.264C166.511 240.75 203.036 234.912 221.215 207.98C235.206 187.288 233.923 160.304 239.404 135.929C248.745 94.5012 280.253 58.7648 320.187 44.2998C327.173 41.7827 334.374 39.906 341.7 38.6926C385.19 31.4654 429.153 48.7602 457.21 82.7504L460.85 87.1582Z" fill="white" fill-opacity="0.75"/>
<path d="M119.907 138.485C146.052 138.485 167.247 117.291 167.247 91.1454C167.247 65.0003 146.052 43.8054 119.907 43.8054C93.762 43.8054 72.5671 65.0003 72.5671 91.1454C72.5671 117.291 93.762 138.485 119.907 138.485Z" fill="white" fill-opacity="0.75"/>
<path d="M484.604 468.75C484.604 468.908 381.939 469.024 255.331 469.024C128.723 469.024 25.9949 468.908 25.9949 468.75C25.9949 468.592 128.639 468.477 255.331 468.477C382.023 468.477 484.604 468.603 484.604 468.75Z" fill="#263238"/>
<path d="M416.592 348.959C416.592 347.034 416.497 241.097 416.36 77.6482L416.592 77.8481H93.8804L94.1539 77.5745C94.1539 175.894 94.1539 268.628 94.1539 348.885L93.9015 348.643L416.645 348.885L93.9015 349.127H93.6279V348.885C93.6279 268.628 93.6279 175.894 93.6279 77.5745V77.301H93.933H416.645H416.876V77.5325C416.729 241.097 416.592 347.034 416.592 348.959Z" fill="#FAFAFA"/>
<path d="M416.634 77.6482H93.8909V348.959H416.634V77.6482Z" fill="#FAFAFA"/>
<path d="M210.411 96.3843H94.5222V122.947H210.411V96.3843Z" fill="#EBEBEB"/>
<path d="M123.747 117.824C123.747 117.824 123.747 117.477 123.747 116.846C123.747 116.214 123.747 115.278 123.747 114.174C123.747 111.817 123.684 108.556 123.631 104.621L123.852 104.842H104.632L104.905 104.569V111.417C104.905 113.627 104.905 115.741 104.905 117.729L104.653 117.477L118.445 117.603L122.421 117.677H123.473H123.863C123.412 117.727 122.959 117.748 122.505 117.74L118.581 117.803L104.632 117.929H104.39V117.824C104.39 115.815 104.39 113.7 104.39 111.512V108.125C104.39 107.557 104.39 106.978 104.39 106.399V104.6C104.148 104.842 104.727 104.264 104.674 104.327H123.894H124.115V104.548C124.115 108.545 124.031 111.849 123.999 114.237C123.999 115.289 123.999 116.193 123.999 116.867C123.946 117.193 123.862 117.514 123.747 117.824Z" fill="#263238"/>
<path d="M123.747 104.579C123.747 104.579 123.526 104.884 123.063 105.358C122.6 105.831 121.916 106.494 121.064 107.315C119.36 108.956 116.972 111.196 114.321 113.627C113.574 113.627 114.11 113.627 113.942 113.627H113.879L113.753 113.511L113.511 113.279L113.016 112.827L112.069 111.943L110.271 110.271L107.209 107.304C106.357 106.483 105.673 105.821 105.2 105.347C104.938 105.119 104.708 104.858 104.516 104.569C104.516 104.569 104.842 104.758 105.347 105.19C105.852 105.621 106.578 106.242 107.451 107.02L110.544 109.797L112.354 111.449L113.311 112.322L113.805 112.774L114.047 113.006L114.173 113.111L114.237 113.174H113.9C116.551 110.734 118.971 108.535 120.748 106.967C121.632 106.189 122.358 105.558 122.852 105.137C123.122 104.909 123.423 104.721 123.747 104.579Z" fill="#263238"/>
<path d="M110.923 110.46C110.067 111.855 109.058 113.15 107.914 114.321C106.91 115.614 105.763 116.789 104.495 117.824C105.353 116.433 106.362 115.142 107.504 113.974C108.509 112.679 109.656 111.5 110.923 110.46Z" fill="#263238"/>
<path d="M123.873 117.94C122.632 116.835 121.517 115.597 120.549 114.247C119.436 113.007 118.463 111.649 117.645 110.197C118.887 111.304 120.002 112.546 120.969 113.9C122.083 115.136 123.056 116.491 123.873 117.94Z" fill="#263238"/>
<path d="M197.103 109.198C197.103 109.355 183.532 109.471 166.805 109.471C150.078 109.471 136.518 109.355 136.518 109.198C136.518 109.04 150.078 108.924 166.805 108.924C183.532 108.924 197.103 109.05 197.103 109.198Z" fill="#263238"/>
<path d="M416.634 214.376H208.938V259.886H416.634V214.376Z" fill="#035C8C"/>
<g opacity="0.8">
<path d="M416.634 214.376H208.938V259.886H416.634V214.376Z" fill="white"/>
</g>
<path d="M236.984 228.6H224.665C223.358 228.6 222.298 229.659 222.298 230.967V243.286C222.298 244.593 223.358 245.653 224.665 245.653H236.984C238.291 245.653 239.351 244.593 239.351 243.286V230.967C239.351 229.659 238.291 228.6 236.984 228.6Z" fill="#035C8C"/>
<path d="M229.536 240.908C229.308 240.908 229.087 240.834 228.905 240.698L225.465 238.11C225.341 238.033 225.234 237.93 225.152 237.81C225.069 237.689 225.013 237.553 224.986 237.409C224.96 237.265 224.963 237.118 224.997 236.976C225.03 236.833 225.093 236.7 225.181 236.583C225.269 236.467 225.38 236.37 225.508 236.298C225.635 236.227 225.776 236.183 225.922 236.17C226.067 236.156 226.214 236.172 226.353 236.219C226.491 236.265 226.619 236.339 226.727 236.437L229.41 238.446L234.796 232.597C234.986 232.392 235.249 232.271 235.528 232.26C235.807 232.249 236.079 232.35 236.284 232.539C236.489 232.729 236.611 232.993 236.622 233.272C236.632 233.551 236.532 233.823 236.342 234.028L230.314 240.571C230.215 240.679 230.094 240.764 229.96 240.822C229.826 240.88 229.682 240.909 229.536 240.908Z" fill="white"/>
<path d="M416.634 168.636H208.938V214.145H416.634V168.636Z" fill="#035C8C"/>
<path d="M415.382 214.314C415.382 214.471 369.494 214.587 312.896 214.587C256.299 214.587 210.41 214.471 210.41 214.314C210.41 214.156 256.288 214.04 312.896 214.04C369.504 214.04 415.382 214.166 415.382 214.314Z" fill="#263238"/>
<path d="M416.75 305.354H209.053V348.959H416.75V305.354Z" fill="#035C8C"/>
<g opacity="0.8">
<path d="M416.75 305.354H209.053V348.959H416.75V305.354Z" fill="white"/>
</g>
<path d="M237.089 319.587H224.77C223.463 319.587 222.403 320.647 222.403 321.954V334.273C222.403 335.58 223.463 336.64 224.77 336.64H237.089C238.396 336.64 239.456 335.58 239.456 334.273V321.954C239.456 320.647 238.396 319.587 237.089 319.587Z" fill="#035C8C"/>
<path d="M229.641 331.906C229.413 331.906 229.192 331.832 229.01 331.696L225.57 329.108C225.347 328.94 225.199 328.691 225.16 328.415C225.12 328.139 225.192 327.858 225.359 327.635C225.527 327.412 225.776 327.264 226.052 327.225C226.328 327.185 226.609 327.257 226.832 327.425L229.515 329.445L234.901 323.595C234.991 323.483 235.104 323.391 235.231 323.324C235.358 323.257 235.498 323.217 235.641 323.207C235.785 323.196 235.929 323.215 236.065 323.262C236.201 323.309 236.326 323.383 236.432 323.481C236.538 323.578 236.622 323.696 236.681 323.828C236.74 323.959 236.771 324.101 236.772 324.245C236.773 324.389 236.745 324.531 236.69 324.664C236.634 324.796 236.551 324.916 236.447 325.016L230.388 331.57C230.292 331.673 230.177 331.756 230.049 331.814C229.92 331.871 229.782 331.903 229.641 331.906Z" fill="white"/>
<g opacity="0.8">
<path d="M416.634 168.636H208.938V214.145H416.634V168.636Z" fill="white"/>
</g>
<path d="M236.984 182.859H224.665C223.358 182.859 222.298 183.918 222.298 185.226V197.545C222.298 198.852 223.358 199.912 224.665 199.912H236.984C238.291 199.912 239.351 198.852 239.351 197.545V185.226C239.351 183.918 238.291 182.859 236.984 182.859Z" fill="#035C8C"/>
<path d="M229.536 195.177C229.308 195.177 229.087 195.104 228.905 194.967L225.465 192.379C225.341 192.302 225.234 192.2 225.152 192.079C225.069 191.958 225.013 191.822 224.986 191.678C224.96 191.535 224.963 191.387 224.997 191.245C225.03 191.103 225.093 190.969 225.181 190.852C225.269 190.736 225.38 190.639 225.508 190.568C225.635 190.496 225.776 190.453 225.922 190.439C226.067 190.425 226.214 190.442 226.353 190.488C226.491 190.534 226.619 190.608 226.727 190.706L229.41 192.716L234.796 186.867C234.984 186.662 235.246 186.541 235.524 186.529C235.802 186.517 236.074 186.616 236.279 186.804C236.382 186.897 236.465 187.01 236.524 187.136C236.583 187.262 236.616 187.398 236.622 187.537C236.628 187.676 236.606 187.815 236.558 187.945C236.51 188.076 236.437 188.195 236.342 188.297L230.314 194.841C230.215 194.948 230.094 195.033 229.96 195.091C229.826 195.149 229.682 195.178 229.536 195.177Z" fill="white"/>
<path d="M416.592 348.959C416.592 347.034 416.497 241.097 416.36 77.6482L416.592 77.8481H93.8804L94.1539 77.5745C94.1539 175.894 94.1539 268.628 94.1539 348.885L93.9015 348.643L416.645 348.885L93.9015 349.127H93.6279V348.885C93.6279 268.628 93.6279 175.894 93.6279 77.5745V77.301H93.933H416.645H416.876V77.5325C416.729 241.097 416.592 347.034 416.592 348.959Z" fill="#035C8C"/>
<path d="M94.5222 96.3844C94.5222 96.2266 166.49 96.1108 255.257 96.1108C344.025 96.1108 416.013 96.2266 416.013 96.3844C416.013 96.5422 344.057 96.6579 255.257 96.6579C166.458 96.6579 94.5222 96.5316 94.5222 96.3844Z" fill="#035C8C"/>
<path d="M104.348 90.1145C106.253 90.1145 107.798 88.5696 107.798 86.6639C107.798 84.7582 106.253 83.2134 104.348 83.2134C102.442 83.2134 100.897 84.7582 100.897 86.6639C100.897 88.5696 102.442 90.1145 104.348 90.1145Z" fill="#035C8C"/>
<path d="M113.942 90.1145C115.848 90.1145 117.393 88.5696 117.393 86.6639C117.393 84.7582 115.848 83.2134 113.942 83.2134C112.036 83.2134 110.491 84.7582 110.491 86.6639C110.491 88.5696 112.036 90.1145 113.942 90.1145Z" fill="#035C8C"/>
<path d="M127.029 84.2233C127.511 84.7059 127.84 85.3208 127.973 85.9901C128.106 86.6593 128.037 87.353 127.776 87.9834C127.515 88.6138 127.072 89.1526 126.505 89.5317C125.938 89.9107 125.271 90.113 124.588 90.113C123.906 90.113 123.239 89.9107 122.671 89.5317C122.104 89.1526 121.662 88.6138 121.401 87.9834C121.139 87.353 121.071 86.6593 121.204 85.9901C121.337 85.3208 121.665 84.7059 122.148 84.2233C122.468 83.9027 122.849 83.6483 123.267 83.4748C123.686 83.3012 124.135 83.2119 124.588 83.2119C125.042 83.2119 125.49 83.3012 125.909 83.4748C126.328 83.6483 126.708 83.9027 127.029 84.2233Z" fill="#035C8C"/>
<path d="M136.76 133.604C137.008 133.574 137.259 133.574 137.507 133.604L139.695 133.541L147.711 133.436H147.816L147.88 133.52L151.414 138.17L151.467 138.243V138.328C151.467 140.432 151.467 142.767 151.467 145.187V145.46H147.974H133.541H133.309V145.176C133.309 142.799 133.309 140.684 133.372 138.864L135.834 135.003C136.11 134.516 136.419 134.048 136.76 133.604C136.714 133.745 136.651 133.879 136.571 134.004L135.971 135.056L133.699 138.938V138.843C133.699 140.631 133.699 142.746 133.751 145.155L133.52 144.924H147.953H151.183L150.909 145.197C150.909 142.778 150.909 140.463 150.909 138.338L150.962 138.485L147.49 133.804L147.669 133.888L139.737 133.783H137.528C137.267 133.746 137.01 133.687 136.76 133.604Z" fill="#263238"/>
<path d="M151.225 138.633C150.727 138.766 150.215 138.837 149.7 138.843C148.732 138.927 147.343 139.022 145.691 139.127L145.912 138.896C145.872 139.775 145.584 140.624 145.081 141.347C144.807 141.743 144.447 142.074 144.029 142.315C143.567 142.528 143.066 142.646 142.557 142.662C142.014 142.684 141.474 142.586 140.973 142.375C140.473 142.164 140.026 141.845 139.664 141.441C139.06 140.719 138.654 139.853 138.485 138.927L138.717 139.116C137.181 139.116 135.897 139.064 135.003 139.022C134.532 139.031 134.061 138.978 133.604 138.864C134.063 138.765 134.533 138.722 135.003 138.738C135.897 138.738 137.181 138.664 138.717 138.633H138.864V138.832C139.043 139.655 139.422 140.422 139.969 141.063C140.279 141.41 140.663 141.685 141.092 141.867C141.521 142.049 141.985 142.134 142.451 142.115C142.881 142.113 143.305 142.016 143.693 141.831C144.058 141.642 144.374 141.372 144.618 141.042C145.065 140.405 145.334 139.66 145.397 138.885V138.664H145.597C147.259 138.611 148.648 138.58 149.626 138.569C150.159 138.523 150.697 138.544 151.225 138.633Z" fill="#263238"/>
<path d="M190.769 134.183C191.063 134.117 191.363 134.088 191.664 134.099V134.267C189.56 134.372 183.048 134.456 175.41 134.456C170.676 134.456 166.384 134.456 163.281 134.372L159.609 134.288C159.158 134.303 158.706 134.268 158.263 134.183C158.706 134.098 159.158 134.062 159.609 134.077L163.281 133.993C166.384 133.941 170.645 133.909 175.41 133.909C183.048 133.909 189.518 133.993 191.664 134.099V134.267C191.363 134.284 191.062 134.256 190.769 134.183Z" fill="#263238"/>
<path d="M190.769 141.073C191.062 141 191.363 140.972 191.664 140.989V141.157C189.56 141.263 183.048 141.347 175.41 141.347C170.676 141.347 166.384 141.347 163.281 141.263L159.609 141.179C159.158 141.187 158.707 141.152 158.263 141.073C158.706 140.987 159.158 140.948 159.609 140.958L163.281 140.873C166.384 140.873 170.645 140.8 175.41 140.8C183.048 140.8 189.518 140.873 191.664 140.989V141.157C191.364 141.161 191.064 141.133 190.769 141.073Z" fill="#263238"/>
<path d="M190.769 147.953C191.063 147.887 191.363 147.859 191.664 147.869V148.038C189.56 148.153 183.048 148.227 175.41 148.227C170.676 148.227 166.384 148.227 163.281 148.153L159.609 148.059C159.158 148.074 158.706 148.038 158.263 147.953C158.707 147.875 159.158 147.84 159.609 147.848L163.281 147.764C166.384 147.711 170.645 147.68 175.41 147.68C183.048 147.68 189.518 147.764 191.664 147.869V148.038C191.363 148.055 191.062 148.027 190.769 147.953Z" fill="#263238"/>
<path d="M136.76 182.911C137.006 182.862 137.256 182.841 137.507 182.848L139.695 182.796L147.711 182.69H147.816L147.88 182.775L151.414 187.424L151.467 187.498V187.582C151.467 189.686 151.467 192.022 151.467 194.441V194.715H147.974H133.541H133.309V194.483C133.309 192.106 133.309 189.991 133.372 188.171V188.119L135.834 184.258C136.103 183.804 136.402 183.368 136.728 182.953C136.683 183.094 136.619 183.229 136.539 183.353L135.939 184.405L133.709 188.308V188.213C133.709 190.002 133.709 192.116 133.762 194.525L133.53 194.294H147.964H151.193L150.92 194.568C150.92 192.148 150.92 189.833 150.92 187.708L150.972 187.856L147.501 183.174L147.68 183.259L139.748 183.153H137.538C137.272 183.097 137.011 183.016 136.76 182.911Z" fill="#263238"/>
<path d="M151.225 187.908C150.727 188.042 150.215 188.113 149.7 188.118C148.732 188.203 147.343 188.297 145.691 188.403L145.912 188.171C145.872 189.05 145.584 189.9 145.081 190.622C144.807 191.019 144.447 191.35 144.029 191.59C143.567 191.804 143.066 191.922 142.557 191.937C142.014 191.96 141.474 191.862 140.973 191.651C140.473 191.44 140.026 191.121 139.664 190.717C139.06 189.995 138.654 189.128 138.485 188.203L138.717 188.392C137.181 188.392 135.897 188.339 135.003 188.297C134.533 188.313 134.062 188.267 133.604 188.161C134.063 188.06 134.533 188.014 135.003 188.024L138.717 187.929H138.864V188.129C139.043 188.952 139.422 189.718 139.969 190.359C140.279 190.707 140.663 190.982 141.092 191.164C141.521 191.346 141.985 191.43 142.451 191.411C142.881 191.41 143.305 191.313 143.693 191.127C144.058 190.939 144.374 190.669 144.618 190.338C145.065 189.701 145.334 188.957 145.397 188.182V187.961H145.597C147.259 187.961 148.648 187.877 149.626 187.866C150.159 187.812 150.696 187.826 151.225 187.908Z" fill="#263238"/>
<path d="M190.769 183.458C191.063 183.392 191.363 183.364 191.664 183.374V183.542C189.56 183.648 183.048 183.732 175.41 183.732C170.676 183.732 166.384 183.732 163.281 183.648L159.609 183.564C159.158 183.579 158.706 183.543 158.263 183.458C158.706 183.373 159.158 183.338 159.609 183.353L163.281 183.269C166.384 183.216 170.645 183.185 175.41 183.185C183.048 183.185 189.518 183.269 191.664 183.374V183.542C191.363 183.553 191.063 183.525 190.769 183.458Z" fill="#263238"/>
<path d="M190.769 190.349C191.062 190.276 191.363 190.247 191.664 190.265V190.412C189.56 190.517 183.048 190.601 175.41 190.601C170.676 190.601 166.384 190.601 163.281 190.517L159.609 190.433C159.158 190.441 158.707 190.406 158.263 190.328C158.706 190.242 159.158 190.203 159.609 190.212L163.281 190.128C166.384 190.075 170.645 190.054 175.41 190.054C183.048 190.054 189.518 190.128 191.664 190.244V190.412C191.364 190.422 191.065 190.401 190.769 190.349Z" fill="#263238"/>
<path d="M190.769 197.229C191.063 197.163 191.363 197.135 191.664 197.145V197.313C189.56 197.429 183.048 197.503 175.41 197.503C170.676 197.503 166.384 197.503 163.281 197.429L159.609 197.334C159.158 197.349 158.706 197.314 158.263 197.229C158.707 197.151 159.158 197.116 159.609 197.124L163.281 197.04C166.384 196.987 170.645 196.956 175.41 196.956C183.048 196.956 189.518 197.04 191.664 197.145V197.313C191.363 197.331 191.062 197.302 190.769 197.229Z" fill="#263238"/>
<path d="M136.76 232.187C137.006 232.137 137.256 232.116 137.507 232.124L139.695 232.071L147.711 231.966H147.816L147.88 232.05L151.414 236.7L151.467 236.773V236.858C151.467 238.962 151.467 241.297 151.467 243.717V243.99H147.974H133.541H133.309V243.759C133.309 241.381 133.309 239.267 133.372 237.447L135.834 233.586C136.103 233.132 136.402 232.696 136.728 232.281C136.683 232.422 136.619 232.557 136.539 232.681L135.939 233.733L133.667 237.615V237.52C133.667 239.309 133.667 241.423 133.72 243.832L133.488 243.601H147.922H151.151L150.878 243.874C150.878 241.455 150.878 239.14 150.878 237.015L150.93 237.163L147.459 232.481L147.638 232.565L139.705 232.46H137.496C137.243 232.391 136.997 232.3 136.76 232.187Z" fill="#263238"/>
<path d="M151.225 237.184C150.727 237.318 150.215 237.389 149.7 237.394C148.732 237.479 147.343 237.573 145.691 237.678L145.912 237.447C145.872 238.326 145.584 239.176 145.081 239.898C144.807 240.295 144.447 240.625 144.029 240.866C143.568 241.081 143.066 241.196 142.557 241.203C142.015 241.229 141.474 241.135 140.973 240.925C140.473 240.716 140.025 240.397 139.664 239.993C139.06 239.27 138.654 238.404 138.485 237.479L138.717 237.668C137.181 237.668 135.897 237.668 135.003 237.573C134.533 237.589 134.062 237.543 133.604 237.436C134.063 237.336 134.533 237.29 135.003 237.3L138.717 237.205H138.864V237.405C139.043 238.228 139.422 238.994 139.969 239.635C140.279 239.983 140.663 240.258 141.092 240.44C141.521 240.622 141.985 240.706 142.451 240.687C142.881 240.685 143.305 240.588 143.693 240.403C144.058 240.214 144.374 239.944 144.618 239.614C145.065 238.977 145.334 238.233 145.397 237.457V237.237H145.597C147.259 237.173 148.648 237.152 149.626 237.142C150.159 237.088 150.696 237.102 151.225 237.184Z" fill="#263238"/>
<path d="M190.769 232.734C191.063 232.668 191.363 232.639 191.664 232.65V232.818C189.56 232.923 183.048 233.007 175.41 233.007C170.676 233.007 166.384 233.007 163.281 232.923L159.609 232.839C159.158 232.854 158.706 232.819 158.263 232.734C158.706 232.649 159.158 232.614 159.609 232.629L163.281 232.545C166.384 232.492 170.645 232.46 175.41 232.46C183.048 232.46 189.518 232.545 191.664 232.65V232.818C191.363 232.828 191.063 232.8 190.769 232.734Z" fill="#263238"/>
<path d="M190.769 239.625C191.062 239.551 191.363 239.523 191.664 239.54V239.709C189.56 239.814 183.048 239.898 175.41 239.898C170.676 239.898 166.384 239.898 163.281 239.814L159.609 239.73C159.158 239.738 158.707 239.703 158.263 239.625C158.706 239.538 159.158 239.5 159.609 239.509L163.281 239.425C166.384 239.372 170.645 239.351 175.41 239.351C183.048 239.351 189.518 239.425 191.664 239.54V239.709C191.364 239.712 191.064 239.684 190.769 239.625Z" fill="#263238"/>
<path d="M190.769 246.504C191.063 246.438 191.363 246.41 191.664 246.42V246.589C189.56 246.704 183.048 246.778 175.41 246.778C170.676 246.778 166.384 246.778 163.281 246.704L159.609 246.61C159.158 246.625 158.706 246.59 158.263 246.504C158.707 246.426 159.158 246.391 159.609 246.399L163.281 246.315C166.384 246.315 170.645 246.231 175.41 246.231C183.048 246.231 189.518 246.315 191.664 246.42V246.589C191.363 246.606 191.062 246.578 190.769 246.504Z" fill="#263238"/>
<path d="M399.886 200.459H391.87C391.451 200.466 391.035 200.389 390.646 200.234C390.257 200.078 389.903 199.847 389.604 199.553C389.306 199.259 389.068 198.909 388.907 198.523C388.745 198.136 388.661 197.722 388.661 197.303V183.942H389.713V197.261C389.713 197.541 389.769 197.819 389.878 198.078C389.987 198.337 390.147 198.571 390.348 198.767C390.549 198.963 390.787 199.117 391.049 199.22C391.31 199.322 391.589 199.372 391.87 199.365H399.886C400.444 199.365 400.979 199.143 401.374 198.748C401.769 198.354 401.99 197.819 401.99 197.261V184.405H403.042V197.261C403.048 197.679 402.97 198.094 402.814 198.481C402.658 198.869 402.426 199.222 402.133 199.52C401.839 199.817 401.489 200.053 401.104 200.215C400.718 200.376 400.304 200.459 399.886 200.459Z" fill="#035C8C"/>
<path d="M404.41 184.016H387.346V185.068H404.41V184.016Z" fill="#035C8C"/>
<path d="M392.775 184.542H391.723V183.374C391.723 182.816 391.944 182.281 392.339 181.887C392.734 181.492 393.269 181.27 393.827 181.27H398.035C398.593 181.27 399.128 181.492 399.522 181.887C399.917 182.281 400.139 182.816 400.139 183.374V184.311H399.087V183.374C399.087 183.095 398.976 182.828 398.779 182.63C398.581 182.433 398.314 182.322 398.035 182.322H393.827C393.548 182.322 393.28 182.433 393.083 182.63C392.886 182.828 392.775 183.095 392.775 183.374V184.542Z" fill="#035C8C"/>
<path d="M393.448 196.524C393.178 195.032 393.086 193.514 393.174 192C393.086 190.49 393.178 188.976 393.448 187.487C393.724 188.975 393.816 190.49 393.721 192C393.816 193.514 393.724 195.033 393.448 196.524Z" fill="#035C8C"/>
<path d="M395.92 196.524C395.65 195.032 395.558 193.514 395.647 192C395.559 190.49 395.651 188.976 395.92 187.487C396.196 188.975 396.288 190.49 396.194 192C396.288 193.514 396.197 195.033 395.92 196.524Z" fill="#035C8C"/>
<path d="M398.413 196.524C398.143 195.032 398.052 193.514 398.14 192C398.052 190.49 398.144 188.976 398.413 187.487C398.689 188.975 398.781 190.49 398.687 192C398.782 193.514 398.69 195.033 398.413 196.524Z" fill="#035C8C"/>
<path d="M399.886 243.591H391.87C391.02 243.588 390.205 243.249 389.604 242.648C389.003 242.047 388.664 241.232 388.661 240.382V227.064H389.713V240.382C389.713 240.954 389.941 241.503 390.345 241.907C390.749 242.312 391.298 242.539 391.87 242.539H399.886C400.449 242.525 400.984 242.292 401.377 241.889C401.77 241.486 401.99 240.945 401.99 240.382V227.527H403.042V240.382C403.049 240.801 402.973 241.217 402.817 241.606C402.662 241.995 402.43 242.349 402.137 242.648C401.843 242.947 401.493 243.184 401.106 243.346C400.72 243.508 400.305 243.591 399.886 243.591Z" fill="#035C8C"/>
<path d="M404.41 227.137H387.346V228.189H404.41V227.137Z" fill="#035C8C"/>
<path d="M392.775 227.663H391.723V226.496C391.723 225.938 391.944 225.402 392.339 225.008C392.734 224.613 393.269 224.392 393.827 224.392H398.035C398.593 224.392 399.128 224.613 399.522 225.008C399.917 225.402 400.139 225.938 400.139 226.496V227.432H399.087V226.496C399.087 226.217 398.976 225.949 398.779 225.752C398.581 225.554 398.314 225.444 398.035 225.444H393.827C393.548 225.444 393.28 225.554 393.083 225.752C392.886 225.949 392.775 226.217 392.775 226.496V227.663Z" fill="#035C8C"/>
<path d="M393.448 239.646C393.083 236.644 393.083 233.61 393.448 230.609C393.813 233.61 393.813 236.644 393.448 239.646Z" fill="#035C8C"/>
<path d="M395.92 239.646C395.556 236.644 395.556 233.61 395.92 230.609C396.285 233.61 396.285 236.644 395.92 239.646Z" fill="#035C8C"/>
<path d="M398.413 239.646C398.049 236.644 398.049 233.61 398.413 230.609C398.778 233.61 398.778 236.644 398.413 239.646Z" fill="#035C8C"/>
<path d="M399.886 338.386H391.87C391.451 338.393 391.035 338.317 390.646 338.161C390.257 338.006 389.903 337.775 389.604 337.481C389.306 337.187 389.068 336.837 388.907 336.45C388.745 336.064 388.661 335.649 388.661 335.23V321.912H389.713V335.23C389.713 335.511 389.769 335.789 389.878 336.048C389.987 336.307 390.147 336.541 390.348 336.737C390.549 336.933 390.787 337.087 391.049 337.19C391.31 337.292 391.589 337.341 391.87 337.334H399.886C400.444 337.334 400.979 337.113 401.374 336.718C401.769 336.324 401.99 335.788 401.99 335.23V322.333H403.042V335.188C403.048 335.606 402.97 336.021 402.814 336.409C402.658 336.797 402.426 337.15 402.133 337.447C401.839 337.745 401.489 337.981 401.104 338.142C400.718 338.303 400.304 338.386 399.886 338.386Z" fill="#035C8C"/>
<path d="M404.41 321.944H387.346V322.996H404.41V321.944Z" fill="#035C8C"/>
<path d="M392.775 322.47H391.723V321.292C391.723 320.733 391.944 320.198 392.339 319.804C392.734 319.409 393.269 319.188 393.827 319.188H398.035C398.593 319.188 399.128 319.409 399.522 319.804C399.917 320.198 400.139 320.733 400.139 321.292V322.238H399.087V321.292C399.087 321.012 398.976 320.745 398.779 320.548C398.581 320.35 398.314 320.24 398.035 320.24H393.827C393.548 320.24 393.28 320.35 393.083 320.548C392.886 320.745 392.775 321.012 392.775 321.292V322.47Z" fill="#035C8C"/>
<path d="M393.448 334.452C393.083 331.451 393.083 328.416 393.448 325.415C393.813 328.416 393.813 331.451 393.448 334.452Z" fill="#035C8C"/>
<path d="M395.92 334.452C395.556 331.451 395.556 328.416 395.92 325.415C396.285 328.416 396.285 331.451 395.92 334.452Z" fill="#035C8C"/>
<path d="M398.413 334.452C398.049 331.451 398.049 328.416 398.413 325.415C398.778 328.416 398.778 331.451 398.413 334.452Z" fill="#035C8C"/>
<path d="M404.241 150.752C404.204 150.427 404.186 150.1 404.189 149.773C404.189 149.09 404.189 148.206 404.189 147.091C404.189 144.745 404.115 141.484 404.073 137.539L404.294 137.76L385.032 137.812L385.305 137.539V141C385.305 142.146 385.305 143.272 385.305 144.377C385.305 146.586 385.305 148.711 385.305 150.689L385.053 150.436L398.834 150.562L402.821 150.626H403.873H404.262C403.81 150.649 403.357 150.649 402.905 150.626L398.981 150.699L385.032 150.825H384.779V150.573C384.779 148.564 384.779 146.439 384.779 144.261V137.423C384.537 137.665 385.116 137.086 385.053 137.139L404.284 137.202H404.504V137.412C404.504 141.41 404.42 144.724 404.399 147.101C404.399 148.153 404.399 149.069 404.336 149.731C404.33 150.073 404.298 150.414 404.241 150.752Z" fill="#263238"/>
<path d="M404.241 137.539C404.049 137.827 403.819 138.089 403.558 138.317C403.084 138.79 402.4 139.464 401.548 140.284C399.844 141.925 397.467 144.156 394.805 146.596H394.426L394.363 146.533L394.247 146.417L393.995 146.197L393.511 145.744L392.554 144.86L390.765 143.188L387.746 140.326C386.894 139.506 386.21 138.833 385.747 138.359C385.486 138.131 385.256 137.869 385.063 137.581C385.362 137.757 385.641 137.965 385.895 138.201C386.4 138.633 387.125 139.253 387.999 140.042L391.091 142.809L392.911 144.461L393.869 145.344L394.353 145.786L394.605 146.018L394.731 146.133H394.794C394.626 146.133 395.173 146.133 394.426 146.133C397.077 143.682 399.507 141.494 401.275 139.927C402.169 139.138 402.895 138.517 403.379 138.086C403.642 137.867 403.932 137.683 404.241 137.539Z" fill="#263238"/>
<path d="M391.417 143.451C390.549 144.83 389.537 146.113 388.398 147.28C387.396 148.574 386.248 149.749 384.979 150.783C385.832 149.386 386.841 148.09 387.988 146.922C388.995 145.638 390.146 144.474 391.417 143.451Z" fill="#263238"/>
<path d="M404.357 150.899C403.12 149.791 402.005 148.553 401.033 147.206C399.925 145.969 398.955 144.614 398.14 143.167C399.377 144.275 400.492 145.513 401.464 146.859C402.576 148.093 403.547 149.449 404.357 150.899Z" fill="#263238"/>
<path d="M415.382 122.947C415.382 123.095 369.494 123.221 312.896 123.221C256.299 123.221 210.4 123.084 210.4 122.947C210.4 122.811 256.278 122.674 312.886 122.674C369.494 122.674 415.382 122.8 415.382 122.947Z" fill="#263238"/>
<path d="M415.382 168.636C415.382 168.783 369.494 168.909 312.896 168.909C256.299 168.909 210.4 168.783 210.4 168.636C210.4 168.488 256.278 168.362 312.886 168.362C369.494 168.362 415.382 168.478 415.382 168.636Z" fill="#263238"/>
<path d="M415.382 259.066C415.382 259.213 369.494 259.339 312.896 259.339C256.299 259.339 210.4 259.213 210.4 259.066C210.4 258.918 256.278 258.792 312.886 258.792C369.494 258.792 415.382 258.908 415.382 259.066Z" fill="#263238"/>
<path d="M415.382 305.354C415.382 305.511 369.494 305.627 312.896 305.627C256.299 305.627 210.41 305.511 210.41 305.354C210.41 305.196 256.288 305.08 312.896 305.08C369.504 305.08 415.382 305.206 415.382 305.354Z" fill="#263238"/>
<path d="M236.995 154.644C236.995 154.644 237.226 154.644 237.626 154.497C238.205 154.313 238.689 153.909 238.972 153.371C239.383 152.687 239.172 151.667 239.204 150.51C239.235 149.352 239.204 148.037 239.204 146.596C239.204 145.155 239.204 143.545 239.204 141.852C239.204 141.42 239.204 140.989 239.204 140.547C239.24 140.127 239.204 139.704 239.099 139.295C238.966 138.894 238.715 138.541 238.379 138.284C238.043 138.027 237.638 137.877 237.216 137.854H224.665C224.177 137.858 223.706 138.031 223.332 138.344C222.958 138.657 222.704 139.09 222.614 139.569C222.54 140.537 222.614 141.673 222.614 142.725C222.614 144.829 222.614 146.828 222.614 148.753C222.614 149.71 222.614 150.646 222.614 151.562C222.585 151.987 222.606 152.414 222.677 152.835C222.767 153.233 222.967 153.597 223.255 153.887C223.533 154.15 223.873 154.339 224.244 154.434C224.623 154.498 225.008 154.519 225.391 154.497H227.674L234.543 154.581L236.416 154.633C236.635 154.628 236.853 154.646 237.068 154.686C236.852 154.716 236.632 154.716 236.416 154.686L234.543 154.739L227.674 154.833H225.391C224.973 154.863 224.552 154.842 224.139 154.77C223.679 154.667 223.257 154.438 222.919 154.109C222.581 153.781 222.341 153.365 222.225 152.908C222.135 152.451 222.107 151.984 222.14 151.52C222.14 150.604 222.14 149.668 222.14 148.711C222.14 146.786 222.14 144.776 222.14 142.683V141.105C222.105 140.555 222.105 140.003 222.14 139.453C222.264 138.858 222.589 138.324 223.06 137.941C223.531 137.558 224.121 137.349 224.728 137.349H237.226C237.744 137.385 238.24 137.575 238.65 137.893C239.06 138.211 239.366 138.645 239.53 139.138C239.651 139.597 239.694 140.074 239.656 140.547C239.656 140.989 239.656 141.42 239.656 141.852C239.656 143.545 239.656 145.134 239.656 146.596C239.656 148.058 239.656 149.352 239.656 150.51C239.656 151.088 239.656 151.625 239.656 152.119C239.67 152.592 239.557 153.061 239.33 153.476C238.998 154.039 238.458 154.447 237.826 154.612C237.557 154.7 237.269 154.711 236.995 154.644Z" fill="#263238"/>
<path d="M236.995 291.162C236.995 291.162 237.226 291.162 237.626 291.015C238.205 290.831 238.689 290.427 238.972 289.889C239.383 289.205 239.172 288.185 239.204 287.028C239.235 285.871 239.204 284.556 239.204 283.114C239.204 281.673 239.204 280.064 239.204 278.37C239.204 277.939 239.204 277.507 239.204 277.065C239.24 276.645 239.204 276.222 239.099 275.814C238.966 275.412 238.715 275.059 238.379 274.802C238.043 274.545 237.638 274.395 237.216 274.372H224.665C224.179 274.376 223.709 274.547 223.335 274.858C222.961 275.169 222.706 275.599 222.614 276.077C222.54 277.055 222.614 278.181 222.614 279.233C222.614 281.337 222.614 283.335 222.614 285.26C222.614 286.218 222.614 287.154 222.614 288.059C222.585 288.488 222.606 288.918 222.677 289.342C222.763 289.742 222.965 290.107 223.255 290.394C223.529 290.663 223.871 290.853 224.244 290.941C224.622 291.015 225.007 291.039 225.391 291.015H227.674L234.543 291.099L236.416 291.152C236.633 291.129 236.851 291.129 237.068 291.152C236.854 291.199 236.635 291.216 236.416 291.204L234.543 291.257L227.674 291.341H225.391C224.973 291.371 224.552 291.35 224.139 291.278C223.679 291.174 223.257 290.945 222.919 290.617C222.581 290.288 222.341 289.873 222.225 289.416C222.134 288.955 222.106 288.485 222.14 288.017C222.14 287.112 222.14 286.176 222.14 285.218C222.14 283.293 222.14 281.284 222.14 279.19V277.612C222.105 277.062 222.105 276.511 222.14 275.961C222.253 275.356 222.573 274.81 223.046 274.416C223.518 274.022 224.113 273.806 224.728 273.804H237.226C237.744 273.84 238.24 274.03 238.65 274.348C239.06 274.667 239.366 275.1 239.53 275.593C239.651 276.052 239.694 276.529 239.656 277.002C239.656 277.444 239.656 277.875 239.656 278.307C239.656 280 239.656 281.589 239.656 283.051C239.656 284.514 239.656 285.808 239.656 286.965C239.656 287.543 239.656 288.08 239.656 288.574C239.67 289.048 239.557 289.516 239.33 289.931C239.167 290.21 238.951 290.454 238.692 290.647C238.434 290.84 238.139 290.98 237.826 291.057C237.562 291.162 237.276 291.198 236.995 291.162Z" fill="#263238"/>
<path d="M208.885 345.056C208.885 345.056 208.885 344.835 208.885 344.414C208.885 343.993 208.885 343.362 208.885 342.531C208.885 340.848 208.885 338.407 208.885 335.283C208.885 328.971 208.885 319.871 208.885 308.636C208.885 286.144 209.159 255.068 209.474 220.741C209.79 186.414 210.032 155.349 210.232 132.836C210.305 121.601 210.358 112.501 210.4 106.189C210.4 103.033 210.4 100.624 210.463 98.9511C210.463 98.1305 210.463 97.5098 210.463 97.068C210.463 96.6261 210.463 96.4263 210.463 96.4263C210.463 96.4263 210.463 96.6367 210.463 97.068C210.463 97.4993 210.463 98.12 210.463 98.9511C210.463 100.624 210.463 103.064 210.463 106.189C210.463 112.501 210.463 121.601 210.463 132.836C210.41 155.328 210.189 186.414 209.863 220.741C209.537 255.068 209.306 286.123 209.116 308.636C209.043 319.871 208.99 328.971 208.948 335.283C208.948 338.439 208.948 340.848 208.885 342.531C208.885 343.341 208.885 343.962 208.885 344.414C208.885 344.867 208.885 345.056 208.885 345.056Z" fill="#263238"/>
<path d="M326.025 186.962C326.025 187.109 310.245 187.235 290.72 187.235C271.195 187.235 255.415 187.109 255.415 186.962C255.415 186.814 271.195 186.688 290.72 186.688C310.245 186.688 326.025 186.804 326.025 186.962Z" fill="#263238"/>
<path d="M370.157 194.746C370.157 194.904 344.467 195.02 312.791 195.02C281.115 195.02 255.415 194.904 255.415 194.746C255.415 194.588 281.105 194.473 312.791 194.473C344.477 194.473 370.157 194.62 370.157 194.746Z" fill="#263238"/>
<path d="M326.025 278.601C326.025 278.748 310.245 278.875 290.72 278.875C271.195 278.875 255.415 278.748 255.415 278.601C255.415 278.454 271.195 278.328 290.72 278.328C310.245 278.328 326.025 278.443 326.025 278.601Z" fill="#263238"/>
<path d="M370.157 286.386C370.157 286.533 344.467 286.659 312.791 286.659C281.115 286.659 255.415 286.533 255.415 286.386C255.415 286.239 281.105 286.112 312.791 286.112C344.477 286.112 370.157 286.239 370.157 286.386Z" fill="#263238"/>
<path d="M326.025 142.925C326.025 143.083 310.245 143.209 290.72 143.209C271.195 143.209 255.415 143.083 255.415 142.925C255.415 142.767 271.195 142.651 290.72 142.651C310.245 142.651 326.025 142.778 326.025 142.925Z" fill="#263238"/>
<path d="M370.157 150.72C370.157 150.867 344.467 150.994 312.791 150.994C281.115 150.994 255.415 150.867 255.415 150.72C255.415 150.573 281.105 150.447 312.791 150.447C344.477 150.447 370.157 150.573 370.157 150.72Z" fill="#263238"/>
<path d="M326.025 231.861C326.025 232.008 310.245 232.134 290.72 232.134C271.195 232.134 255.415 232.008 255.415 231.861C255.415 231.714 271.195 231.587 290.72 231.587C310.245 231.587 326.025 231.714 326.025 231.861Z" fill="#263238"/>
<path d="M370.157 239.646C370.157 239.803 344.467 239.919 312.791 239.919C281.115 239.919 255.415 239.803 255.415 239.646C255.415 239.488 281.105 239.372 312.791 239.372C344.477 239.372 370.157 239.498 370.157 239.646Z" fill="#263238"/>
<path d="M326.025 322.08C326.025 322.227 310.245 322.354 290.72 322.354C271.195 322.354 255.415 322.227 255.415 322.08C255.415 321.933 271.195 321.807 290.72 321.807C310.245 321.807 326.025 321.912 326.025 322.08Z" fill="#263238"/>
<path d="M370.157 329.865C370.157 330.013 344.467 330.139 312.791 330.139C281.115 330.139 255.415 330.013 255.415 329.865C255.415 329.718 281.105 329.592 312.791 329.592C344.477 329.592 370.157 329.718 370.157 329.865Z" fill="#263238"/>
<path d="M406.145 102.118H392.249V116.015H406.145V102.118Z" fill="#E0E0E0"/>
<path d="M383.517 102.118H369.62V116.015H383.517V102.118Z" fill="#E0E0E0"/>
<path d="M360.889 102.118H346.992V116.015H360.889V102.118Z" fill="#E0E0E0"/>
<path d="M108.661 138.506L114.563 146.207L119.612 138.506H108.661Z" fill="#263238"/>
<path d="M95.8687 238.394C109.545 220.342 124.02 222.887 134.046 227.253C139.046 229.531 143.251 233.253 146.119 237.94C148.987 242.626 150.388 248.064 150.141 253.553C149.973 256.436 149.352 259.465 150.531 262.106C152.414 266.314 157.895 267.545 161.051 270.932C165.395 275.572 164.438 282.904 162.965 289.09C161.493 295.275 159.957 302.324 163.586 307.531C166.921 312.297 173.264 313.58 178.503 316.126C181.979 317.786 185.066 320.161 187.56 323.096C190.055 326.031 191.901 329.46 192.979 333.158C193.997 336.879 194.077 340.794 193.212 344.554C192.348 348.314 190.565 351.8 188.024 354.703C182.932 360.236 175.295 362.698 167.857 363.792C156.982 365.397 145.887 364.569 135.37 361.367C124.854 358.166 115.179 352.671 107.043 345.279C98.9073 337.886 92.5129 328.781 88.3211 318.619C84.1294 308.457 82.2447 297.491 82.8029 286.512" fill="#263238"/>
<path d="M134.761 228.021C133.134 228.012 131.507 228.103 129.891 228.295C126.026 229.044 122.237 230.143 118.571 231.577C114.205 233.102 109.987 233.954 106.915 233.754C105.707 233.71 104.509 233.515 103.349 233.176C102.914 233.068 102.497 232.901 102.107 232.681C103.686 233.075 105.3 233.308 106.925 233.376C110.855 233.26 114.736 232.477 118.403 231.061C122.747 229.536 126.819 228.221 129.838 227.905C131.038 227.759 132.25 227.728 133.457 227.811C133.899 227.823 134.338 227.893 134.761 228.021Z" fill="#455A64"/>
<path d="M166.279 371.608C166.805 373.186 177.714 424.734 177.714 424.734L260.707 456.642L256.036 468.75L184.878 462.491C143.346 456.294 141.042 435.917 143.545 413.141L147.848 374.102L166.279 371.608Z" fill="#FFBE9D"/>
<path d="M46.9929 343.815C55.5457 330.865 68.5274 323.396 80.415 319.261L124.073 322.417C128.955 321.995 133.87 322.655 138.467 324.352C143.065 326.049 147.23 328.74 150.668 332.232L154.728 440.41L164.754 468.814H60.8898L46.9929 343.815Z" fill="#035C8C"/>
<path d="M152.266 376.616C152.266 376.616 152.172 376.563 152.014 376.448L151.309 375.922C150.942 375.618 150.559 375.333 150.162 375.07L148.532 374.018C147.88 373.67 147.164 373.281 146.375 372.892C143.356 371.509 140.121 370.659 136.813 370.378C133.976 370.129 131.118 370.306 128.333 370.904C125.136 371.575 122.097 372.854 119.381 374.67C116.32 376.579 113.873 379.329 112.333 382.591C111.562 384.31 111.233 386.194 111.375 388.072C111.563 390.006 112.292 391.847 113.479 393.385C114.642 394.928 116.365 395.952 118.276 396.236C119.176 396.401 120.105 396.296 120.945 395.935C121.785 395.574 122.5 394.972 123 394.205C123.39 393.405 123.6 392.528 123.614 391.637C123.629 390.747 123.448 389.864 123.084 389.051C122.776 388.227 122.358 387.449 121.843 386.736C121.325 386.049 120.74 385.414 120.096 384.843C117.648 382.683 114.678 381.2 111.48 380.54C108.698 379.927 105.835 379.767 103.001 380.067C98.8817 380.568 94.8309 381.528 90.9243 382.928L87.7157 383.98L86.8846 384.254C86.7916 384.295 86.6919 384.32 86.5901 384.327L86.8636 384.201L87.6842 383.875C88.3995 383.601 89.4726 383.191 90.8402 382.697C94.7365 381.218 98.7937 380.205 102.928 379.677C105.803 379.35 108.712 379.489 111.544 380.088C114.821 380.757 117.869 382.265 120.391 384.464C120.727 384.759 121.043 385.074 121.348 385.4C121.664 385.729 121.956 386.081 122.221 386.452C122.764 387.198 123.206 388.011 123.536 388.872C123.928 389.76 124.121 390.723 124.101 391.694C124.081 392.664 123.849 393.618 123.421 394.49C122.906 395.371 122.109 396.053 121.159 396.425C120.209 396.796 119.181 396.919 118.171 396.783C116.114 396.489 114.256 395.392 113.006 393.732C111.764 392.111 111.008 390.17 110.828 388.135C110.687 386.163 111.049 384.186 111.88 382.392C113.464 379.037 115.985 376.212 119.139 374.26C121.918 372.426 125.021 371.138 128.281 370.462C131.11 369.878 134.011 369.722 136.886 369.999C139.258 370.207 141.592 370.723 143.829 371.535C144.745 371.865 145.644 372.24 146.523 372.661C147.322 373.071 148.037 373.481 148.627 373.839L150.247 374.943C150.637 375.226 151.012 375.528 151.372 375.848L152.035 376.416L152.266 376.616Z" fill="#FAFAFA"/>
<path d="M150.668 332.18L176.442 378.531L147.848 387.315L150.668 332.18Z" fill="#035C8C"/>
<path d="M154.129 440.714C154.078 440.447 154.05 440.176 154.044 439.904C154.044 439.326 153.971 438.558 153.908 437.59C153.813 435.486 153.687 432.604 153.518 429.027C153.224 421.81 152.856 411.827 152.53 400.802C152.203 389.777 152.004 379.762 151.94 372.545C151.94 368.926 151.94 366.001 151.94 363.982C151.94 363.014 151.94 362.235 151.94 361.657C151.935 361.386 151.953 361.115 151.993 360.847C152.041 361.114 152.063 361.385 152.056 361.657L152.119 363.982C152.119 366.086 152.224 368.968 152.309 372.534C152.498 379.814 152.761 389.777 153.056 400.781C153.35 411.785 153.676 421.736 153.887 429.016C153.971 432.583 154.044 435.497 154.097 437.58C154.097 438.547 154.097 439.326 154.097 439.904C154.135 440.173 154.146 440.444 154.129 440.714Z" fill="#263238"/>
<path d="M158.273 346.298C158.094 346.458 157.897 346.596 157.684 346.708C157.103 347.076 156.498 347.406 155.875 347.697C152.961 348.977 149.773 349.508 146.602 349.241C143.431 348.975 140.377 347.92 137.717 346.171C136.787 345.588 135.941 344.88 135.203 344.067C134.39 343.188 133.85 342.092 133.646 340.911C133.531 340.295 133.555 339.66 133.717 339.054C133.879 338.448 134.175 337.885 134.582 337.408C135.034 336.938 135.6 336.593 136.226 336.408C136.851 336.224 137.514 336.206 138.149 336.356C138.78 336.474 139.381 336.722 139.911 337.084C140.442 337.446 140.891 337.915 141.231 338.46C141.837 339.552 142.034 340.824 141.788 342.048C141.571 343.205 141.068 344.289 140.326 345.204C139.613 346.067 138.737 346.781 137.749 347.308C135.924 348.219 133.943 348.776 131.91 348.949C130.163 349.147 128.401 349.168 126.65 349.012C124.121 348.785 121.64 348.186 119.286 347.234C118.647 346.977 118.022 346.685 117.414 346.361C117.191 346.266 116.983 346.142 116.793 345.993C117.019 346.071 117.24 346.163 117.456 346.266C117.887 346.455 118.508 346.729 119.36 347.034C121.729 347.902 124.207 348.436 126.724 348.623C128.449 348.751 130.183 348.708 131.9 348.496C133.868 348.31 135.784 347.757 137.549 346.866C138.474 346.367 139.296 345.696 139.969 344.888C140.646 344.037 141.105 343.033 141.305 341.963C141.521 340.868 141.342 339.731 140.8 338.755C140.503 338.273 140.107 337.859 139.64 337.54C139.172 337.221 138.643 337.004 138.085 336.903C137.544 336.77 136.977 336.779 136.441 336.93C135.904 337.081 135.416 337.369 135.024 337.766C134.672 338.185 134.417 338.677 134.279 339.206C134.14 339.736 134.122 340.29 134.225 340.827C134.413 341.896 134.902 342.888 135.634 343.689C136.338 344.496 137.149 345.204 138.043 345.793C141.132 347.873 144.776 348.973 148.5 348.949C151.023 348.963 153.525 348.485 155.864 347.539C157.421 346.803 158.242 346.245 158.273 346.298Z" fill="#FAFAFA"/>
<path d="M152.782 439.81L152.487 439.61L151.646 439C150.549 438.236 149.399 437.551 148.206 436.948C143.794 434.77 138.923 433.687 134.004 433.792C127.807 433.792 120.475 435.896 113.374 439.978C111.552 441.007 109.845 442.227 108.282 443.618C106.64 445.036 105.277 446.749 104.264 448.668C103.233 450.65 102.896 452.92 103.306 455.116C103.553 456.209 104.117 457.204 104.926 457.978C105.323 458.354 105.811 458.621 106.343 458.752C106.874 458.883 107.43 458.874 107.956 458.725C109.008 458.364 109.879 457.61 110.386 456.621C110.922 455.629 111.221 454.528 111.259 453.402C111.241 451.145 110.545 448.946 109.261 447.09C108.039 445.294 106.451 443.777 104.6 442.64C102.82 441.558 100.866 440.793 98.8248 440.378C95.0037 439.665 91.0875 439.626 87.2528 440.262C83.8974 440.741 80.5817 441.465 77.3325 442.429C72.6268 443.863 68.0824 445.781 63.7722 448.152C62.2468 448.983 61.0896 449.678 60.3006 450.151L59.4169 450.698L59.1013 450.866C59.1013 450.866 59.1855 450.782 59.3854 450.645L60.248 450.056C61.0054 449.551 62.1626 448.836 63.6775 447.952C67.975 445.533 72.5215 443.586 77.2378 442.145C80.5001 441.145 83.8342 440.396 87.2108 439.904C91.0901 439.232 95.0581 439.253 98.93 439.968C101.032 440.385 103.043 441.168 104.874 442.282C106.791 443.45 108.438 445.014 109.703 446.869C111.048 448.799 111.781 451.091 111.807 453.444C111.766 454.659 111.442 455.848 110.86 456.915C110.292 458.048 109.302 458.913 108.103 459.324C107.488 459.499 106.839 459.511 106.217 459.36C105.596 459.209 105.024 458.899 104.558 458.462C103.67 457.606 103.052 456.509 102.78 455.306C102.35 452.98 102.721 450.577 103.832 448.489C104.876 446.509 106.282 444.743 107.977 443.281C109.577 441.874 111.319 440.637 113.174 439.589C120.349 435.465 127.776 433.456 134.056 433.456C139.026 433.374 143.939 434.516 148.364 436.78C149.964 437.59 151.449 438.609 152.782 439.81Z" fill="#FAFAFA"/>
<path d="M78.6687 355.787C75.5127 339.617 52.6317 339.018 48.6235 354.998C48.5604 355.24 48.4973 355.492 48.4447 355.745C42.543 380.919 62.4784 455.306 67.8331 459.598C73.1877 463.89 78.5003 468.75 87.6527 464.953C93.0074 462.733 148.606 413.594 148.606 413.594C148.606 413.594 161.461 425.913 165.753 424.84C170.045 423.767 178.23 411.164 178.23 411.164C178.23 411.164 186.183 423.083 187.182 423.262C187.725 423.351 188.282 423.288 188.792 423.08C189.301 422.873 189.743 422.529 190.07 422.086C190.396 421.643 190.594 421.119 190.641 420.571C190.689 420.023 190.584 419.472 190.338 418.98C189.286 417.371 179.145 395.205 179.145 395.205C179.145 395.205 187.13 394.342 185.52 391.66C185.52 391.66 185.32 389.198 179.924 389.672C174.527 390.145 174.632 383.98 164.586 384.569C154.539 385.158 133.793 387.725 104.621 410.112L91.1033 419.643L78.6687 355.787Z" fill="#FFBE9D"/>
<path d="M104.59 410.112L104.926 409.838L105.978 409.07L109.923 406.114C114.936 402.527 120.156 399.239 125.556 396.268C133.816 391.692 142.666 388.272 151.856 386.105C154.507 385.548 157.253 385.053 160.104 384.727C161.535 384.569 162.976 384.443 164.449 384.338C165.949 384.226 167.457 384.294 168.941 384.538C170.471 384.807 171.933 385.375 173.243 386.21C174.579 387.02 175.705 388.146 177.052 388.84C177.703 389.179 178.422 389.37 179.156 389.398C179.903 389.398 180.723 389.303 181.544 389.335C182.379 389.335 183.207 389.477 183.995 389.756C184.432 389.879 184.829 390.115 185.147 390.44C185.464 390.765 185.691 391.167 185.804 391.607V391.502C186.019 391.839 186.094 392.246 186.015 392.638C185.898 393.013 185.666 393.34 185.352 393.574C184.772 394.002 184.125 394.329 183.437 394.542C182.067 394.976 180.658 395.276 179.229 395.436L179.45 395.068L186.583 410.501C187.835 413.131 189.076 415.835 190.433 418.454C190.652 418.78 190.825 419.134 190.949 419.506C191.022 419.91 191.022 420.323 190.949 420.727C190.813 421.549 190.388 422.295 189.749 422.831C189.433 423.098 189.066 423.298 188.67 423.419C188.274 423.54 187.857 423.58 187.445 423.535H187.14C187.063 423.522 186.989 423.497 186.919 423.462L186.772 423.357C186.615 423.223 186.467 423.079 186.33 422.925C186.067 422.641 185.815 422.347 185.583 422.042C182.838 418.528 180.407 414.888 177.988 411.311H178.44C176.538 414.21 174.473 416.999 172.254 419.664C171.168 420.983 169.983 422.217 168.709 423.357C168.383 423.63 168.036 423.883 167.71 424.156C167.35 424.397 166.978 424.618 166.595 424.819C166.2 425.031 165.765 425.16 165.317 425.196C164.87 425.232 164.42 425.175 163.996 425.029C162.402 424.522 160.892 423.781 159.515 422.831C158.137 421.936 156.832 420.979 155.559 419.99C153.034 418.002 150.667 415.929 148.416 413.804H148.753C131.121 429.311 116.025 442.335 105.232 451.361C99.8348 455.874 95.5111 459.377 92.4813 461.691C90.9664 462.849 89.7777 463.711 88.9466 464.248C88.5358 464.536 88.0948 464.78 87.6316 464.974C87.6316 464.974 88.0945 464.742 88.9045 464.174C89.7146 463.606 90.8928 462.743 92.3866 461.565C95.3743 459.219 99.6665 455.674 105.011 451.129C115.752 442.04 130.806 428.964 148.406 413.426L148.574 413.278L148.742 413.436C150.973 415.54 153.35 417.644 155.864 419.569C157.116 420.548 158.421 421.505 159.778 422.378C161.107 423.289 162.564 423.998 164.101 424.482C165.679 425.071 167.089 423.956 168.309 422.915C169.557 421.791 170.721 420.578 171.792 419.285C173.993 416.636 176.044 413.865 177.935 410.985L178.156 410.638L178.388 410.974C180.797 414.541 183.248 418.191 185.952 421.673C186.19 421.968 186.432 422.252 186.677 422.525C186.804 422.652 186.93 422.788 187.056 422.894L187.14 422.957C187.14 422.957 187.14 422.957 187.14 423.051C187.14 423.146 187.14 423.22 187.14 422.967H187.393C187.735 423.007 188.081 422.976 188.41 422.877C188.739 422.777 189.045 422.611 189.307 422.389C189.855 421.96 190.215 421.336 190.313 420.648C190.411 419.96 190.239 419.261 189.833 418.696C188.434 416.014 187.214 413.341 185.962 410.701L178.84 395.247L178.693 394.921H179.05C180.439 394.762 181.81 394.47 183.143 394.048C183.773 393.861 184.367 393.57 184.9 393.185C185.125 393.019 185.294 392.788 185.383 392.522C185.429 392.264 185.377 391.997 185.236 391.775V391.702C185.126 391.361 184.932 391.053 184.673 390.805C184.415 390.557 184.098 390.377 183.753 390.282C183.022 390.027 182.254 389.899 181.481 389.903C180.692 389.903 179.934 389.977 179.092 389.966C178.263 389.934 177.451 389.718 176.715 389.335C175.263 388.588 174.159 387.462 172.875 386.673C171.617 385.876 170.217 385.33 168.751 385.064C165.837 384.538 162.881 384.99 160.051 385.243C157.221 385.495 154.486 386.042 151.846 386.589C142.665 388.717 133.817 392.087 125.546 396.604C120.142 399.546 114.906 402.784 109.86 406.304L105.884 409.197L104.832 409.933L104.59 410.112Z" fill="#EB996E"/>
<path d="M86.1062 437.737C86.1062 437.737 85.9905 437.464 85.8853 436.959C85.7407 436.234 85.6528 435.499 85.6223 434.76C85.3495 429.84 86.7064 424.966 89.4831 420.895C89.8986 420.282 90.3555 419.699 90.8507 419.148C91.2084 418.77 91.4188 418.57 91.4398 418.591C91.4609 418.612 90.7771 419.538 89.8092 421.105C87.2661 425.209 85.9451 429.953 86.001 434.781C86.022 436.58 86.2009 437.727 86.1062 437.737Z" fill="#EB996E"/>
<path d="M63.12 327.814C62.6046 328.161 44.0894 333.695 41.1753 352.673C38.2613 371.651 39.976 404.705 39.976 404.705L90.1985 401.254L75.7966 334.536L63.12 327.814Z" fill="#035C8C"/>
<path d="M169.835 422.22C169.751 422.22 169.887 421.537 169.835 420.495C169.782 419.132 169.422 417.798 168.783 416.592C168.141 415.386 167.239 414.336 166.142 413.52C165.301 412.91 164.68 412.658 164.712 412.563C165.308 412.633 165.876 412.854 166.363 413.205C167.594 413.98 168.596 415.07 169.267 416.361C169.956 417.652 170.28 419.107 170.203 420.569C170.215 421.141 170.089 421.708 169.835 422.22Z" fill="#EB996E"/>
<path d="M174.453 416.592C174.213 414.966 173.632 413.409 172.747 412.024C171.862 410.638 170.694 409.456 169.319 408.555C169.816 408.64 170.283 408.85 170.676 409.165C171.689 409.833 172.55 410.708 173.201 411.732C173.862 412.754 174.296 413.905 174.474 415.109C174.596 415.597 174.589 416.108 174.453 416.592Z" fill="#EB996E"/>
<path d="M174.453 404.599C174.453 404.547 174.927 404.757 175.505 405.272C176.251 405.958 176.847 406.791 177.256 407.718C177.665 408.644 177.878 409.646 177.883 410.659C177.883 411.427 177.746 411.89 177.683 411.879C177.531 410.531 177.216 409.206 176.746 407.934C176.115 406.737 175.345 405.618 174.453 404.599Z" fill="#EB996E"/>
<path d="M84.0759 369.747C83.989 369.763 83.8998 369.763 83.8129 369.747L83.0555 369.663C82.085 369.543 81.1087 369.476 80.1309 369.463C76.5314 369.426 72.9589 370.087 69.6109 371.409C64.6343 373.351 60.3569 376.746 57.3341 381.15C55.5356 383.696 54.6126 386.756 54.7041 389.871C54.7754 391.509 55.2604 393.101 56.1137 394.5C57.0059 395.918 58.3692 396.976 59.9641 397.488C61.5498 398.015 63.275 397.932 64.8033 397.256C65.5225 396.913 66.1585 396.417 66.6671 395.803C67.1757 395.189 67.5448 394.471 67.7489 393.701C68.0974 392.165 68.032 390.564 67.5595 389.061C67.13 387.607 66.4539 386.237 65.5607 385.011C63.9728 382.885 61.9791 381.095 59.6948 379.744C57.4105 378.393 54.8811 377.509 52.2529 377.142C48.6833 376.675 45.0535 377.161 41.7329 378.552C40.8333 378.936 39.9585 379.375 39.1134 379.867L38.4612 380.267L38.2297 380.382C39.2749 379.561 40.4247 378.881 41.6487 378.363C44.9854 376.869 48.6668 376.316 52.295 376.764C54.9895 377.107 57.5879 377.987 59.9367 379.351C62.2856 380.715 64.3374 382.536 65.971 384.706C66.9131 385.975 67.6252 387.399 68.075 388.914C68.579 390.508 68.648 392.208 68.2749 393.837C68.0533 394.685 67.6496 395.475 67.0919 396.151C66.5341 396.826 65.8356 397.373 65.0452 397.751C63.3843 398.484 61.511 398.578 59.7852 398.014C58.0745 397.442 56.6187 396.288 55.6719 394.753C54.757 393.293 54.2285 391.624 54.136 389.903C54.0628 386.662 55.049 383.486 56.9448 380.856C60.0395 376.386 64.4203 372.963 69.5057 371.041C72.8958 369.74 76.5123 369.132 80.1414 369.252C81.4661 369.286 82.784 369.452 84.0759 369.747Z" fill="#FAFAFA"/>
<path d="M82.3613 342.5C81.9589 342.74 81.5323 342.938 81.0883 343.089C80.5831 343.311 80.0628 343.497 79.5314 343.646C78.8428 343.886 78.1402 344.083 77.4274 344.235C76.5715 344.45 75.7039 344.615 74.8289 344.73C73.8821 344.888 72.8722 344.94 71.7992 345.014C69.4748 345.087 67.1489 344.929 64.856 344.54C62.5714 344.109 60.3366 343.447 58.1863 342.563C57.2079 342.121 56.2717 341.721 55.4511 341.248C54.6681 340.836 53.9094 340.379 53.1788 339.88C52.5667 339.485 51.9767 339.056 51.4114 338.597C50.9707 338.275 50.5524 337.923 50.1595 337.545C49.7964 337.25 49.4649 336.919 49.1707 336.556C49.2443 336.461 50.6855 337.86 53.3787 339.565C54.1184 340.035 54.8841 340.464 55.672 340.848C56.555 341.314 57.4609 341.735 58.3862 342.11C62.6373 343.838 67.2022 344.658 71.7886 344.519C72.8406 344.456 73.8927 344.425 74.7763 344.288C75.66 344.151 76.5647 344.025 77.3537 343.867C80.4782 343.204 82.3192 342.394 82.3613 342.5Z" fill="#FAFAFA"/>
<path d="M86.506 374.681C86.5599 374.845 86.5986 375.014 86.6218 375.186C86.6849 375.564 86.769 376.048 86.8637 376.648C87.0741 377.994 87.3582 379.804 87.7053 382.15C88.3891 386.915 89.3464 393.533 90.451 401.212V401.496H90.1775L78.4372 402.317L51.2114 404.105L42.9638 404.589L40.7125 404.694H39.9761C40.2302 404.625 40.4914 404.586 40.7546 404.578L42.9848 404.379L51.2325 403.726L78.4477 401.77L90.1775 400.981L89.9356 401.275C88.8836 393.585 88.0209 386.957 87.3897 382.192C87.0952 379.878 86.8637 377.984 86.6954 376.669C86.6218 376.059 86.5692 375.617 86.5271 375.186C86.4958 375.019 86.4887 374.849 86.506 374.681Z" fill="#263238"/>
<g opacity="0.2">
<path d="M62.1521 327.288C61.6472 329.066 63.0569 330.728 63.9721 332.327C65.7395 335.399 65.8341 339.112 65.9919 342.657C66.1098 349.173 67.1113 355.642 68.9691 361.888C70.9889 368.053 74.4605 373.891 79.5943 377.868C84.7281 381.844 91.6187 383.791 97.8991 382.16C104.18 380.529 109.471 374.954 110.008 368.484C110.544 362.014 106.641 356.249 104.411 350.211C102.686 345.561 101.918 340.617 100.929 335.746C99.94 330.875 98.6776 325.983 96.1002 321.744C93.5228 317.504 89.4305 313.959 84.5282 313.065C79.6259 312.17 74.0713 314.485 72.0935 319.029" fill="black"/>
</g>
<path d="M86.4114 242.349V247.935L86.0432 331.685C86.0432 341.406 94.333 349.19 104.737 349.159C115.257 349.159 123.936 341.143 124.136 331.275C124.357 320.965 124.767 310.119 124.767 310.119C124.767 310.119 138.086 308.152 141.147 290.868C142.672 282.283 142.483 268.144 141.968 256.583C141.858 254.116 141.25 251.697 140.18 249.471C139.11 247.245 137.601 245.259 135.743 243.633C133.886 242.006 131.718 240.772 129.37 240.005C127.023 239.239 124.545 238.955 122.085 239.172L86.4114 242.349Z" fill="#FFBE9D"/>
<path d="M137.907 267.208C137.901 267.789 137.67 268.344 137.261 268.757C136.853 269.169 136.299 269.406 135.719 269.417C135.434 269.437 135.149 269.399 134.88 269.306C134.611 269.212 134.364 269.065 134.154 268.874C133.943 268.682 133.774 268.449 133.656 268.19C133.538 267.931 133.474 267.65 133.467 267.366C133.473 266.788 133.703 266.235 134.11 265.824C134.516 265.414 135.067 265.178 135.645 265.167C135.929 265.146 136.214 265.182 136.484 265.274C136.753 265.366 137.002 265.512 137.213 265.703C137.424 265.894 137.595 266.126 137.714 266.384C137.834 266.643 137.899 266.923 137.907 267.208Z" fill="#263238"/>
<path d="M138.78 263.926C138.496 264.21 136.844 262.926 134.446 262.874C132.047 262.821 130.238 263.999 130.027 263.705C129.901 263.568 130.196 263.053 130.964 262.516C132.008 261.807 133.247 261.439 134.509 261.464C135.751 261.486 136.954 261.898 137.949 262.642C138.675 263.263 138.917 263.789 138.78 263.926Z" fill="#263238"/>
<path d="M115.257 266.766C115.252 267.346 115.02 267.9 114.611 268.311C114.202 268.722 113.649 268.957 113.069 268.965C112.786 268.985 112.501 268.947 112.233 268.855C111.965 268.762 111.718 268.616 111.508 268.425C111.297 268.234 111.128 268.003 111.009 267.745C110.891 267.487 110.825 267.208 110.818 266.924C110.823 266.345 111.053 265.791 111.459 265.379C111.866 264.967 112.417 264.729 112.995 264.715C113.28 264.693 113.566 264.73 113.837 264.823C114.107 264.916 114.355 265.063 114.567 265.255C114.779 265.446 114.949 265.679 115.068 265.939C115.186 266.199 115.251 266.481 115.257 266.766Z" fill="#263238"/>
<path d="M115.268 263.947C114.984 264.231 113.321 262.958 110.933 262.895C108.545 262.832 106.725 264.021 106.515 263.726C106.389 263.589 106.683 263.074 107.451 262.527C108.498 261.822 109.735 261.455 110.997 261.475C112.243 261.488 113.453 261.901 114.447 262.653C115.162 263.295 115.404 263.821 115.268 263.947Z" fill="#263238"/>
<path d="M123.631 281.841C124.897 281.467 126.204 281.251 127.524 281.199C128.144 281.199 128.723 281.042 128.828 280.631C128.891 280.002 128.762 279.367 128.46 278.811C127.902 277.318 127.334 275.761 126.735 274.13C124.346 267.46 122.621 261.99 122.895 261.895C123.168 261.801 125.314 267.155 127.702 273.793L129.354 278.496C129.725 279.242 129.821 280.095 129.628 280.905C129.531 281.121 129.386 281.313 129.203 281.464C129.021 281.615 128.806 281.723 128.576 281.778C128.23 281.857 127.878 281.9 127.524 281.904C126.228 282.037 124.922 282.016 123.631 281.841Z" fill="#263238"/>
<path d="M124.778 310.161C116.599 310.151 108.585 307.864 101.634 303.555C101.634 303.555 107.052 315.558 124.42 314.243L124.778 310.161Z" fill="#EB996E"/>
<path d="M122.516 287.585C122.073 287.003 121.489 286.544 120.819 286.251C120.148 285.959 119.415 285.842 118.687 285.913C118.158 285.951 117.642 286.096 117.17 286.338C116.698 286.58 116.28 286.915 115.941 287.322C115.615 287.714 115.417 288.197 115.374 288.704C115.331 289.212 115.444 289.721 115.699 290.163C116.077 290.608 116.581 290.927 117.145 291.079C117.708 291.232 118.305 291.209 118.855 291.015C119.991 290.633 121.042 290.033 121.948 289.247C122.219 289.06 122.455 288.825 122.642 288.553C122.727 288.42 122.773 288.264 122.773 288.106C122.773 287.948 122.727 287.792 122.642 287.659" fill="#EB996E"/>
<path d="M116.562 283.367C116.951 283.367 116.909 285.944 119.107 287.827C121.306 289.71 124.062 289.468 124.073 289.837C124.073 289.994 123.452 290.331 122.284 290.341C120.761 290.338 119.288 289.794 118.129 288.806C117.013 287.865 116.311 286.524 116.172 285.071C116.088 284.04 116.393 283.346 116.562 283.367Z" fill="#263238"/>
<path d="M116.057 254.584C115.804 255.226 113.427 254.878 110.618 255.163C107.809 255.447 105.516 256.215 105.158 255.583C105 255.299 105.4 254.7 106.326 254.089C107.551 253.321 108.944 252.859 110.387 252.743C111.815 252.605 113.256 252.803 114.595 253.322C115.647 253.763 116.162 254.279 116.057 254.584Z" fill="#263238"/>
<path d="M138.022 256.983C137.591 257.519 135.918 256.93 133.972 256.867C132.026 256.804 130.311 257.162 129.933 256.593C129.775 256.309 130.048 255.773 130.785 255.268C131.781 254.668 132.934 254.378 134.096 254.436C135.257 254.494 136.376 254.897 137.307 255.594C137.991 256.162 138.212 256.688 138.022 256.983Z" fill="#263238"/>
<path d="M108.135 236.7C112.827 242.812 108.135 251.565 102.812 257.183C97.489 262.8 91.1033 269.302 92.6287 276.845C94.4066 285.597 106.452 291.099 104.758 299.862C104.138 303.018 101.602 305.806 101.665 309.067C101.665 314.948 109.345 317.736 111.586 323.164C114.658 330.623 106.484 338.166 106.431 346.224C106.431 350.8 109.04 355.04 109.229 359.616C109.598 368.989 98.5831 375.954 89.4727 373.744C80.3624 371.535 74.0399 362.656 71.978 353.472C69.9161 344.288 71.2731 334.789 72.6513 325.521C71.7781 329.476 65.7817 330.276 62.8256 327.509C59.8695 324.742 59.4697 320.145 60.0904 316.158C61.6473 306.111 68.1487 297.559 71.189 287.87C73.8505 279.39 73.7769 270.343 74.892 261.57C76.0071 252.796 78.6371 243.559 85.3068 237.689C91.9765 231.819 103.591 230.988 109.093 237.963" fill="#263238"/>
<path d="M84.3809 370.304C84.4484 370.185 84.5222 370.069 84.6018 369.957C84.7596 369.715 84.9806 369.379 85.2646 368.968C87.3697 365.627 88.5463 361.785 88.6731 357.838C88.8018 354.654 88.2196 351.48 86.9688 348.549C85.5907 345.288 83.1606 342.237 80.5937 338.913C79.2385 337.216 77.9979 335.43 76.8802 333.568C75.7167 331.585 74.8852 329.424 74.4185 327.172C73.9058 324.75 74.1106 322.231 75.0076 319.924C75.5073 318.751 76.2207 317.68 77.1116 316.768C78.0357 315.875 79.0314 315.058 80.0888 314.327C82.1928 312.834 84.2968 311.329 85.4855 308.994C86.5459 306.574 86.7173 303.858 85.9695 301.325C84.7071 296.065 81.0461 291.962 78.7001 287.386C77.454 285.15 76.7108 282.669 76.5225 280.116C76.416 277.659 76.8806 275.21 77.8796 272.963C79.8056 268.908 82.5871 265.319 86.0326 262.443C89.1886 259.634 92.2394 257.246 94.7747 254.763C97.117 252.6 99.0675 250.048 100.54 247.22C101.643 245.079 102.315 242.741 102.517 240.34C102.636 238.824 102.483 237.299 102.065 235.838C101.77 234.786 101.518 234.344 101.56 234.323C101.811 234.796 102.015 235.293 102.17 235.806C102.64 237.272 102.829 238.814 102.728 240.351C102.572 242.789 101.921 245.169 100.813 247.347C99.3519 250.225 97.4012 252.827 95.0482 255.037C92.5129 257.561 89.4305 259.971 86.3377 262.779C82.956 265.645 80.2294 269.204 78.3425 273.215C77.3845 275.393 76.9383 277.761 77.038 280.137C77.2251 282.611 77.9427 285.015 79.142 287.186C80.3202 289.437 81.7825 291.594 83.1711 293.855C84.6506 296.122 85.7652 298.607 86.4744 301.219C87.2531 303.88 87.0668 306.73 85.9484 309.267C84.7176 311.76 82.4137 313.317 80.3728 314.79C79.3386 315.502 78.364 316.297 77.4588 317.168C76.6038 318.028 75.9123 319.037 75.4179 320.145C74.5618 322.36 74.3645 324.774 74.8498 327.099C75.2991 329.316 76.1019 331.448 77.2273 333.411C78.3354 335.242 79.5618 336.999 80.8988 338.671C83.4341 341.974 85.8748 345.098 87.2634 348.433C88.5202 351.424 89.0848 354.661 88.915 357.901C88.7573 361.887 87.5053 365.752 85.2962 369.073C84.9911 369.505 84.7386 369.81 84.5808 370.031C84.5216 370.127 84.4548 370.219 84.3809 370.304Z" fill="#455A64"/>
<path d="M213.388 391.187L173.517 460.808L117.056 462.765V468.972H281.999L326.888 395.437C327.254 394.803 327.449 394.084 327.452 393.352C327.456 392.62 327.268 391.9 326.908 391.262C326.548 390.625 326.028 390.092 325.399 389.718C324.77 389.343 324.054 389.138 323.322 389.125H217.007C216.276 389.125 215.559 389.315 214.924 389.677C214.29 390.038 213.76 390.559 213.388 391.187Z" fill="#263238"/>
<path d="M263.326 427.354C260.822 431.246 257.014 433.235 254.721 431.783C252.427 430.331 252.669 426.007 255.173 422.115C257.677 418.223 261.485 416.234 263.779 417.686C266.072 419.138 265.83 423.461 263.326 427.354Z" fill="#E0E0E0"/>
<path d="M462.249 436.58C462.188 436.394 462.111 436.215 462.017 436.043L461.291 434.486C460.42 432.475 459.717 430.396 459.187 428.269C457.778 422.735 457.283 414.277 459.377 404.241C460.506 398.771 461.992 393.38 463.827 388.104C465.72 382.37 467.909 376.29 469.697 369.725C471.719 362.87 472.694 355.748 472.59 348.601C472.327 341.132 470.107 333.673 467.677 326.246C465.247 318.819 462.743 311.518 461.986 304.228C461.153 297.188 462.571 290.066 466.036 283.882C469.255 277.949 473.305 272.878 476.335 267.618C479.169 262.745 481.257 257.476 482.531 251.985C484.358 244.037 484.49 235.793 482.921 227.789C482.367 224.858 481.521 221.989 480.396 219.226C480.431 219.419 480.48 219.609 480.543 219.794C480.669 220.204 480.838 220.751 481.058 221.435C481.691 223.542 482.215 225.681 482.626 227.842C484.074 235.813 483.859 243.997 481.995 251.88C480.699 257.303 478.607 262.503 475.788 267.313C472.758 272.51 468.687 277.559 465.405 283.566C461.846 289.863 460.372 297.126 461.197 304.312C461.954 311.749 464.479 319.04 466.899 326.498C469.318 333.957 471.517 341.29 471.801 348.643C471.904 355.713 470.95 362.758 468.971 369.546C467.214 376.09 465.047 382.17 463.185 387.914C461.367 393.223 459.902 398.645 458.798 404.147C456.757 414.256 457.336 422.799 458.861 428.343C459.43 430.479 460.198 432.557 461.155 434.549L461.954 436.075C462.032 436.254 462.131 436.424 462.249 436.58Z" fill="#263238"/>
<path d="M472.169 272.804C472.169 272.804 478.323 253.121 467.277 241.592C467.193 241.496 467.083 241.427 466.961 241.392C466.839 241.356 466.71 241.356 466.587 241.392C466.465 241.427 466.355 241.496 466.271 241.591C466.186 241.686 466.13 241.803 466.11 241.928C465.521 245.179 464.784 255.078 472.169 272.804Z" fill="#035C8C"/>
<path d="M468.477 248.146C468.493 249.37 468.634 250.589 468.897 251.785C469.297 254.279 469.771 257.224 470.297 260.464C470.823 263.705 471.275 266.65 471.675 269.154C471.778 270.368 471.997 271.569 472.327 272.741C472.444 271.521 472.409 270.291 472.222 269.08C472.011 266.829 471.622 263.736 471.054 260.338C470.486 256.94 469.907 253.889 469.434 251.68C469.247 250.47 468.926 249.285 468.477 248.146Z" fill="#263238"/>
<path d="M464.984 319.239C464.984 319.239 461.218 298.957 446.048 293.991C445.929 293.948 445.8 293.938 445.676 293.964C445.552 293.99 445.438 294.05 445.347 294.138C445.256 294.226 445.191 294.338 445.161 294.461C445.13 294.584 445.135 294.713 445.175 294.833C446.143 297.926 450.119 307.026 464.984 319.239Z" fill="#035C8C"/>
<path d="M450.14 299.178C450.741 300.248 451.446 301.255 452.244 302.187C453.77 304.217 455.558 306.584 457.504 309.204L462.764 316.242C463.429 317.266 464.187 318.227 465.026 319.114C464.552 317.993 463.945 316.933 463.217 315.958C461.986 314.064 460.187 311.518 458.104 308.772C456.021 306.027 454.075 303.607 452.613 301.882C451.898 300.886 451.069 299.978 450.14 299.178Z" fill="#263238"/>
<path d="M469.034 370.125C469.034 370.125 471.317 349.622 458.272 340.417C458.171 340.352 458.054 340.315 457.934 340.309C457.814 340.304 457.695 340.33 457.588 340.386C457.481 340.441 457.391 340.524 457.327 340.625C457.262 340.727 457.225 340.843 457.22 340.964C457.231 344.277 458.398 354.135 469.034 370.125Z" fill="#035C8C"/>
<path d="M460.702 346.623C460.958 347.819 461.336 348.986 461.828 350.105C462.701 352.493 463.722 355.281 464.858 358.363C465.994 361.446 466.962 364.244 467.867 366.632C468.206 367.802 468.649 368.939 469.192 370.03C469.075 368.813 468.806 367.615 468.393 366.464C467.761 364.286 466.783 361.33 465.584 358.048C464.384 354.766 463.227 351.925 462.333 349.853C461.912 348.719 461.365 347.635 460.702 346.623Z" fill="#263238"/>
<path d="M457.62 421.305C457.62 421.305 459.177 400.727 445.817 391.996C445.712 391.929 445.592 391.892 445.468 391.888C445.344 391.885 445.222 391.915 445.114 391.975C445.006 392.036 444.917 392.124 444.855 392.232C444.793 392.339 444.762 392.461 444.765 392.585C444.901 395.888 446.416 405.703 457.62 421.305Z" fill="#035C8C"/>
<path d="M448.457 398.119C448.739 399.306 449.148 400.459 449.677 401.559L453.002 409.701C454.243 412.752 455.358 415.508 456.305 417.854C456.687 419.014 457.173 420.137 457.757 421.21C457.589 419.995 457.274 418.805 456.82 417.665C456.116 415.561 455.032 412.594 453.717 409.407C452.402 406.219 451.14 403.379 450.182 401.348C449.727 400.212 449.149 399.129 448.457 398.119Z" fill="#263238"/>
<path d="M481.016 255.51C481.016 255.51 499.3 245.957 499.658 229.999C499.66 229.875 499.629 229.753 499.567 229.645C499.506 229.538 499.416 229.449 499.308 229.389C499.2 229.328 499.078 229.298 498.954 229.302C498.83 229.306 498.71 229.343 498.606 229.409C495.871 231.282 488.349 237.752 481.016 255.51Z" fill="#035C8C"/>
<path d="M495.86 235.479C495.006 236.352 494.245 237.311 493.588 238.341C492.094 240.392 490.358 242.801 488.433 245.463C486.508 248.125 484.751 250.534 483.257 252.574C482.466 253.507 481.761 254.511 481.153 255.573C482.099 254.794 482.944 253.9 483.668 252.911C485.109 251.175 487.023 248.703 489.033 245.915C491.042 243.128 492.788 240.55 494.009 238.646C494.746 237.666 495.368 236.603 495.86 235.479Z" fill="#263238"/>
<path d="M461.376 297.789C461.376 297.789 480.207 289.373 481.543 273.457C481.558 273.328 481.536 273.197 481.479 273.08C481.423 272.963 481.334 272.865 481.224 272.796C481.113 272.728 480.986 272.692 480.856 272.694C480.726 272.695 480.599 272.734 480.491 272.804C477.682 274.572 469.771 280.526 461.376 297.789Z" fill="#035C8C"/>
<path d="M477.419 278.706C476.507 279.521 475.685 280.431 474.967 281.42L469.392 288.216L463.795 295.002C462.952 295.885 462.195 296.847 461.533 297.873C462.519 297.142 463.416 296.298 464.206 295.359C465.752 293.718 467.814 291.372 469.992 288.711C472.169 286.049 474.063 283.577 475.399 281.757C476.183 280.818 476.861 279.795 477.419 278.706Z" fill="#263238"/>
<path d="M472.211 344.951C472.211 344.951 485.14 328.876 479.081 314.117C479.034 314 478.956 313.899 478.856 313.823C478.755 313.748 478.636 313.702 478.511 313.69C478.386 313.678 478.26 313.701 478.147 313.756C478.035 313.81 477.939 313.895 477.871 314.001C476.135 316.81 471.822 325.762 472.211 344.951Z" fill="#035C8C"/>
<path d="M477.797 320.66C477.367 321.805 477.05 322.989 476.851 324.195C476.314 326.667 475.683 329.571 474.989 332.79C474.294 336.009 473.642 338.902 473.095 341.374C472.754 342.543 472.518 343.74 472.39 344.951C472.94 343.859 473.353 342.704 473.621 341.511C474.252 339.344 475.02 336.314 475.725 332.948C476.43 329.581 477.008 326.52 477.366 324.29C477.644 323.099 477.788 321.882 477.797 320.66Z" fill="#263238"/>
<path d="M459.408 400.454C459.408 400.454 478.092 391.723 479.154 375.795C479.167 375.667 479.144 375.538 479.086 375.423C479.029 375.308 478.94 375.211 478.83 375.144C478.72 375.077 478.594 375.042 478.465 375.044C478.336 375.046 478.211 375.084 478.102 375.154C475.315 376.911 467.509 383.054 459.408 400.454Z" fill="#035C8C"/>
<path d="M475.125 381.097C474.233 381.933 473.426 382.857 472.716 383.853L467.256 390.755L461.828 397.656C461.003 398.556 460.263 399.532 459.619 400.57C460.59 399.824 461.47 398.966 462.238 398.013C463.764 396.351 465.784 393.963 467.919 391.259C470.055 388.556 471.906 386.063 473.179 384.222C473.939 383.254 474.592 382.206 475.125 381.097Z" fill="#263238"/>
<path d="M422.189 319.355C422.189 319.355 422.189 319.503 422.189 319.808C422.189 320.113 422.189 320.597 422.189 321.123C422.241 322.364 422.315 324.037 422.41 326.13C422.641 330.528 422.978 336.65 423.388 344.014C424.724 351.473 428.522 359.794 433.634 367.779C437.38 373.702 441.304 379.078 444.691 384.085C447.768 388.446 450.538 393.016 452.981 397.761C454.587 400.984 455.887 404.351 456.863 407.818C457.189 409.049 457.431 410.006 457.578 410.669C457.636 411.007 457.728 411.338 457.852 411.658C457.84 411.304 457.798 410.952 457.725 410.606C457.641 409.933 457.441 408.954 457.147 407.702C456.272 404.182 455.042 400.759 453.475 397.487C451.088 392.67 448.349 388.036 445.28 383.622C441.914 378.583 438.011 373.197 434.287 367.306C429.206 359.31 425.418 351.168 424.04 343.825C423.525 336.461 423.104 330.37 422.788 325.941C422.62 323.837 422.483 322.196 422.389 320.954C422.389 320.428 422.294 319.997 422.252 319.639C422.238 319.543 422.217 319.448 422.189 319.355Z" fill="#263238"/>
<path d="M433.308 366.264C433.308 366.264 425.397 347.223 435.349 334.704C435.427 334.604 435.53 334.527 435.649 334.482C435.767 334.437 435.896 334.426 436.02 334.45C436.145 334.474 436.26 334.532 436.353 334.618C436.446 334.704 436.514 334.814 436.549 334.935C437.432 338.155 439.063 347.949 433.308 366.264Z" fill="#035C8C"/>
<path d="M434.75 341.374C434.408 342.55 434.2 343.76 434.129 344.982C433.845 347.223 433.529 350.327 433.287 353.756C433.045 357.186 432.93 360.31 432.93 362.561C432.85 363.786 432.925 365.016 433.151 366.222C433.364 365.021 433.47 363.803 433.466 362.582C433.634 360.058 433.834 357.091 434.055 353.809C434.276 350.526 434.497 347.56 434.665 345.035C434.821 343.821 434.849 342.594 434.75 341.374Z" fill="#263238"/>
<g opacity="0.3">
<path d="M433.308 366.264C433.308 366.264 425.397 347.223 435.349 334.704C435.427 334.604 435.53 334.527 435.649 334.482C435.767 334.437 435.896 334.426 436.02 334.45C436.145 334.474 436.26 334.532 436.353 334.618C436.446 334.704 436.514 334.814 436.549 334.935C437.432 338.155 439.063 347.949 433.308 366.264Z" fill="black"/>
</g>
<path d="M457.83 412.173C457.83 412.173 451.518 392.543 462.417 380.918C462.502 380.824 462.612 380.756 462.734 380.72C462.855 380.685 462.985 380.684 463.107 380.718C463.229 380.751 463.34 380.819 463.426 380.912C463.512 381.005 463.571 381.12 463.595 381.244C464.216 384.485 465.037 394.384 457.83 412.173Z" fill="#035C8C"/>
<path d="M461.281 387.483C460.841 388.626 460.534 389.815 460.366 391.028C459.903 393.237 459.314 396.288 458.819 399.697C458.325 403.105 457.925 406.198 457.767 408.449C457.598 409.662 457.573 410.891 457.694 412.11C458.015 410.934 458.223 409.729 458.314 408.512C458.682 406.009 459.124 403.063 459.608 399.823C460.092 396.583 460.555 393.627 460.934 391.123C461.169 389.924 461.285 388.705 461.281 387.483Z" fill="#263238"/>
<g opacity="0.3">
<path d="M457.83 412.173C457.83 412.173 451.518 392.543 462.417 380.918C462.502 380.824 462.612 380.756 462.734 380.72C462.855 380.685 462.985 380.684 463.107 380.718C463.229 380.751 463.34 380.819 463.426 380.912C463.512 381.005 463.571 381.12 463.595 381.244C464.216 384.485 465.037 394.384 457.83 412.173Z" fill="black"/>
</g>
<path d="M423.23 342.952C423.23 342.952 406.335 331.127 408.039 315.253C408.05 315.126 408.096 315.005 408.172 314.903C408.247 314.801 408.35 314.722 408.468 314.675C408.586 314.629 408.714 314.615 408.839 314.637C408.964 314.659 409.081 314.716 409.175 314.8C411.627 317.051 418.254 324.447 423.23 342.952Z" fill="#035C8C"/>
<g opacity="0.3">
<path d="M423.23 342.952C423.23 342.952 406.335 331.127 408.039 315.253C408.05 315.126 408.096 315.005 408.172 314.903C408.247 314.801 408.35 314.722 408.468 314.675C408.586 314.629 408.714 314.615 408.839 314.637C408.964 314.659 409.081 314.716 409.175 314.8C411.627 317.051 418.254 324.447 423.23 342.952Z" fill="black"/>
</g>
<path d="M411.101 321.207C411.435 322.383 411.904 323.516 412.5 324.584C413.468 326.625 414.867 329.413 416.497 332.442C418.128 335.472 419.653 338.165 420.916 340.069C421.513 341.141 422.237 342.137 423.072 343.036C422.612 341.907 422.049 340.822 421.389 339.796L417.181 332.074L412.973 324.342C412.455 323.237 411.828 322.187 411.101 321.207Z" fill="#263238"/>
<path d="M451.013 392.712C451.013 392.712 430.626 389.556 425.166 374.533C425.123 374.415 425.113 374.288 425.138 374.165C425.162 374.043 425.22 373.929 425.305 373.837C425.389 373.744 425.497 373.677 425.618 373.642C425.738 373.607 425.865 373.606 425.986 373.639C429.216 374.512 438.379 378.257 451.013 392.712Z" fill="#035C8C"/>
<g opacity="0.3">
<path d="M451.013 392.712C451.013 392.712 430.626 389.556 425.166 374.533C425.123 374.415 425.113 374.288 425.138 374.165C425.162 374.043 425.22 373.929 425.305 373.837C425.389 373.744 425.497 373.677 425.618 373.642C425.738 373.607 425.865 373.606 425.986 373.639C429.216 374.512 438.379 378.257 451.013 392.712Z" fill="black"/>
</g>
<path d="M430.521 378.509C431.347 379.412 432.271 380.22 433.277 380.918C435.034 382.328 437.485 384.211 440.325 386.178C443.166 388.146 445.722 389.902 447.689 391.081C448.692 391.787 449.781 392.363 450.929 392.795C450.016 391.989 449.034 391.264 447.994 390.628L440.788 385.589L433.624 380.487C432.659 379.725 431.619 379.062 430.521 378.509Z" fill="#263238"/>
<path d="M475.125 430.226L469.287 468.571L445.932 468.529L438.074 430.226H475.125Z" fill="#263238"/>
<path d="M441.493 444.996C441.493 444.996 441.546 445.059 441.682 445.143C441.819 445.227 442.019 445.353 442.303 445.49C443.124 445.891 444.005 446.154 444.912 446.268C446.354 446.463 447.822 446.327 449.204 445.869C451.066 445.279 452.687 444.102 453.822 442.513C454.449 441.554 454.811 440.448 454.874 439.304C454.938 438.662 454.824 438.015 454.544 437.434C454.263 436.853 453.828 436.361 453.286 436.011C452.666 435.704 451.975 435.57 451.285 435.626C450.596 435.682 449.935 435.924 449.372 436.327C448.211 437.178 447.414 438.437 447.142 439.851C446.833 441.274 446.733 442.734 446.848 444.186C446.927 445.703 447.246 447.198 447.794 448.614C448.368 450.102 449.296 451.427 450.498 452.475C451.746 453.581 453.326 454.24 454.99 454.348C456.652 454.384 458.286 453.911 459.671 452.991C461.001 452.142 462.178 451.075 463.154 449.835C464.156 448.644 464.773 447.176 464.921 445.627C464.98 444.867 464.86 444.104 464.572 443.399C464.283 442.694 463.834 442.066 463.259 441.566C462.668 441.128 461.963 440.871 461.229 440.827C460.495 440.782 459.764 440.951 459.124 441.314C458.51 441.62 457.975 442.064 457.56 442.611C457.146 443.159 456.864 443.795 456.736 444.47C456.561 445.661 456.75 446.878 457.277 447.961C457.804 449.044 458.646 449.943 459.693 450.54C461.415 451.473 463.414 451.764 465.331 451.36C466.747 451.065 468.102 450.531 469.339 449.782C470.121 449.325 470.872 448.819 471.591 448.267C471.855 448.089 472.099 447.88 472.317 447.647C472.039 447.8 471.772 447.973 471.517 448.162C471.001 448.499 470.244 449.014 469.224 449.572C467.992 450.262 466.656 450.745 465.268 451.002C463.442 451.358 461.549 451.056 459.924 450.15C458.976 449.591 458.217 448.762 457.743 447.769C457.268 446.775 457.101 445.663 457.262 444.575C457.378 443.989 457.629 443.438 457.994 442.965C458.359 442.492 458.829 442.111 459.366 441.85C459.907 441.532 460.529 441.382 461.155 441.42C461.781 441.457 462.382 441.68 462.88 442.06C463.377 442.504 463.763 443.058 464.01 443.676C464.256 444.295 464.356 444.963 464.3 445.627C464.156 447.052 463.58 448.399 462.649 449.488C461.717 450.667 460.593 451.681 459.324 452.486C458.045 453.328 456.543 453.768 455.011 453.748C453.491 453.638 452.05 453.032 450.908 452.023C449.777 451.047 448.903 449.808 448.362 448.415C447.841 447.068 447.532 445.648 447.447 444.207C447.334 442.816 447.419 441.417 447.7 440.051C447.942 438.789 448.647 437.663 449.677 436.895C450.151 436.542 450.712 436.325 451.299 436.268C451.887 436.21 452.479 436.314 453.012 436.569C453.475 436.867 453.847 437.287 454.087 437.782C454.326 438.278 454.424 438.83 454.369 439.378C454.312 440.441 453.978 441.471 453.402 442.366C452.333 443.887 450.807 445.029 449.046 445.627C447.742 446.057 446.361 446.2 444.996 446.048C443.778 445.894 442.594 445.538 441.493 444.996Z" fill="#E0E0E0"/>
</svg>
