<svg width="27" height="24" viewBox="0 0 27 24" fill="none" xmlns="http://www.w3.org/2000/svg">
<g clip-path="url(#clip0_45_153)">
<path d="M17.5448 4.53784H9.45527C9.01534 4.53784 8.66077 4.18729 8.66077 3.75235C8.66077 3.31741 9.01534 2.96686 9.45527 2.96686H17.5382C17.9781 2.96686 18.3327 3.31741 18.3327 3.75235C18.3327 4.18729 17.9781 4.53784 17.5382 4.53784H17.5448Z" fill="white"/>
<path d="M26.2055 23.5H0.794504C0.354572 23.5 0 23.1495 0 22.7145V3.75235C0 3.31741 0.354572 2.96686 0.794504 2.96686H5.73225C6.17218 2.96686 6.52675 3.31741 6.52675 3.75235C6.52675 4.18729 6.17218 4.53784 5.73225 4.53784H1.59557V21.9225H25.4044V4.53784H21.2678C20.8278 4.53784 20.4732 4.18729 20.4732 3.75235C20.4732 3.31741 20.8278 2.96686 21.2678 2.96686H26.2055C26.6454 2.96686 27 3.31741 27 3.75235V22.7145C27 23.1495 26.6454 23.5 26.2055 23.5Z" fill="white"/>
<path d="M9.45525 6.88132H5.73225C5.29232 6.88132 4.93774 6.53076 4.93774 6.09582V1.28549C4.93774 0.85055 5.29232 0.5 5.73225 0.5H9.45525C9.89519 0.5 10.2498 0.85055 10.2498 1.28549V6.09582C10.2498 6.53076 9.89519 6.88132 9.45525 6.88132ZM6.52675 5.30384H8.66075V2.07748H6.52675V5.31033V5.30384Z" fill="white"/>
<path d="M21.2678 6.88132H17.5447C17.1048 6.88132 16.7502 6.53076 16.7502 6.09582V1.28549C16.7502 0.85055 17.1048 0.5 17.5447 0.5H21.2678C21.7077 0.5 22.0623 0.85055 22.0623 1.28549V6.09582C22.0623 6.53076 21.7077 6.88132 21.2678 6.88132ZM18.3393 5.30384H20.4733V2.07748H18.3393V5.31033V5.30384Z" fill="white"/>
<path d="M8.60822 13.4639C8.60822 12.4959 7.81448 11.7111 6.83536 11.7111C5.85624 11.7111 5.0625 12.4959 5.0625 13.4639C5.0625 14.4319 5.85624 15.2166 6.83536 15.2166C7.81448 15.2166 8.60822 14.4319 8.60822 13.4639Z" fill="white"/>
<path d="M8.60822 18.4365C8.60822 17.4684 7.81448 16.6837 6.83536 16.6837C5.85624 16.6837 5.0625 17.4684 5.0625 18.4365C5.0625 19.4045 5.85624 20.1892 6.83536 20.1892C7.81448 20.1892 8.60822 19.4045 8.60822 18.4365Z" fill="white"/>
<path d="M15.3188 13.4639C15.3188 12.4959 14.5251 11.7111 13.5459 11.7111C12.5668 11.7111 11.7731 12.4959 11.7731 13.4639C11.7731 14.4319 12.5668 15.2166 13.5459 15.2166C14.5251 15.2166 15.3188 14.4319 15.3188 13.4639Z" fill="white"/>
<path d="M15.3188 18.4365C15.3188 17.4684 14.5251 16.6837 13.5459 16.6837C12.5668 16.6837 11.7731 17.4684 11.7731 18.4365C11.7731 19.4045 12.5668 20.1892 13.5459 20.1892C14.5251 20.1892 15.3188 19.4045 15.3188 18.4365Z" fill="white"/>
<path d="M22.0295 13.4639C22.0295 12.4959 21.2357 11.7111 20.2566 11.7111C19.2775 11.7111 18.4838 12.4959 18.4838 13.4639C18.4838 14.4319 19.2775 15.2166 20.2566 15.2166C21.2357 15.2166 22.0295 14.4319 22.0295 13.4639Z" fill="white"/>
<path d="M22.0295 18.4365C22.0295 17.4684 21.2357 16.6837 20.2566 16.6837C19.2775 16.6837 18.4838 17.4684 18.4838 18.4365C18.4838 19.4045 19.2775 20.1892 20.2566 20.1892C21.2357 20.1892 22.0295 19.4045 22.0295 18.4365Z" fill="white"/>
<path d="M26.2449 8.54968H0.840454V10.1272H26.2449V8.54968Z" fill="white"/>
</g>
<defs>
<clipPath id="clip0_45_153">
<rect width="27" height="23" fill="white" transform="translate(0 0.5)"/>
</clipPath>
</defs>
</svg>
