<svg width="23" height="24" viewBox="0 0 23 24" fill="none" xmlns="http://www.w3.org/2000/svg">
<g clip-path="url(#clip0_45_38)">
<path d="M2.57485 7.96405H0.57258C0.265268 7.96405 0.0161743 8.21314 0.0161743 8.52046C0.0161743 8.82777 0.265268 9.07686 0.57258 9.07686H2.5748C2.88216 9.07686 3.13126 8.82777 3.13126 8.52046C3.13126 8.21314 2.88216 7.96405 2.57485 7.96405Z" fill="white"/>
<path d="M22.4274 7.96405H20.4252C20.1179 7.96405 19.8688 8.21314 19.8688 8.52046C19.8688 8.82777 20.1179 9.07686 20.4252 9.07686H22.4274C22.7347 9.07686 22.9839 8.82777 22.9839 8.52046C22.9839 8.21314 22.7347 7.96405 22.4274 7.96405Z" fill="white"/>
<path d="M4.86718 15.1532C4.64989 14.9359 4.29761 14.9359 4.08028 15.1532L2.6239 16.6096C2.40662 16.8269 2.40662 17.1791 2.6239 17.3965C2.73257 17.5051 2.87497 17.5595 3.01733 17.5595C3.15969 17.5595 3.30214 17.5051 3.41076 17.3965L4.86718 15.9401C5.08447 15.7229 5.08447 15.3705 4.86718 15.1532Z" fill="white"/>
<path d="M19.3575 0.662966C19.1402 0.445678 18.788 0.445678 18.5706 0.662966L17.1541 2.07945C16.9368 2.29674 16.9368 2.64906 17.1541 2.86631C17.2628 2.97488 17.4052 3.02924 17.5476 3.02924C17.69 3.02924 17.8324 2.97488 17.941 2.86626L19.3575 1.44982C19.5747 1.23253 19.5747 0.88021 19.3575 0.662966Z" fill="white"/>
<path d="M5.84514 2.07864L4.42942 0.66296C4.21213 0.445761 3.85981 0.445761 3.64252 0.66296C3.42523 0.880248 3.42523 1.23257 3.64252 1.44986L5.05824 2.86558C5.16691 2.9742 5.30931 3.02856 5.45167 3.02856C5.59403 3.02856 5.73647 2.9742 5.8451 2.86558C6.06239 2.64829 6.06239 2.29597 5.84514 2.07864Z" fill="white"/>
<path d="M20.376 16.6097L18.925 15.1586C18.7077 14.9413 18.3555 14.9413 18.1381 15.1587C17.9208 15.376 17.9208 15.7283 18.1381 15.9455L19.5892 17.3966C19.6978 17.5052 19.8402 17.5595 19.9826 17.5595C20.125 17.5595 20.2673 17.5052 20.376 17.3966C20.5933 17.1793 20.5933 16.827 20.376 16.6097Z" fill="white"/>
<path d="M11.7393 2.02734C7.89185 2.02734 4.76172 5.30149 4.76172 9.32602C4.76172 11.197 5.43191 13.211 6.60052 14.8514C7.49802 16.1113 7.97235 17.513 7.97235 18.9052V22.4035C7.97235 23.0171 8.47157 23.5163 9.08516 23.5163H14.3936C15.0072 23.5163 15.5064 23.0171 15.5064 22.4035V18.9052C15.5064 17.5131 15.9807 16.1113 16.8781 14.8514C18.0467 13.211 18.717 11.197 18.717 9.32602C18.7169 5.30149 15.5867 2.02734 11.7393 2.02734ZM14.3935 22.4036H9.08507V21.6758H11.7393C12.0466 21.6758 12.2957 21.4267 12.2957 21.1194C12.2957 20.8121 12.0466 20.563 11.7393 20.563H9.08507V19.8353H14.3936L14.3942 22.4035C14.3942 22.4036 14.394 22.4036 14.3935 22.4036ZM10.959 12.0227L10.215 10.4331H13.2636L12.5196 12.0227C12.4903 12.0853 12.473 12.1528 12.4683 12.2218L12.0369 18.7225H11.4418L11.0103 12.2218C11.0057 12.1528 10.9883 12.0853 10.959 12.0227ZM15.9717 14.2058C14.9779 15.6009 14.435 17.1587 14.3958 18.7225H13.1521L13.5718 12.3997L14.6423 10.1125C14.723 9.9402 14.71 9.73854 14.6078 9.57799C14.5057 9.41748 14.3287 9.32023 14.1384 9.32023H9.34018C9.14989 9.32023 8.97286 9.41748 8.8707 9.57799C8.76859 9.7385 8.75557 9.94015 8.83625 10.1125L9.90683 12.3997L10.3264 18.7224H9.08273C9.04347 17.1586 8.50063 15.6009 7.50678 14.2058C6.48462 12.7709 5.8744 10.9466 5.8744 9.32598C5.8744 5.91504 8.50535 3.14011 11.7392 3.14011C14.9731 3.14011 17.604 5.91504 17.604 9.32598C17.6041 10.9467 16.9939 12.771 15.9717 14.2058Z" fill="white"/>
</g>
<defs>
<clipPath id="clip0_45_38">
<rect width="23" height="23" fill="white" transform="translate(0 0.5)"/>
</clipPath>
</defs>
</svg>
