<svg width="23" height="24" viewBox="0 0 23 24" fill="none" xmlns="http://www.w3.org/2000/svg">
<path d="M18.995 6.44818H4.00494C3.73159 6.44818 3.50995 6.66978 3.50995 6.94318V14.4193C3.50995 14.6927 3.73159 14.9143 4.00494 14.9143C4.27829 14.9143 4.49994 14.6927 4.49994 14.4193V7.43813H18.5V14.4192C18.5 14.6926 18.7217 14.9142 18.995 14.9142C19.2684 14.9142 19.49 14.6926 19.49 14.4192V6.94313C19.49 6.66978 19.2683 6.44818 18.995 6.44818Z" fill="white"/>
<path d="M22.5546 16.1868H21.6429V5.79167C21.6429 4.96663 20.9716 4.29541 20.1466 4.29541H2.85344C2.02836 4.29541 1.35718 4.96663 1.35718 5.79167V16.1868H0.445491C0.199454 16.1868 0 16.3862 0 16.6323V17.5069C0 18.7187 0.985902 19.7046 2.19776 19.7046H20.8022C22.0141 19.7046 23 18.7187 23 17.5069V16.6323C23 16.3862 22.8006 16.1868 22.5546 16.1868ZM2.34713 5.79167C2.34713 5.51253 2.5743 5.28536 2.85344 5.28536H20.1465C20.4257 5.28536 20.6528 5.51248 20.6528 5.79167V16.1868H13.9505C13.9189 16.1858 13.8863 16.1885 13.854 16.1947C13.6443 16.2351 13.4928 16.4186 13.4928 16.6321C13.4928 17.0082 13.1868 17.3141 12.8109 17.3141H10.1892C9.81316 17.3141 9.50733 17.0081 9.50733 16.6321C9.50733 16.3827 9.30064 16.1814 9.05151 16.1867H2.34713V5.79167ZM22.1091 17.5069C22.1091 18.2275 21.5228 18.8136 20.8023 18.8136H2.19776C1.47721 18.8136 0.890982 18.2275 0.890982 17.5069V17.0778H8.68059C8.87317 17.7288 9.4766 18.2051 10.1892 18.2051H12.8108C13.5234 18.2051 14.1268 17.7287 14.3195 17.0778H22.1091V17.5069H22.1091Z" fill="white"/>
<path d="M12.2336 9.32533C12.0403 9.13203 11.727 9.13203 11.5336 9.32533L8.42061 12.4384C8.22731 12.6317 8.22731 12.9451 8.42061 13.1384C8.51728 13.2351 8.64396 13.2834 8.7706 13.2834C8.89728 13.2834 9.02391 13.235 9.12058 13.1384L12.2336 10.0254C12.4269 9.8321 12.4269 9.51868 12.2336 9.32533Z" fill="white"/>
<path d="M14.0788 11.1294C13.8854 10.9361 13.5721 10.9361 13.3787 11.1294L12.1386 12.3695C11.9453 12.5628 11.9453 12.8762 12.1386 13.0696C12.2353 13.1663 12.362 13.2146 12.4886 13.2146C12.6153 13.2146 12.7419 13.1663 12.8386 13.0696L14.0787 11.8295C14.2721 11.6362 14.2721 11.3228 14.0788 11.1294Z" fill="white"/>
</svg>
