<svg width="18" height="24" viewBox="0 0 18 24" fill="none" xmlns="http://www.w3.org/2000/svg">
<g clip-path="url(#clip0_45_36)">
<path d="M18 10.9414C18 8.28773 16.8845 6.55892 14.6957 5.80224C14.1538 4.7618 13.0804 4.03664 11.8386 3.9841C12.4963 3.80018 13.0488 3.29573 13.2593 2.59685C13.3119 2.42344 13.2961 2.22901 13.2067 2.07137C13.1225 1.90847 12.9752 1.78762 12.7963 1.73507L8.83426 0.531732C8.46595 0.421383 8.08185 0.626318 7.97135 0.994149C7.81351 1.52488 7.86612 2.08188 8.12394 2.57057C8.23443 2.77025 8.37124 2.94891 8.53435 3.1013L8.41859 3.49015L8.07132 3.38506C7.89769 3.33251 7.70827 3.34827 7.54516 3.4376C7.38205 3.52168 7.26103 3.66881 7.20842 3.84747L5.58258 9.1968C5.47735 9.54887 5.66676 9.92195 6.00877 10.0428L5.3879 12.0922C5.2774 12.46 5.48261 12.8436 5.85092 12.9539L8.3765 13.7211C8.4449 13.7422 8.50804 13.7527 8.57644 13.7527C8.68693 13.7527 8.80269 13.7264 8.90266 13.6686C9.06577 13.5845 9.18679 13.4374 9.2394 13.2587L9.86028 11.2146C9.91289 11.2251 9.97077 11.2356 10.0234 11.2356C10.1339 11.2356 10.2496 11.2094 10.3496 11.1516C10.5127 11.0675 10.6337 10.9204 10.6863 10.7417L10.7284 10.5998C11.0336 10.6891 11.3598 10.7417 11.6966 10.7417C12.4911 10.7417 13.2172 10.4684 13.796 10.0113C13.9117 10.1584 13.9906 10.3213 14.038 10.521C14.0696 10.6471 14.0801 10.7942 14.0801 10.9466V15.9334H10.9652V15.3343C10.9652 14.9507 10.6548 14.6407 10.2707 14.6407H4.45133C4.06723 14.6407 3.7568 14.9507 3.7568 15.3343V17.8041C3.7568 18.1877 4.06723 18.4977 4.45133 18.4977H10.2707C10.6548 18.4977 10.9652 18.1877 10.9652 17.8041V17.3206H14.0801V19.0599H3.76206C1.68898 19.0599 0 20.7467 0 22.8171C0 23.2007 0.310436 23.5107 0.694534 23.5107H17.3107C17.6948 23.5107 18.0053 23.2007 18.0053 22.8171C18.0053 22.6174 17.9895 22.4177 17.9579 22.2286C17.9895 22.1497 18.0053 22.0709 18.0053 21.9816V10.9414H18ZM9.57615 17.1052H5.14586V16.0227H9.57615V17.1052ZM16.6109 10.9414V19.9007C16.2742 19.6222 15.8848 19.4068 15.4639 19.2596V10.9414C15.4639 10.6839 15.4376 10.4422 15.385 10.211C15.2692 9.71176 15.0377 9.28088 14.6852 8.93406C14.9114 8.50317 15.0535 8.01974 15.0745 7.50477C16.1216 8.16687 16.6162 9.28088 16.6162 10.9414H16.6109ZM10.1812 3.98935L9.75504 3.86849L10.1812 3.98935ZM8.32914 4.90368L9.13417 5.14539C8.61853 5.73918 8.3081 6.51163 8.3081 7.35239C8.3081 8.19314 8.61327 8.94457 9.11312 9.5331L7.10845 8.92355L8.32914 4.89842V4.90368ZM8.10816 12.1867L6.90851 11.8242L7.32944 10.4422L8.52909 10.8048L8.10816 12.1867ZM11.6913 9.34919C10.5916 9.34919 9.6919 8.45588 9.6919 7.35239C9.6919 6.24889 10.5864 5.35558 11.6913 5.35558C12.7963 5.35558 13.6907 6.24889 13.6907 7.35239C13.6907 8.45588 12.7963 9.34919 11.6913 9.34919ZM3.76206 20.4367H14.2379C14.2695 20.4787 14.3063 20.5155 14.3484 20.547L16.3689 22.1182H1.48904C1.78369 21.1461 2.69395 20.4367 3.76206 20.4367Z" fill="white"/>
</g>
<defs>
<clipPath id="clip0_45_36">
<rect width="18" height="23" fill="white" transform="translate(0 0.5)"/>
</clipPath>
</defs>
</svg>
