<svg width="561" height="493" viewBox="0 0 561 493" fill="none" xmlns="http://www.w3.org/2000/svg">
<g clip-path="url(#clip0_145_622)">
<path d="M555.848 486.557L555.348 486.409L555.243 486.379L555.148 486.326L287.759 339.136L555.848 486.557ZM555.848 486.557C555.156 487.443 554.358 488.28 553.013 489.207C550.363 491.032 547.22 492.006 544.002 492H544H17H16.9992C13.9317 492.003 10.9291 491.118 8.3531 489.453C7.16604 488.603 6.5633 488.003 5.99423 487.302L6.46478 487.035L6.4736 487.03L273.254 339.155C275.473 337.928 277.968 337.282 280.504 337.279C283.04 337.276 285.536 337.915 287.758 339.136L555.848 486.557Z" stroke="white" stroke-width="2"/>
<path d="M544 175L312.782 41.4694C303.057 35.8531 292.025 32.8937 280.795 32.8882C269.565 32.8827 258.531 35.8312 248.8 41.4379L17 175C12.4933 175.006 8.17297 176.799 4.98624 179.986C1.7995 183.173 0.00637539 187.493 0 192V476C0.00525083 480.507 1.798 484.828 4.98499 488.015C8.17197 491.202 12.4929 492.995 17 493H544C548.506 492.992 552.826 491.199 556.012 488.012C559.199 484.826 560.992 480.506 561 476V192C560.994 187.493 559.201 183.173 556.014 179.986C552.827 176.799 548.507 175.006 544 175ZM559 476C558.99 479.975 557.407 483.785 554.596 486.596C551.785 489.407 547.975 490.99 544 491H17C13.0239 490.993 9.2128 489.41 6.40131 486.598C3.58981 483.787 2.00715 479.976 2 476V192C2.00484 188.023 3.58675 184.211 6.39874 181.399C9.21074 178.587 13.0232 177.005 17 177L248.8 43.4379C258.531 37.8312 269.565 34.8827 280.795 34.8882C292.025 34.8937 303.057 37.8531 312.782 43.4694L544 177C547.977 177.005 551.789 178.587 554.601 181.399C557.413 184.211 558.995 188.023 559 192V476Z" fill="white"/>
<path d="M280.8 333.68C279.058 333.686 277.328 333.396 275.684 332.822L275.381 332.715L275.32 332.042C275.132 332.135 274.941 332.224 274.751 332.308L274.55 332.396L274.348 332.308C273.927 332.123 273.508 331.913 273.105 331.686L89 228.232V17C89.0055 12.0952 90.9564 7.39284 94.4246 3.92461C97.8928 0.456376 102.595 -1.49449 107.5 -1.5H453.5C458.405 -1.49449 463.107 0.456376 466.575 3.92461C470.044 7.39284 471.995 12.0952 472 17V228.502L471.745 228.646L288.495 331.686C286.143 332.997 283.493 333.684 280.8 333.68Z" fill="white"/>
<path d="M280.8 335C279.002 335.006 277.215 334.706 275.518 334.113L274.912 333.9L274.886 333.614L274.55 333.762L274.147 333.585C273.711 333.394 273.278 333.177 272.859 332.941L88.5 229.345V17.8198C88.5057 12.7825 90.5093 7.95305 94.0713 4.3911C97.6332 0.829142 102.463 -1.17447 107.5 -1.18018H453.5C458.537 -1.17445 463.367 0.829162 466.929 4.39111C470.491 7.95306 472.494 12.7825 472.5 17.8198V229.615L288.74 332.941C286.313 334.295 283.579 335.004 280.8 335ZM276.786 332.423C280.463 333.479 284.408 333.039 287.761 331.198L470.5 228.445V17.8198C470.495 13.3127 468.702 8.99163 465.515 5.80461C462.328 2.61759 458.007 0.824898 453.5 0.819824H107.5C102.993 0.824877 98.6718 2.61757 95.4848 5.8046C92.2977 8.99162 90.5051 13.3127 90.5 17.8198V228.174L102.49 234.908L273.84 331.198C274.073 331.33 274.31 331.453 274.55 331.569C274.79 331.453 275.027 331.33 275.259 331.199L276.606 330.44L276.786 332.423Z" fill="white"/>
<path d="M556.57 182.38L484 223.18L471.5 230.21L288.25 333.25C285.972 334.52 283.407 335.184 280.8 335.18C279.115 335.185 277.441 334.904 275.85 334.35C275.407 334.208 274.973 334.042 274.55 333.85C274.14 333.67 273.74 333.47 273.35 333.25L102 236.96L89.4999 229.94L4.57995 182.22C4.34904 182.088 4.17966 181.869 4.10854 181.613C4.03742 181.356 4.0703 181.082 4.20007 180.85C4.33018 180.619 4.54646 180.45 4.80141 180.379C5.05637 180.307 5.32915 180.34 5.55993 180.47L89.4999 227.64L102 234.66L274.33 331.5C274.902 331.821 275.497 332.098 276.11 332.33C276.37 332.43 276.64 332.52 276.91 332.6C278.622 333.125 280.422 333.299 282.202 333.11C283.983 332.921 285.707 332.373 287.27 331.5L471.5 227.92L484 220.89L555.59 180.64C555.704 180.576 555.83 180.534 555.96 180.519C556.09 180.503 556.222 180.513 556.348 180.548C556.475 180.584 556.593 180.643 556.696 180.724C556.799 180.805 556.885 180.906 556.95 181.02C557.014 181.134 557.055 181.26 557.071 181.39C557.087 181.52 557.077 181.652 557.041 181.779C557.006 181.905 556.946 182.023 556.865 182.126C556.784 182.229 556.684 182.316 556.57 182.38Z" fill="white"/>
<path d="M164.075 66H136.075C133.953 66 131.918 65.1572 130.418 63.6569C128.918 62.1566 128.075 60.1217 128.075 58C128.075 55.8783 128.918 53.8434 130.418 52.3431C131.918 50.8428 133.953 50 136.075 50H164.075C166.196 50 168.231 50.8428 169.732 52.3431C171.232 53.8434 172.075 55.8783 172.075 58C172.075 60.1217 171.232 62.1566 169.732 63.6569C168.231 65.1572 166.196 66 164.075 66Z" fill="#31AABC"/>
<path d="M197.075 93H136.075C133.953 93 131.918 92.1572 130.418 90.6569C128.918 89.1566 128.075 87.1217 128.075 85C128.075 82.8783 128.918 80.8434 130.418 79.3431C131.918 77.8428 133.953 77 136.075 77H197.075C199.196 77 201.231 77.8428 202.732 79.3431C204.232 80.8434 205.075 82.8783 205.075 85C205.075 87.1217 204.232 89.1566 202.732 90.6569C201.231 92.1572 199.196 93 197.075 93Z" fill="#31AABC" fill-opacity="0.25"/>
<path d="M367.5 165H194.5C192.378 165 190.343 164.157 188.843 162.657C187.343 161.157 186.5 159.122 186.5 157C186.5 154.878 187.343 152.843 188.843 151.343C190.343 149.843 192.378 149 194.5 149H367.5C369.622 149 371.657 149.843 373.157 151.343C374.657 152.843 375.5 154.878 375.5 157C375.5 159.122 374.657 161.157 373.157 162.657C371.657 164.157 369.622 165 367.5 165Z" fill="#31AABC"/>
<path d="M383.5 196H177.5C175.378 196 173.343 195.157 171.843 193.657C170.343 192.157 169.5 190.122 169.5 188C169.5 185.878 170.343 183.843 171.843 182.343C173.343 180.843 175.378 180 177.5 180H383.5C385.622 180 387.657 180.843 389.157 182.343C390.657 183.843 391.5 185.878 391.5 188C391.5 190.122 390.657 192.157 389.157 193.657C387.657 195.157 385.622 196 383.5 196Z" fill="#31AABC" fill-opacity="0.25"/>
<path d="M383.5 226H177.5C175.378 226 173.343 225.157 171.843 223.657C170.343 222.157 169.5 220.122 169.5 218C169.5 215.878 170.343 213.843 171.843 212.343C173.343 210.843 175.378 210 177.5 210H383.5C385.622 210 387.657 210.843 389.157 212.343C390.657 213.843 391.5 215.878 391.5 218C391.5 220.122 390.657 222.157 389.157 223.657C387.657 225.157 385.622 226 383.5 226Z" fill="#31AABC" fill-opacity="0.25"/>
</g>
<defs>
<clipPath id="clip0_145_622">
<rect width="561" height="493" fill="white"/>
</clipPath>
</defs>
</svg>
