<svg width="24" height="23" viewBox="0 0 24 23" fill="none" xmlns="http://www.w3.org/2000/svg">
<g clip-path="url(#clip0_45_75)">
<path d="M12.6715 11.7156C12.197 11.0444 11.435 10.6342 10.618 10.6032C10.6007 10.6012 10.5831 10.6002 10.5654 10.6002C9.52609 10.6002 8.66732 9.81474 8.55021 8.80642C8.84943 8.58851 9.12552 8.31197 9.37021 7.98072C9.86503 7.3108 10.1862 6.47372 10.3053 5.56851C10.3418 5.52884 10.3725 5.48266 10.3946 5.4301C10.6041 4.9312 10.7103 4.39856 10.7103 3.84697C10.7103 1.72572 9.10652 0 7.13526 0C6.62545 0 6.13081 0.115808 5.66327 0.344326C5.48847 0.35906 5.31719 0.390505 5.15273 0.438122C3.50473 0.914248 2.57328 2.90689 3.07644 4.87999C3.12707 5.0785 3.19144 5.27373 3.2679 5.4602C3.28874 5.51114 3.31794 5.55588 3.35235 5.59496C3.54215 6.98853 4.20174 8.148 5.10381 8.80391C4.98787 9.81348 4.12847 10.6002 3.0883 10.6002C3.07231 10.6002 3.0565 10.6011 3.04087 10.6026C1.63136 10.6524 0.5 11.8138 0.5 13.2352V16.0716C0.5 16.3362 0.714502 16.5507 0.979136 16.5507H9.44469C9.70928 16.5507 9.92383 16.3362 9.92383 16.0716C9.92383 15.8069 9.70928 15.5924 9.44469 15.5924H1.45823V13.2352C1.45823 12.3105 2.21049 11.5582 3.13516 11.5582C3.15115 11.5582 3.16696 11.5574 3.18259 11.5559C3.52773 11.5451 3.85822 11.4756 4.16449 11.3569L6.43291 14.6309C6.5224 14.7601 6.66956 14.8372 6.82674 14.8372C6.98392 14.8372 7.13108 14.7601 7.22057 14.6309L9.48903 11.3569C9.79535 11.4756 10.1258 11.5451 10.4709 11.5559C10.4866 11.5574 10.5024 11.5582 10.5184 11.5582C11.0621 11.5582 11.5745 11.8238 11.8889 12.2687C11.9823 12.4008 12.1303 12.4713 12.2806 12.4713C12.3762 12.4713 12.4727 12.4427 12.5567 12.3834C12.7729 12.2307 12.8242 11.9317 12.6715 11.7156ZM5.41858 1.35852C5.54427 1.32223 5.67719 1.30067 5.81371 1.29451C5.88406 1.29137 5.9527 1.27277 6.01505 1.24002C6.3711 1.05297 6.7479 0.958092 7.13508 0.958092C8.54877 0.958092 9.70344 2.20216 9.74971 3.75052C9.46158 3.53265 9.10315 3.40314 8.71494 3.40314H6.20925C6.08445 3.40314 5.96595 3.36397 5.86672 3.28989C5.78177 3.22651 5.71618 3.14143 5.67697 3.04363C5.58645 2.81839 5.36251 2.6777 5.1207 2.69297C4.8774 2.70856 4.6727 2.87765 4.61138 3.11348C4.48914 3.58305 4.26094 4.02037 3.95067 4.39173C3.70216 3.00248 4.32792 1.67365 5.41858 1.35852ZM4.29495 5.41622C4.71344 5.03259 5.0521 4.56765 5.28857 4.05419C5.29019 4.0554 5.29185 4.05662 5.29351 4.05783C5.55968 4.25647 5.87628 4.36141 6.2092 4.36141H8.71489C9.01587 4.36141 9.27583 4.53751 9.39923 4.79163C9.39604 5.78696 9.11245 6.71671 8.59935 7.41124C8.1155 8.0662 7.48597 8.42692 6.82665 8.42692C6.21648 8.42692 5.62243 8.11171 5.15394 7.5394C4.69942 6.98422 4.39867 6.2369 4.29495 5.41622ZM6.82669 13.5168L4.99312 10.8704C5.48502 10.4622 5.84358 9.89933 5.99519 9.2573C6.26216 9.34086 6.54059 9.38524 6.82665 9.38524C7.11119 9.38524 7.38983 9.34207 7.6586 9.2587C7.81039 9.90009 8.16882 10.4624 8.66036 10.8703L6.82669 13.5168Z" fill="white"/>
<path d="M20.9592 15.1591C20.9436 15.1576 20.9278 15.1567 20.9118 15.1567C19.8711 15.1567 19.0114 14.3692 18.8961 13.3588C19.4829 12.9315 19.9667 12.2908 20.2856 11.5117C20.3312 11.661 20.448 11.7816 20.6018 11.8292C20.6485 11.8437 20.6963 11.8507 20.7436 11.8507C20.8888 11.8507 21.0293 11.7846 21.1217 11.6659C21.7902 10.8074 22.1376 9.69001 22.1003 8.51957C22.0635 7.37137 21.6599 6.29347 20.9636 5.48452C20.2508 4.65625 19.3096 4.19531 18.3127 4.18579C18.2598 4.18363 18.1283 4.18817 18.1071 4.18947C17.5949 3.95713 17.0537 3.8486 16.4963 3.8663C15.3452 3.90309 14.2863 4.47683 13.5149 5.48183C12.7652 6.45847 12.3759 7.73232 12.4186 9.06883C12.4258 9.29528 12.4437 9.50381 12.4726 9.70236C12.5507 10.2719 12.7076 10.8174 12.939 11.3236C13.0126 11.4848 13.1691 11.5921 13.346 11.6027C13.5222 11.6134 13.691 11.5256 13.7835 11.3744C13.822 11.3114 13.8715 11.2328 13.9262 11.1558C14.1398 11.8047 14.4664 12.3877 14.8809 12.848C15.0578 13.0443 15.2488 13.2151 15.45 13.3608C15.3338 14.3701 14.4745 15.1566 13.4345 15.1566C13.4185 15.1566 13.4027 15.1575 13.3871 15.159C11.9777 15.209 10.8464 16.3704 10.8464 17.7917V20.6281C10.8464 20.8927 11.0609 21.1072 11.3255 21.1072H23.0207C23.2853 21.1072 23.4999 20.8927 23.4999 20.6281V17.7917C23.4999 16.3705 22.3686 15.2091 20.9592 15.1591ZM13.5323 10.1355C13.4851 9.95096 13.4481 9.7617 13.4215 9.56832C13.3973 9.40175 13.3825 9.22835 13.3765 9.03828C13.3408 7.92256 13.6599 6.86672 14.2751 6.06536C14.8684 5.29235 15.6681 4.85157 16.5269 4.82413C16.5556 4.82318 17.1732 4.78841 17.8036 5.1061C17.8741 5.14159 17.9553 5.15807 18.0344 5.15583C18.0435 5.15556 18.2895 5.14392 18.2966 5.14401C19.0163 5.14878 19.7054 5.49175 20.2374 6.1097C20.7913 6.75334 21.1128 7.62006 21.1425 8.55025C21.1586 9.05549 21.0876 9.54662 20.9373 9.99849C20.8921 9.87783 20.8416 9.75901 20.786 9.64217C20.3234 8.65793 19.5447 7.89556 18.5933 7.49544C18.4727 7.44477 18.3368 7.44554 18.2169 7.49756C18.097 7.54953 18.0035 7.64827 17.9582 7.7709C17.8944 7.94322 17.8172 8.1111 17.7284 8.26981C17.4775 8.7184 16.9718 8.98528 16.4094 8.9656C16.325 8.96272 16.2394 8.96259 16.1549 8.96529C15.7406 8.97854 15.3366 9.05751 14.9519 9.20077C14.572 9.34416 13.9334 9.70393 13.5323 10.1355ZM14.711 10.3963C14.8927 10.2746 15.086 10.1744 15.2884 10.0979C15.5734 9.99175 15.8752 9.9329 16.1855 9.92297C16.2488 9.92091 16.313 9.921 16.3762 9.9232C17.3014 9.95487 18.1379 9.50071 18.5647 8.73744C18.591 8.6905 18.6165 8.64284 18.6412 8.59473C19.0782 8.86394 19.4517 9.2434 19.7325 9.70394C19.7301 9.71813 19.728 9.73237 19.7269 9.74701C19.6534 10.6561 19.3398 11.4904 18.8438 12.0962C18.3753 12.6685 17.7813 12.9837 17.1711 12.9837C16.0431 12.9836 15.0396 11.9114 14.711 10.3963ZM16.3418 13.8131C16.6115 13.8974 16.8896 13.9419 17.1711 13.9419C17.4579 13.9419 17.737 13.8972 18.0046 13.8132C18.1971 14.6291 18.7247 15.3166 19.4339 15.7222C19.1573 16.7219 18.2378 17.4408 17.1733 17.4408C16.1087 17.4408 15.1893 16.7218 14.9126 15.7221C15.6218 15.3166 16.1494 14.6291 16.3418 13.8131ZM22.5417 20.1491H11.8047V17.7918C11.8047 16.8672 12.557 16.1149 13.4817 16.1149C13.4977 16.1149 13.5135 16.114 13.5291 16.1125C13.6941 16.1074 13.8559 16.0892 14.0131 16.0582C14.4293 17.4246 15.7028 18.3991 17.1732 18.3991C18.6437 18.3991 19.9171 17.4246 20.3334 16.0583C20.4906 16.0893 20.6524 16.1074 20.8173 16.1125C20.833 16.114 20.8488 16.1149 20.8648 16.1149C21.7895 16.1149 22.5417 16.8672 22.5417 17.7918V20.1491Z" fill="white"/>
</g>
<defs>
<clipPath id="clip0_45_75">
<rect width="23" height="23" fill="white" transform="translate(0.5)"/>
</clipPath>
</defs>
</svg>
