<svg width="160" height="97" viewBox="0 0 160 97" fill="none" xmlns="http://www.w3.org/2000/svg">
<path d="M3.71001 88.9202C4.02001 88.9202 4.29001 88.9202 4.52001 88.9402C4.75001 88.9602 4.96001 88.9802 5.15001 89.0102C5.34001 89.0402 5.54001 89.0802 5.75001 89.1302L5.66001 89.6902C5.44001 89.6602 5.23001 89.6402 5.05001 89.6202C4.87001 89.6102 4.67001 89.5902 4.46001 89.5802C4.25001 89.5702 4.00001 89.5602 3.71001 89.5602C3.16001 89.5602 2.73001 89.6702 2.41001 89.8802C2.09001 90.0902 1.86001 90.4402 1.73001 90.9202C1.60001 91.4002 1.53001 92.0602 1.53001 92.8902C1.53001 93.7202 1.60001 94.3802 1.73001 94.8602C1.86001 95.3402 2.09001 95.6902 2.41001 95.9002C2.73001 96.1102 3.16001 96.2202 3.71001 96.2202C4.17001 96.2202 4.56001 96.2102 4.88001 96.1902C5.20001 96.1702 5.51001 96.1302 5.82001 96.0902L5.91001 96.6402C5.60001 96.7202 5.28001 96.7802 4.95001 96.8202C4.62001 96.8602 4.21001 96.8802 3.72001 96.8802C3.00001 96.8802 2.42001 96.7502 1.99001 96.5002C1.56001 96.2402 1.24001 95.8302 1.05001 95.2502C0.860011 94.6702 0.76001 93.8902 0.76001 92.9102C0.76001 91.9302 0.860011 91.1502 1.05001 90.5702C1.24001 89.9902 1.56001 89.5702 1.99001 89.3202C2.42001 89.0602 3.00001 88.9402 3.72001 88.9402L3.71001 88.9202Z" fill="#707070"/>
<path d="M9.47999 91.21C10.08 91.21 10.57 91.3 10.93 91.49C11.29 91.68 11.56 91.98 11.72 92.39C11.88 92.81 11.96 93.36 11.96 94.05C11.96 94.74 11.88 95.29 11.72 95.71C11.56 96.13 11.3 96.43 10.93 96.61C10.57 96.8 10.08 96.89 9.47999 96.89C8.87999 96.89 8.38999 96.8 8.02999 96.61C7.66999 96.42 7.39999 96.12 7.23999 95.71C7.07999 95.3 6.98999 94.74 6.98999 94.05C6.98999 93.36 7.06999 92.81 7.23999 92.39C7.40999 91.97 7.66999 91.67 8.02999 91.49C8.38999 91.3 8.87999 91.21 9.47999 91.21ZM9.47999 91.82C9.03999 91.82 8.69999 91.89 8.43999 92.02C8.18999 92.15 8.00999 92.38 7.89999 92.71C7.78999 93.03 7.73999 93.48 7.73999 94.05C7.73999 94.62 7.78999 95.06 7.89999 95.39C8.00999 95.72 8.18999 95.95 8.43999 96.08C8.68999 96.21 9.03999 96.28 9.47999 96.28C9.91999 96.28 10.25 96.21 10.51 96.08C10.77 95.95 10.95 95.72 11.06 95.39C11.17 95.06 11.22 94.62 11.22 94.05C11.22 93.48 11.17 93.03 11.06 92.71C10.95 92.39 10.77 92.16 10.51 92.02C10.25 91.89 9.90999 91.82 9.47999 91.82Z" fill="#707070"/>
<path d="M14.1501 91.34L14.2101 92.37L14.2701 92.54V96.75H13.5701V91.34H14.1601H14.1501ZM16.6901 91.21C17.6601 91.21 18.1501 91.7 18.1501 92.69V96.75H17.4501V92.88C17.4501 92.49 17.3801 92.22 17.2301 92.06C17.0801 91.9 16.8401 91.82 16.5201 91.82C16.1601 91.82 15.8001 91.91 15.4501 92.08C15.1001 92.25 14.6801 92.49 14.2001 92.8L14.1701 92.28C14.6101 91.94 15.0401 91.67 15.4601 91.49C15.8801 91.3 16.2901 91.21 16.7001 91.21H16.6901Z" fill="#707070"/>
<path d="M20.69 88.9502V91.1902C20.7 91.4102 20.69 91.6202 20.68 91.8302C20.66 92.0302 20.64 92.2102 20.61 92.3802L20.69 92.5502V96.7602H19.99V88.9602H20.69V88.9502ZM23.12 91.2102C24.09 91.2102 24.58 91.7002 24.58 92.6902V96.7502H23.87V92.8802C23.87 92.4902 23.8 92.2202 23.65 92.0602C23.51 91.9002 23.27 91.8202 22.94 91.8202C22.58 91.8202 22.22 91.9002 21.86 92.0702C21.51 92.2402 21.09 92.4802 20.61 92.8002L20.59 92.2802C21.02 91.9502 21.45 91.6902 21.87 91.5002C22.29 91.3102 22.71 91.2102 23.12 91.2102Z" fill="#707070"/>
<path d="M28.5801 91.21C29.3501 91.21 29.9201 91.35 30.2801 91.63C30.6401 91.91 30.8201 92.33 30.8301 92.89C30.8301 93.37 30.7401 93.74 30.5501 94C30.3601 94.26 30.0301 94.39 29.5801 94.39H26.4501V93.83H29.4301C29.7001 93.83 29.8901 93.74 29.9901 93.56C30.0901 93.38 30.1301 93.16 30.1201 92.89C30.1201 92.5 29.9901 92.23 29.7501 92.06C29.5101 91.89 29.1301 91.81 28.6101 91.81C28.1801 91.81 27.8401 91.88 27.5801 92.01C27.3301 92.14 27.1501 92.37 27.0401 92.68C26.9401 93 26.8801 93.43 26.8801 93.97C26.8801 94.57 26.9401 95.04 27.0701 95.37C27.2001 95.7 27.4001 95.93 27.6701 96.06C27.9401 96.19 28.3101 96.26 28.7501 96.26C29.0601 96.26 29.3901 96.25 29.7301 96.22C30.0701 96.19 30.3601 96.16 30.6201 96.13L30.7001 96.61C30.5401 96.67 30.3501 96.72 30.1001 96.76C29.8601 96.8 29.6101 96.83 29.3501 96.85C29.0901 96.87 28.8601 96.88 28.6601 96.88C28.0501 96.88 27.5601 96.79 27.1901 96.6C26.8201 96.41 26.5501 96.11 26.3801 95.69C26.2101 95.27 26.1201 94.72 26.1201 94.03C26.1201 93.34 26.2001 92.77 26.3701 92.36C26.5401 91.95 26.8001 91.66 27.1601 91.48C27.5201 91.3 27.9801 91.21 28.5501 91.21H28.5801Z" fill="#707070"/>
<path d="M34.6301 91.21C34.7801 91.21 34.9501 91.21 35.1401 91.23C35.3301 91.25 35.5301 91.27 35.7301 91.3C35.9301 91.33 36.1201 91.38 36.2901 91.44L36.1901 91.91C35.9601 91.88 35.7101 91.86 35.4301 91.84C35.1501 91.83 34.9201 91.82 34.7401 91.82C34.2701 91.82 33.9001 91.89 33.6201 92.02C33.3401 92.15 33.1401 92.38 33.0201 92.7C32.9001 93.02 32.8401 93.47 32.8401 94.04C32.8401 94.61 32.9001 95.06 33.0201 95.39C33.1401 95.72 33.3401 95.95 33.6201 96.08C33.9001 96.21 34.2701 96.28 34.7401 96.28C34.8501 96.28 35.0001 96.28 35.1701 96.27C35.3401 96.26 35.5401 96.25 35.7401 96.24C35.9401 96.23 36.1301 96.2 36.3101 96.17L36.4001 96.65C36.1301 96.73 35.8401 96.79 35.5401 96.83C35.2301 96.87 34.9201 96.89 34.6201 96.89C34.0101 96.89 33.5201 96.8 33.1501 96.61C32.7801 96.42 32.5101 96.12 32.3401 95.71C32.1701 95.3 32.0901 94.74 32.0901 94.04C32.0901 93.34 32.1701 92.8 32.3401 92.38C32.5101 91.96 32.7801 91.66 33.1501 91.48C33.5201 91.3 34.0201 91.21 34.6301 91.21Z" fill="#707070"/>
<path d="M38.33 89.0701C38.49 89.0701 38.56 89.1501 38.56 89.3001V89.9601C38.56 90.1201 38.48 90.1901 38.33 90.1901H38C37.84 90.1901 37.77 90.1101 37.77 89.9601V89.3001C37.77 89.1401 37.85 89.0701 38 89.0701H38.33ZM38.51 91.3401V96.7501H37.82V91.3401H38.51Z" fill="#707070"/>
<path d="M41.0099 91.34L41.0699 92.37L41.1399 92.54V96.75H40.4399V91.34H41.0199H41.0099ZM43.3299 91.21C43.7799 91.21 44.1299 91.33 44.3799 91.58C44.6299 91.83 44.7499 92.2 44.7499 92.69V96.75H44.0699V92.88C44.0699 92.5 43.9899 92.23 43.8299 92.07C43.6699 91.91 43.4299 91.82 43.1099 91.82C42.8999 91.82 42.6999 91.85 42.4999 91.92C42.2999 91.99 42.0899 92.09 41.8599 92.24C41.6299 92.38 41.3599 92.57 41.0499 92.8L41.0099 92.29C41.4099 91.93 41.7999 91.66 42.1799 91.48C42.5599 91.3 42.9399 91.21 43.3299 91.21ZM46.9499 91.21C47.4099 91.21 47.7599 91.34 48.0099 91.59C48.2599 91.84 48.3799 92.21 48.3799 92.69V96.75H47.6799V92.88C47.6799 92.52 47.5899 92.25 47.4499 92.08C47.2999 91.91 47.0599 91.82 46.7299 91.82C46.5099 91.82 46.3099 91.86 46.1099 91.93C45.9099 92 45.6999 92.11 45.4799 92.25C45.2599 92.39 44.9899 92.58 44.6899 92.8L44.6499 92.29C45.0499 91.93 45.4399 91.66 45.8299 91.48C46.2099 91.3 46.5899 91.21 46.9699 91.21H46.9499Z" fill="#707070"/>
<path d="M52.3499 91.21C53.1199 91.21 53.6899 91.35 54.0499 91.63C54.4099 91.91 54.5899 92.33 54.5999 92.89C54.5999 93.37 54.5099 93.74 54.3199 94C54.1299 94.26 53.7999 94.39 53.3499 94.39H50.2199V93.83H53.1999C53.4699 93.83 53.6599 93.74 53.7599 93.56C53.8599 93.38 53.8999 93.16 53.8899 92.89C53.8899 92.5 53.7599 92.23 53.5199 92.06C53.2799 91.89 52.8999 91.81 52.3799 91.81C51.9499 91.81 51.6099 91.88 51.3499 92.01C51.0999 92.14 50.9199 92.37 50.8099 92.68C50.7099 93 50.6499 93.43 50.6499 93.97C50.6499 94.57 50.7099 95.04 50.8399 95.37C50.9699 95.7 51.1699 95.93 51.4399 96.06C51.7099 96.19 52.0799 96.26 52.5199 96.26C52.8299 96.26 53.1599 96.25 53.4999 96.22C53.8399 96.19 54.1299 96.16 54.3899 96.13L54.4699 96.61C54.3099 96.67 54.1199 96.72 53.8699 96.76C53.6299 96.8 53.3799 96.83 53.1199 96.85C52.8599 96.87 52.6299 96.88 52.4299 96.88C51.8199 96.88 51.3299 96.79 50.9599 96.6C50.5899 96.41 50.3199 96.11 50.1499 95.69C49.9799 95.27 49.8899 94.72 49.8899 94.03C49.8899 93.34 49.9699 92.77 50.1399 92.36C50.3099 91.95 50.5699 91.66 50.9299 91.48C51.2899 91.3 51.7499 91.21 52.3199 91.21H52.3499Z" fill="#707070"/>
<path d="M56.7399 91.34L56.7999 92.37L56.8599 92.54V96.75H56.1599V91.34H56.7499H56.7399ZM59.2799 91.21C60.2499 91.21 60.7399 91.7 60.7399 92.69V96.75H60.0399V92.88C60.0399 92.49 59.9699 92.22 59.8199 92.06C59.6699 91.9 59.4299 91.82 59.1099 91.82C58.7499 91.82 58.3899 91.91 58.0399 92.08C57.6899 92.25 57.2699 92.49 56.7899 92.8L56.7599 92.28C57.1999 91.94 57.6299 91.67 58.0499 91.49C58.4699 91.3 58.8799 91.21 59.2899 91.21H59.2799Z" fill="#707070"/>
<path d="M65.48 91.34V91.92H61.97V91.4L63.03 91.34H65.48ZM63.65 89.71V95.4C63.65 95.68 63.71 95.88 63.85 96C63.98 96.13 64.18 96.19 64.45 96.19H65.33L65.42 96.71C65.31 96.74 65.18 96.76 65.04 96.78C64.9 96.8 64.76 96.81 64.62 96.82C64.49 96.82 64.38 96.83 64.3 96.83C63.86 96.83 63.53 96.71 63.3 96.48C63.07 96.25 62.96 95.92 62.96 95.48V89.71H63.66H63.65Z" fill="#707070"/>
<path d="M68.9099 91.21C69.5099 91.21 69.9999 91.3 70.3599 91.49C70.7199 91.68 70.9899 91.98 71.1499 92.39C71.3099 92.81 71.3899 93.36 71.3899 94.05C71.3899 94.74 71.3099 95.29 71.1499 95.71C70.9899 96.13 70.7299 96.43 70.3599 96.61C69.9999 96.8 69.5099 96.89 68.9099 96.89C68.3099 96.89 67.8199 96.8 67.4599 96.61C67.0999 96.42 66.8299 96.12 66.6699 95.71C66.5099 95.3 66.4199 94.74 66.4199 94.05C66.4199 93.36 66.4999 92.81 66.6699 92.39C66.8399 91.97 67.0999 91.67 67.4599 91.49C67.8199 91.3 68.3099 91.21 68.9099 91.21ZM68.9099 91.82C68.4699 91.82 68.1299 91.89 67.8699 92.02C67.6199 92.15 67.4399 92.38 67.3299 92.71C67.2199 93.03 67.1699 93.48 67.1699 94.05C67.1699 94.62 67.2199 95.06 67.3299 95.39C67.4399 95.72 67.6199 95.95 67.8699 96.08C68.1199 96.21 68.4699 96.28 68.9099 96.28C69.3499 96.28 69.6799 96.21 69.9399 96.08C70.1999 95.95 70.3799 95.72 70.4899 95.39C70.5999 95.06 70.6499 94.62 70.6499 94.05C70.6499 93.48 70.5999 93.03 70.4899 92.71C70.3799 92.39 70.1999 92.16 69.9399 92.02C69.6799 91.89 69.3399 91.82 68.9099 91.82Z" fill="#707070"/>
<path d="M78.1399 89.0601C78.2099 89.0601 78.2699 89.0801 78.3199 89.1201C78.3799 89.1601 78.4099 89.2101 78.4299 89.2801L81.0099 96.7601H80.2499L78.09 90.2701C78.06 90.1701 78.03 90.0601 77.99 89.9501C77.95 89.8401 77.9199 89.7401 77.8899 89.6401H77.5699C77.5399 89.7401 77.5099 89.8401 77.4799 89.9501C77.4499 90.0601 77.4099 90.1601 77.3699 90.2701L75.2099 96.7601H74.45L77.0299 89.2801C77.0499 89.2101 77.0899 89.1601 77.1399 89.1201C77.1899 89.0801 77.2499 89.0601 77.3199 89.0601H78.16H78.1399ZM79.67 93.5601V94.2001H75.77V93.5601H79.67Z" fill="#707070"/>
<path d="M82.7701 88.9502V91.1102C82.7701 91.3402 82.7701 91.5402 82.7601 91.7202C82.7601 91.9002 82.7301 92.0802 82.6901 92.2702L82.7601 92.4402V96.5402L82.0701 96.5102V88.9502H82.7701ZM84.8401 91.2102C85.5201 91.2102 86.0201 91.4302 86.3301 91.8602C86.6401 92.2902 86.7901 93.0202 86.7901 94.0402C86.7901 94.5202 86.7501 94.9402 86.6701 95.3002C86.5901 95.6602 86.4601 95.9502 86.2901 96.1902C86.1101 96.4202 85.8701 96.6002 85.5801 96.7102C85.2801 96.8302 84.9101 96.8802 84.4801 96.8802C84.2901 96.8802 84.1001 96.8802 83.8901 96.8602C83.6901 96.8402 83.4801 96.8202 83.2701 96.7902C83.0601 96.7602 82.8601 96.7202 82.6501 96.6702C82.4501 96.6302 82.2501 96.5702 82.0601 96.5002L82.6301 96.0202C82.8501 96.0802 83.0701 96.1302 83.2801 96.1702C83.4901 96.2102 83.6901 96.2402 83.8801 96.2502C84.0701 96.2602 84.2701 96.2702 84.4601 96.2702C84.8501 96.2702 85.1601 96.2002 85.3901 96.0602C85.6201 95.9202 85.7901 95.6802 85.9001 95.3602C86.0001 95.0302 86.0601 94.5902 86.0601 94.0402C86.0601 93.4902 86.0201 93.0602 85.9301 92.7402C85.8401 92.4202 85.7001 92.1802 85.4901 92.0402C85.2801 91.9002 84.9901 91.8302 84.6201 91.8302C84.3101 91.8302 84.0001 91.9202 83.7101 92.0902C83.4201 92.2602 83.0801 92.5002 82.6901 92.8102L82.6501 92.3102C82.8901 92.0702 83.1301 91.8702 83.3601 91.7102C83.6001 91.5502 83.8401 91.4302 84.0901 91.3402C84.3401 91.2502 84.5901 91.2102 84.8401 91.2102Z" fill="#707070"/>
<path d="M90.5501 91.21C91.3201 91.21 91.8901 91.35 92.2501 91.63C92.6101 91.91 92.7901 92.33 92.8001 92.89C92.8001 93.37 92.7101 93.74 92.5201 94C92.3301 94.26 92.0001 94.39 91.5501 94.39H88.4201V93.83H91.4001C91.6701 93.83 91.8601 93.74 91.9601 93.56C92.0601 93.38 92.1001 93.16 92.0901 92.89C92.0901 92.5 91.9601 92.23 91.7201 92.06C91.4801 91.89 91.1001 91.81 90.5801 91.81C90.1501 91.81 89.8101 91.88 89.5501 92.01C89.3001 92.14 89.1201 92.37 89.0101 92.68C88.9101 93 88.8501 93.43 88.8501 93.97C88.8501 94.57 88.9101 95.04 89.0401 95.37C89.1701 95.7 89.3701 95.93 89.6401 96.06C89.9101 96.19 90.2801 96.26 90.7201 96.26C91.0301 96.26 91.3601 96.25 91.7001 96.22C92.0401 96.19 92.3301 96.16 92.5901 96.13L92.6701 96.61C92.5101 96.67 92.3201 96.72 92.0701 96.76C91.8301 96.8 91.5801 96.83 91.3201 96.85C91.0601 96.87 90.8301 96.88 90.6301 96.88C90.0201 96.88 89.5301 96.79 89.1601 96.6C88.7901 96.41 88.5201 96.11 88.3501 95.69C88.1801 95.27 88.0901 94.72 88.0901 94.03C88.0901 93.34 88.1701 92.77 88.3401 92.36C88.5101 91.95 88.7701 91.66 89.1301 91.48C89.4901 91.3 89.9501 91.21 90.5201 91.21H90.5501Z" fill="#707070"/>
<path d="M94.8801 91.34L94.9701 92.37L95.0401 92.54V96.75H94.3401V91.34H94.8901H94.8801ZM97.5801 91.21L97.4901 91.88H97.2201C96.8701 91.88 96.5301 91.96 96.1901 92.11C95.8501 92.26 95.4401 92.48 94.9701 92.76L94.9101 92.29C95.3301 91.96 95.7401 91.69 96.1501 91.5C96.5601 91.31 96.9601 91.21 97.3401 91.21H97.5701H97.5801Z" fill="#707070"/>
<path d="M101.64 91.34V91.92H98.1299V91.4L99.1899 91.34H101.64ZM99.8099 89.71V95.4C99.8099 95.68 99.8699 95.88 100.01 96C100.14 96.13 100.34 96.19 100.61 96.19H101.49L101.58 96.71C101.47 96.74 101.34 96.76 101.2 96.78C101.06 96.8 100.92 96.81 100.78 96.82C100.65 96.82 100.54 96.83 100.46 96.83C100.02 96.83 99.6899 96.71 99.4599 96.48C99.2299 96.25 99.1199 95.92 99.1199 95.48V89.71H99.8199H99.8099Z" fill="#707070"/>
<path d="M105.07 91.21C105.67 91.21 106.16 91.3 106.52 91.49C106.88 91.68 107.15 91.98 107.31 92.39C107.47 92.81 107.55 93.36 107.55 94.05C107.55 94.74 107.47 95.29 107.31 95.71C107.15 96.13 106.89 96.43 106.52 96.61C106.16 96.8 105.67 96.89 105.07 96.89C104.47 96.89 103.98 96.8 103.62 96.61C103.26 96.42 102.99 96.12 102.83 95.71C102.67 95.3 102.58 94.74 102.58 94.05C102.58 93.36 102.66 92.81 102.83 92.39C103 91.97 103.26 91.67 103.62 91.49C103.98 91.3 104.47 91.21 105.07 91.21ZM105.07 91.82C104.63 91.82 104.29 91.89 104.03 92.02C103.78 92.15 103.6 92.38 103.49 92.71C103.38 93.03 103.33 93.48 103.33 94.05C103.33 94.62 103.38 95.06 103.49 95.39C103.6 95.72 103.78 95.95 104.03 96.08C104.28 96.21 104.63 96.28 105.07 96.28C105.51 96.28 105.84 96.21 106.1 96.08C106.36 95.95 106.54 95.72 106.65 95.39C106.76 95.06 106.81 94.62 106.81 94.05C106.81 93.48 106.76 93.03 106.65 92.71C106.54 92.39 106.36 92.16 106.1 92.02C105.84 91.89 105.5 91.82 105.07 91.82Z" fill="#707070"/>
<path d="M113.81 91.21C114.58 91.21 115.15 91.35 115.51 91.63C115.87 91.91 116.05 92.33 116.06 92.89C116.06 93.37 115.97 93.74 115.78 94C115.59 94.26 115.26 94.39 114.81 94.39H111.68V93.83H114.66C114.93 93.83 115.12 93.74 115.22 93.56C115.32 93.38 115.36 93.16 115.35 92.89C115.35 92.5 115.22 92.23 114.98 92.06C114.74 91.89 114.36 91.81 113.84 91.81C113.41 91.81 113.07 91.88 112.81 92.01C112.56 92.14 112.38 92.37 112.27 92.68C112.17 93 112.11 93.43 112.11 93.97C112.11 94.57 112.17 95.04 112.3 95.37C112.43 95.7 112.63 95.93 112.9 96.06C113.17 96.19 113.54 96.26 113.98 96.26C114.29 96.26 114.62 96.25 114.96 96.22C115.3 96.19 115.59 96.16 115.85 96.13L115.93 96.61C115.77 96.67 115.58 96.72 115.33 96.76C115.09 96.8 114.84 96.83 114.58 96.85C114.32 96.87 114.09 96.88 113.89 96.88C113.28 96.88 112.79 96.79 112.42 96.6C112.05 96.41 111.78 96.11 111.61 95.69C111.44 95.27 111.35 94.72 111.35 94.03C111.35 93.34 111.43 92.77 111.6 92.36C111.77 91.95 112.03 91.66 112.39 91.48C112.75 91.3 113.21 91.21 113.78 91.21H113.81Z" fill="#707070"/>
<path d="M118.18 91.34L118.24 92.37L118.31 92.54V96.75H117.61V91.34H118.19H118.18ZM120.5 91.21C120.95 91.21 121.3 91.33 121.55 91.58C121.8 91.83 121.92 92.2 121.92 92.69V96.75H121.24V92.88C121.24 92.5 121.16 92.23 121 92.07C120.84 91.91 120.6 91.82 120.28 91.82C120.07 91.82 119.87 91.85 119.67 91.92C119.47 91.99 119.26 92.09 119.03 92.24C118.8 92.38 118.53 92.57 118.22 92.8L118.18 92.29C118.58 91.93 118.97 91.66 119.35 91.48C119.73 91.3 120.11 91.21 120.5 91.21ZM124.12 91.21C124.58 91.21 124.93 91.34 125.18 91.59C125.43 91.84 125.55 92.21 125.55 92.69V96.75H124.85V92.88C124.85 92.52 124.76 92.25 124.62 92.08C124.47 91.91 124.23 91.82 123.9 91.82C123.68 91.82 123.48 91.86 123.28 91.93C123.08 92 122.87 92.11 122.65 92.25C122.43 92.39 122.16 92.58 121.86 92.8L121.82 92.29C122.22 91.93 122.61 91.66 123 91.48C123.38 91.3 123.76 91.21 124.14 91.21H124.12Z" fill="#707070"/>
<path d="M132.04 88.9202C132.4 88.9202 132.77 88.9502 133.14 88.9802C133.51 89.0102 133.88 89.0602 134.25 89.1202L134.19 89.6602C133.86 89.6402 133.51 89.6202 133.14 89.6002C132.77 89.5902 132.41 89.5802 132.06 89.5802C131.76 89.5802 131.49 89.5902 131.27 89.6102C131.05 89.6302 130.87 89.6802 130.73 89.7702C130.59 89.8502 130.49 89.9902 130.42 90.1702C130.36 90.3602 130.33 90.6202 130.33 90.9502C130.33 91.4302 130.41 91.7602 130.58 91.9602C130.74 92.1602 131.01 92.2902 131.39 92.3702L133.01 92.7002C133.59 92.8202 133.99 93.0502 134.22 93.3802C134.45 93.7102 134.56 94.1902 134.56 94.8102C134.56 95.2602 134.51 95.6302 134.4 95.9002C134.3 96.1702 134.14 96.3802 133.94 96.5202C133.74 96.6602 133.48 96.7602 133.17 96.8102C132.86 96.8602 132.49 96.8902 132.07 96.8902C131.8 96.8902 131.47 96.8802 131.08 96.8602C130.69 96.8402 130.24 96.7902 129.73 96.7002L129.79 96.1602C130.17 96.1702 130.49 96.1902 130.74 96.2002C131 96.2102 131.23 96.2202 131.44 96.2202C131.65 96.2202 131.87 96.2202 132.1 96.2202C132.53 96.2202 132.87 96.1802 133.13 96.1102C133.38 96.0402 133.56 95.9102 133.67 95.7102C133.78 95.5102 133.83 95.2002 133.83 94.8002C133.83 94.4702 133.79 94.2002 133.72 94.0102C133.65 93.8202 133.53 93.6802 133.37 93.5802C133.21 93.4802 133 93.4102 132.75 93.3602L131.11 93.0102C130.56 92.9002 130.17 92.6702 129.95 92.3402C129.72 92.0002 129.61 91.5402 129.61 90.9402C129.61 90.4902 129.66 90.1202 129.76 89.8502C129.86 89.5802 130.01 89.3802 130.21 89.2402C130.41 89.1102 130.66 89.0202 130.96 88.9802C131.26 88.9402 131.63 88.9202 132.04 88.9202Z" fill="#707070"/>
<path d="M140 93.4502V93.9902L137.35 94.0102C137.07 94.0102 136.86 94.0902 136.73 94.2402C136.6 94.3802 136.53 94.5902 136.53 94.8502V95.3202C136.53 95.6202 136.61 95.8502 136.76 96.0002C136.92 96.1502 137.15 96.2202 137.47 96.2202C137.71 96.2202 137.97 96.1902 138.26 96.1002C138.55 96.0102 138.83 95.8802 139.11 95.7102C139.39 95.5402 139.64 95.3402 139.86 95.1102V95.6602C139.77 95.7702 139.64 95.8902 139.48 96.0302C139.31 96.1602 139.12 96.2902 138.9 96.4202C138.68 96.5502 138.44 96.6502 138.18 96.7302C137.92 96.8102 137.64 96.8502 137.36 96.8502C137.05 96.8502 136.78 96.7902 136.55 96.6802C136.32 96.5702 136.14 96.4002 136.01 96.1802C135.88 95.9602 135.81 95.6902 135.81 95.3802V94.7602C135.81 94.3402 135.93 94.0202 136.18 93.8002C136.43 93.5702 136.78 93.4602 137.23 93.4602H139.99L140 93.4502ZM138.64 91.2102C139.01 91.2102 139.33 91.2602 139.58 91.3702C139.84 91.4802 140.03 91.6502 140.17 91.8902C140.3 92.1302 140.37 92.4602 140.37 92.8702V96.7502H139.81L139.7 95.5702L139.66 95.4702V92.8702C139.66 92.5302 139.58 92.2702 139.42 92.0902C139.26 91.9102 138.96 91.8202 138.51 91.8202C138.18 91.8202 137.8 91.8402 137.37 91.8602C136.94 91.8802 136.52 91.9302 136.11 91.9702L136.04 91.4502C136.29 91.4102 136.56 91.3702 136.84 91.3302C137.12 91.3002 137.42 91.2702 137.72 91.2402C138.02 91.2102 138.33 91.2002 138.63 91.2002L138.64 91.2102Z" fill="#707070"/>
<path d="M142.86 91.3401V95.2201C142.86 95.5901 142.93 95.8601 143.09 96.0201C143.25 96.1801 143.5 96.2701 143.85 96.2701C144.2 96.2701 144.51 96.1901 144.84 96.0201C145.16 95.8601 145.55 95.6201 146.01 95.3201L146.09 95.8301C145.66 96.1801 145.24 96.4401 144.84 96.6201C144.44 96.8001 144.03 96.8901 143.62 96.8901C142.65 96.8901 142.16 96.4001 142.16 95.4101V91.3401H142.86ZM145.54 88.5801L145.96 89.1301L143.98 90.5501L143.71 90.2201L145.54 88.5901V88.5801ZM146.63 91.3401V96.7501H146.07L146 95.7401L145.92 95.5701V91.3501H146.62L146.63 91.3401Z" fill="#707070"/>
<path d="M150.27 91.2102C150.63 91.2102 150.98 91.2602 151.34 91.3502C151.7 91.4502 152.05 91.5902 152.39 91.7702L152.36 92.2402C151.97 92.1102 151.63 92.0102 151.34 91.9402C151.05 91.8702 150.74 91.8302 150.42 91.8302C150.08 91.8302 149.8 91.9002 149.59 92.0302C149.38 92.1602 149.22 92.3802 149.13 92.7002C149.03 93.0202 148.99 93.4602 148.99 94.0302C148.99 94.6002 149.04 95.0402 149.13 95.3602C149.23 95.6802 149.38 95.9102 149.58 96.0502C149.78 96.1902 150.05 96.2602 150.38 96.2602C150.61 96.2602 150.82 96.2302 151.01 96.1702C151.2 96.1102 151.4 96.0002 151.62 95.8602C151.84 95.7202 152.08 95.5402 152.37 95.3402L152.43 95.8802C152.1 96.1802 151.74 96.4202 151.37 96.6102C151 96.8002 150.6 96.8902 150.19 96.8902C149.51 96.8902 149.02 96.6602 148.72 96.1902C148.42 95.7302 148.27 95.0102 148.27 94.0402C148.27 93.3402 148.34 92.7902 148.49 92.3702C148.63 91.9602 148.85 91.6602 149.15 91.4802C149.44 91.3002 149.82 91.2102 150.29 91.2102H150.27ZM152.97 88.9502V96.7502H152.42L152.33 95.8002L152.26 95.7302V92.0002L152.32 91.8302C152.29 91.6202 152.27 91.4302 152.27 91.2502C152.27 91.0702 152.27 90.8802 152.27 90.6702V88.9402H152.97V88.9502Z" fill="#707070"/>
<path d="M157 91.21C157.77 91.21 158.34 91.35 158.7 91.63C159.06 91.91 159.24 92.33 159.25 92.89C159.25 93.37 159.16 93.74 158.97 94C158.78 94.26 158.45 94.39 158 94.39H154.87V93.83H157.85C158.12 93.83 158.31 93.74 158.41 93.56C158.51 93.38 158.55 93.16 158.54 92.89C158.54 92.5 158.41 92.23 158.17 92.06C157.93 91.89 157.55 91.81 157.03 91.81C156.6 91.81 156.26 91.88 156 92.01C155.75 92.14 155.57 92.37 155.46 92.68C155.36 93 155.3 93.43 155.3 93.97C155.3 94.57 155.36 95.04 155.49 95.37C155.62 95.7 155.82 95.93 156.09 96.06C156.36 96.19 156.73 96.26 157.17 96.26C157.48 96.26 157.81 96.25 158.15 96.22C158.49 96.19 158.78 96.16 159.04 96.13L159.12 96.61C158.96 96.67 158.77 96.72 158.52 96.76C158.28 96.8 158.03 96.83 157.77 96.85C157.51 96.87 157.28 96.88 157.08 96.88C156.47 96.88 155.98 96.79 155.61 96.6C155.24 96.41 154.97 96.11 154.8 95.69C154.63 95.27 154.54 94.72 154.54 94.03C154.54 93.34 154.62 92.77 154.79 92.36C154.96 91.95 155.22 91.66 155.58 91.48C155.94 91.3 156.4 91.21 156.97 91.21H157Z" fill="#707070"/>
<path d="M98.0901 64.4401C96.6601 63.8801 94.7601 63.3101 92.4401 62.7601C90.6701 62.3501 89.2601 61.9701 88.2401 61.6101C87.2601 61.2601 86.4301 60.7701 85.7801 60.1601C85.1601 59.5701 84.8601 58.8201 84.8601 57.8601C84.8601 56.4101 85.5101 55.3001 86.8501 54.4901C88.2301 53.6501 90.0701 53.2301 92.3001 53.2301C94.6801 53.2301 97.0101 53.6201 99.2301 54.3901C99.5701 54.5301 99.8401 54.5901 100.07 54.5901C100.71 54.5901 101.23 54.3501 101.63 53.8901C102.01 53.4401 102.2 52.9301 102.2 52.3801C102.2 51.3501 101.69 50.6201 100.73 50.2801C98.1001 49.3001 95.1101 48.8101 91.8701 48.8101C89.4301 48.8101 87.3001 49.2301 85.5501 50.0501C83.7801 50.8801 82.4201 52.0201 81.5101 53.4301C80.6001 54.8501 80.1301 56.4401 80.1301 58.1701C80.1301 60.1601 80.6901 61.7801 81.8101 62.9901C82.9001 64.1701 84.2101 65.0601 85.7201 65.6501C87.1901 66.2201 89.1401 66.8301 91.5101 67.4401C93.2701 67.9001 94.6501 68.3101 95.6101 68.6401C96.5201 68.9601 97.3001 69.4001 97.9201 69.9501C98.5001 70.4701 98.7801 71.0901 98.7801 71.8701C98.7801 75.0201 96.3901 76.5501 91.4701 76.5501C88.4601 76.5501 85.6001 75.9601 82.9701 74.7801C82.6601 74.6401 82.3301 74.5701 81.9901 74.5701C81.3601 74.5701 80.8301 74.7901 80.4201 75.2401C80.0201 75.6701 79.8201 76.2001 79.8201 76.7901C79.8201 77.2501 79.9601 77.6801 80.2401 78.0801C80.5101 78.4701 80.8601 78.7601 81.2801 78.9301C84.5601 80.3501 88.1201 81.0701 91.8701 81.0701C94.1301 81.0701 96.1601 80.6901 97.9001 79.9401C99.6501 79.1901 101.03 78.1201 102 76.7701C102.98 75.4101 103.47 73.8501 103.47 72.1401C103.47 70.0701 102.93 68.3901 101.87 67.1601C100.83 65.9501 99.5501 65.0401 98.0801 64.4701L98.0901 64.4401Z" fill="#707070"/>
<path d="M130.37 49.01C129.71 49.01 129.15 49.25 128.7 49.72C128.25 50.18 128.03 50.75 128.03 51.4V68.87C128.03 70.54 127.64 71.98 126.88 73.14C126.12 74.3 125.1 75.19 123.85 75.77C122.59 76.36 121.22 76.66 119.79 76.66C118.36 76.66 116.99 76.36 115.73 75.77C114.48 75.19 113.46 74.3 112.7 73.14C111.94 71.98 111.55 70.54 111.55 68.87V51.4C111.55 50.74 111.31 50.18 110.85 49.71C110.39 49.24 109.82 49.01 109.16 49.01C108.5 49.01 107.94 49.25 107.49 49.72C107.04 50.18 106.82 50.75 106.82 51.4V68.74C106.82 71.41 107.46 73.7 108.73 75.55C109.99 77.4 111.64 78.79 113.62 79.69C115.59 80.59 117.67 81.04 119.79 81.04C121.91 81.04 123.99 80.59 125.96 79.69C127.94 78.79 129.59 77.39 130.85 75.55C132.12 73.7 132.76 71.4 132.76 68.74V51.4C132.76 50.74 132.52 50.18 132.06 49.71C131.59 49.24 131.03 49.01 130.37 49.01Z" fill="#707070"/>
<path d="M158.34 67.1301C157.3 65.9201 156.02 65.0101 154.55 64.4401C153.12 63.8801 151.22 63.3101 148.9 62.7601C147.13 62.3501 145.72 61.9701 144.7 61.6101C143.72 61.2601 142.89 60.7701 142.24 60.1601C141.62 59.5701 141.32 58.8201 141.32 57.8601C141.32 56.4101 141.97 55.3001 143.31 54.4901C144.69 53.6501 146.53 53.2301 148.76 53.2301C151.14 53.2301 153.47 53.6201 155.69 54.3901C156.03 54.5301 156.3 54.5901 156.53 54.5901C157.17 54.5901 157.69 54.3501 158.09 53.8901C158.47 53.4401 158.66 52.9301 158.66 52.3801C158.66 51.3501 158.15 50.6201 157.19 50.2801C154.56 49.3001 151.57 48.8101 148.33 48.8101C145.89 48.8101 143.76 49.2301 142.01 50.0501C140.24 50.8801 138.88 52.0201 137.97 53.4301C137.06 54.8501 136.59 56.4401 136.59 58.1701C136.59 60.1601 137.15 61.7801 138.27 62.9901C139.36 64.1701 140.67 65.0601 142.18 65.6501C143.65 66.2201 145.6 66.8301 147.97 67.4401C149.73 67.9001 151.11 68.3101 152.07 68.6401C152.98 68.9601 153.76 69.4001 154.38 69.9501C154.96 70.4701 155.24 71.0901 155.24 71.8701C155.24 75.0201 152.85 76.5501 147.93 76.5501C144.92 76.5501 142.06 75.9601 139.43 74.7801C139.12 74.6401 138.79 74.5701 138.45 74.5701C137.82 74.5701 137.29 74.7901 136.88 75.2401C136.48 75.6701 136.28 76.2001 136.28 76.7901C136.28 77.2501 136.42 77.6801 136.7 78.0801C136.97 78.4701 137.32 78.7601 137.74 78.9301C141.02 80.3501 144.58 81.0701 148.33 81.0701C150.59 81.0701 152.62 80.6901 154.36 79.9401C156.11 79.1901 157.49 78.1201 158.46 76.7701C159.44 75.4101 159.93 73.8501 159.93 72.1401C159.93 70.0701 159.39 68.3901 158.33 67.1601L158.34 67.1301Z" fill="#707070"/>
<path d="M53.37 52.5299C53.48 52.2299 53.54 51.9099 53.54 51.5699C53.54 50.7999 53.31 50.1599 52.84 49.6799C52.37 49.1899 51.73 48.9399 50.95 48.9399C50.41 48.9399 49.91 49.1099 49.47 49.4299C49.05 49.7399 48.72 50.1599 48.51 50.6599L39.01 74.3499L29.52 50.6799C29.3 50.1599 28.98 49.7399 28.55 49.4299C28.11 49.0999 27.61 48.9399 27.07 48.9399C26.29 48.9399 25.65 49.1899 25.18 49.6799C24.72 50.1599 24.48 50.7999 24.48 51.5699C24.48 51.9099 24.54 52.2299 24.65 52.5299L35.27 78.2899V78.3099C36.17 80.2599 37.54 80.6699 38.54 80.6699H39.49C40.49 80.6699 41.86 80.2599 42.75 78.3099L53.37 52.5499V52.5299Z" fill="#F5303F"/>
<path d="M77.8399 77.09L67.2199 51.3299V51.31C66.3199 49.36 64.9499 48.95 63.9499 48.95H62.9999C61.9999 48.95 60.6299 49.36 59.7399 51.31L49.1199 77.07V77.09C48.9999 77.3899 48.9399 77.7099 48.9399 78.0499C48.9399 78.82 49.1699 79.46 49.6399 79.94C50.1099 80.43 50.7499 80.6799 51.5299 80.6799C52.0699 80.6799 52.5699 80.51 53.0099 80.19C53.4299 79.88 53.7599 79.4599 53.9699 78.9599L63.4699 55.27L69.1699 69.49L72.9599 78.94C73.0099 79.08 73.0699 79.2 73.1399 79.31C73.3399 79.66 73.6099 79.95 73.9199 80.19C74.3599 80.52 74.8599 80.6799 75.3999 80.6799C76.1799 80.6799 76.8199 80.43 77.2899 79.94C77.7499 79.46 77.9899 78.82 77.9899 78.0499C77.9899 77.7099 77.9299 77.3899 77.8199 77.09H77.8399Z" fill="#F5303F"/>
<path d="M28.9 77.09L18.28 51.3299V51.31C17.38 49.36 16.01 48.95 15.01 48.95H14.06C13.06 48.95 11.69 49.36 10.8 51.31L0.179996 77.07V77.09C0.0599965 77.3899 0 77.7099 0 78.0499C0 78.82 0.229997 79.46 0.699997 79.94C1.17 80.43 1.81 80.6799 2.59 80.6799C3.13 80.6799 3.63 80.51 4.07 80.19C4.49 79.88 4.82 79.4599 5.03 78.9599L14.53 55.27L20.23 69.49L24.02 78.94C24.09 79.11 24.17 79.25 24.25 79.39C24.45 79.7 24.69 79.97 24.98 80.19C25.42 80.52 25.92 80.6799 26.46 80.6799C27.24 80.6799 27.88 80.43 28.35 79.94C28.81 79.46 29.05 78.82 29.05 78.0499C29.05 77.7099 28.99 77.3899 28.88 77.09H28.9Z" fill="#F5303F"/>
<path d="M74.5399 24.7C76.2499 24.7 77.63 23.32 77.63 21.61V3.10001C77.63 1.39001 76.2499 0.0100098 74.5399 0.0100098C72.8299 0.0100098 71.45 1.39001 71.45 3.10001V21.61C71.45 23.32 72.8299 24.7 74.5399 24.7Z" fill="url(#paint0_linear_213_2371)"/>
<path d="M109.37 20.4699L102.4 17.6799H102.35L73.5699 29.2199H73.5499C72.9299 29.4899 72.4299 29.8899 72.0499 30.3999C71.6499 30.9399 71.45 31.5499 71.45 32.1999C71.45 33.1499 71.7499 33.9299 72.3499 34.4999C72.9399 35.0599 73.7099 35.3499 74.6499 35.3499C75.0599 35.3499 75.4499 35.2799 75.8199 35.1399L107.15 22.2199H107.18C108.26 21.7099 108.95 21.0999 109.38 20.4599L109.37 20.4699Z" fill="url(#paint1_linear_213_2371)"/>
<path d="M109.37 20.4699C109.89 19.7099 110.04 18.9099 110.04 18.2599V17.6899H102.4L109.37 20.4799V20.4699Z" fill="url(#paint2_linear_213_2371)"/>
<path style="mix-blend-mode:multiply" fill-rule="evenodd" clip-rule="evenodd" d="M97.75 19.5299L102.35 17.6799L109.37 20.4699L97.75 19.5299Z" fill="url(#paint3_linear_213_2371)"/>
<path fill-rule="evenodd" clip-rule="evenodd" d="M107.17 13.14L75.84 0.220001H75.82C75.45 0.0700012 75.06 0 74.65 0C73.71 0 72.94 0.289998 72.35 0.849998C71.78 1.4 71.48 2.13 71.46 3.02V5.29L102.36 17.67L109.38 20.46C109.9 19.7 110.05 18.9 110.05 18.25V17.1C110.05 15.89 109.55 14.22 107.18 13.14H107.17Z" fill="url(#paint4_linear_213_2371)"/>
<path style="mix-blend-mode:multiply" fill-rule="evenodd" clip-rule="evenodd" d="M71.45 5.29004L77.63 10.86V7.78004L71.45 5.29004Z" fill="url(#paint5_linear_213_2371)"/>
<defs>
<linearGradient id="paint0_linear_213_2371" x1="74.54" y1="12.34" x2="74.56" y2="18.53" gradientUnits="userSpaceOnUse">
<stop stop-color="#C0272D"/>
<stop offset="1" stop-color="#F5303F"/>
</linearGradient>
<linearGradient id="paint1_linear_213_2371" x1="71.45" y1="26.5199" x2="110.04" y2="26.5199" gradientUnits="userSpaceOnUse">
<stop offset="0.13" stop-color="#C0272D"/>
<stop offset="1" stop-color="#F5303F"/>
</linearGradient>
<linearGradient id="paint2_linear_213_2371" x1="71.4499" y1="19.0799" x2="110.04" y2="19.0799" gradientUnits="userSpaceOnUse">
<stop offset="0.13" stop-color="#C0272D"/>
<stop offset="1" stop-color="#F5303F"/>
</linearGradient>
<linearGradient id="paint3_linear_213_2371" x1="97.75" y1="19.0799" x2="109.37" y2="19.0799" gradientUnits="userSpaceOnUse">
<stop stop-color="#880078"/>
<stop offset="0.11" stop-color="#961E87"/>
<stop offset="0.55" stop-color="#CD95C7"/>
<stop offset="0.86" stop-color="#F1E1EF"/>
<stop offset="1" stop-color="white"/>
</linearGradient>
<linearGradient id="paint4_linear_213_2371" x1="71.45" y1="10.24" x2="110.04" y2="10.24" gradientUnits="userSpaceOnUse">
<stop offset="0.13" stop-color="#C0272D"/>
<stop offset="1" stop-color="#F5303F"/>
</linearGradient>
<linearGradient id="paint5_linear_213_2371" x1="71.45" y1="8.08004" x2="77.63" y2="8.08004" gradientUnits="userSpaceOnUse">
<stop stop-color="white"/>
<stop offset="1" stop-color="#880078"/>
</linearGradient>
</defs>
</svg>
