<svg width="200" height="57" viewBox="0 0 200 57" fill="none" xmlns="http://www.w3.org/2000/svg">
<g clip-path="url(#clip0_213_2443)">
<path d="M81.2322 31.486C80.4219 30.9386 79.4685 30.6495 78.4947 30.6558C77.4141 30.6558 76.4552 31.1525 75.618 32.146C74.7719 33.1624 74.3242 34.4588 74.3603 35.7882V47.3025H69.7063V27.0879H74.3603V28.9365C75.6612 27.4521 77.3935 26.71 79.5573 26.71C81.1453 26.71 82.3618 26.9554 83.2067 27.4463L81.2322 31.486Z" fill="#A6CBDE"/>
<path d="M103.801 38.6394H89.5568C89.6444 40.2491 90.1905 41.501 91.1951 42.3953C92.1997 43.2895 93.5521 43.736 95.2522 43.7347C97.376 43.7347 98.9898 43.1746 100.094 42.0545L101.9 45.6596C100.262 47.0068 97.8146 47.6805 94.5586 47.6805C91.5177 47.6805 89.1125 46.7777 87.3428 44.9723C85.5732 43.1668 84.6909 40.6466 84.6961 37.4116C84.6961 34.2302 85.6672 31.6505 87.6094 29.6727C89.5517 27.6949 91.8829 26.7074 94.603 26.71C97.4945 26.71 99.816 27.5846 101.568 29.334C103.319 31.0833 104.194 33.3104 104.193 36.0154C104.15 36.9012 104.018 37.7803 103.801 38.6394ZM89.723 35.0911H99.5179C99.1959 32.1342 97.5821 30.6558 94.6765 30.6558C92.0207 30.6558 90.3695 32.1342 89.723 35.0911Z" fill="#A6CBDE"/>
<path d="M116.185 47.6805H114.508L105.495 27.0879H110.598L115.366 39.4246L120.485 27.0879H125.421L116.185 47.6805Z" fill="#A6CBDE"/>
<path d="M71.0141 18.7987V20.8255H70.0481V15.3111C70.6921 15.2837 71.0682 15.27 71.1763 15.27C72.0341 15.27 72.662 15.4051 73.06 15.6617C73.2581 15.7991 73.4173 15.9868 73.5217 16.206C73.6261 16.4252 73.672 16.6682 73.655 16.911C73.655 18.176 72.9202 18.8079 71.4507 18.8066C71.3425 18.8163 71.1957 18.8085 71.0141 18.7987ZM71.0141 16.1669V17.9293C71.1763 17.9469 71.3058 17.9567 71.4004 17.9567C71.7376 17.9835 72.0747 17.9049 72.3664 17.7315C72.472 17.645 72.555 17.5335 72.6079 17.4068C72.6608 17.28 72.6821 17.142 72.6697 17.005C72.6697 16.4332 72.2157 16.1473 71.3077 16.1473C71.2097 16.144 71.1115 16.148 71.0141 16.159V16.1669Z" fill="#A6CBDE"/>
<path d="M81.5277 20.8177L80.0768 18.5422C79.9319 18.5422 79.7271 18.5305 79.4644 18.5168V20.8177H78.4636V15.3092C78.5177 15.3092 78.7264 15.2994 79.0896 15.2799C79.4547 15.2622 79.7464 15.2524 79.9686 15.2524C81.3493 15.2524 82.0396 15.7936 82.0396 16.8758C82.0421 17.1964 81.9418 17.5091 81.7537 17.7668C81.5768 18.0258 81.3261 18.224 81.035 18.3347L82.6405 20.8177H81.5277ZM79.4605 16.1591V17.6885C79.6382 17.7041 79.7754 17.712 79.8701 17.712C80.1749 17.7328 80.4799 17.6727 80.7549 17.5377C80.9481 17.4221 81.035 17.1989 81.035 16.866C81.0449 16.7519 81.0216 16.6373 80.9681 16.5364C80.9145 16.4355 80.833 16.3527 80.7336 16.2981C80.4345 16.1715 80.1106 16.1159 79.787 16.1356C79.6778 16.136 79.5687 16.1439 79.4605 16.1591Z" fill="#A6CBDE"/>
<path d="M86.7923 18.0156C86.7716 17.2973 86.9961 16.5939 87.4279 16.024C87.6277 15.7614 87.8862 15.5507 88.1822 15.4094C88.4781 15.2681 88.803 15.2002 89.13 15.2114C89.9105 15.2114 90.5075 15.4568 90.9209 15.9477C91.3343 16.4385 91.5411 17.1278 91.5411 18.0156C91.5411 18.9033 91.3253 19.6082 90.8939 20.1304C90.4624 20.6526 89.8493 20.9137 89.0546 20.9137C88.7331 20.9307 88.4124 20.8683 88.12 20.7318C87.8275 20.5954 87.5721 20.389 87.3758 20.1304C86.9881 19.62 86.7936 18.915 86.7923 18.0156ZM87.7931 18.0156C87.7647 18.5353 87.8763 19.0531 88.1157 19.5136C88.2101 19.6799 88.3473 19.817 88.5127 19.9101C88.6782 20.0033 88.8655 20.049 89.0546 20.0423C89.2667 20.0545 89.4785 20.0136 89.6713 19.923C89.864 19.8325 90.0318 19.6953 90.1597 19.5234C90.4173 19.1787 90.5461 18.6761 90.5461 18.0156C90.5461 16.7244 90.0767 16.0789 89.1377 16.0789C88.9417 16.0709 88.747 16.1152 88.5731 16.2073C88.3992 16.2994 88.2522 16.436 88.1466 16.6037C87.894 17.0287 87.771 17.5199 87.7931 18.0156Z" fill="#A6CBDE"/>
<path d="M95.8511 19.543H96.7127C96.7939 19.8641 97.0585 20.0247 97.5067 20.0247C97.6356 20.0378 97.7656 20.0157 97.8832 19.9606C98.0008 19.9055 98.1016 19.8194 98.1752 19.7114C98.3244 19.4195 98.3913 19.0915 98.3684 18.7636V15.3093H99.3344V18.7342C99.3344 19.4666 99.1805 20.0097 98.8726 20.3635C98.5648 20.7173 98.0728 20.8935 97.3966 20.8922C97.0027 20.9117 96.6154 20.785 96.307 20.5358C96.167 20.4117 96.054 20.2592 95.9755 20.0882C95.897 19.9173 95.8546 19.7315 95.8511 19.543Z" fill="#A6CBDE"/>
<path d="M105.308 16.1768V17.4673H107.105V18.2976H105.308V19.9483H107.771V20.8178H104.344V15.3093H107.812V16.1768H105.308Z" fill="#A6CBDE"/>
<path d="M114.829 16.1768V20.8178H113.863V16.1768H112.135V15.3093H116.635V16.1768H114.829Z" fill="#A6CBDE"/>
<path d="M120.505 18.0156C120.482 17.2983 120.703 16.5949 121.132 16.024C121.332 15.7614 121.591 15.5507 121.887 15.4094C122.183 15.2681 122.507 15.2002 122.834 15.2114C123.615 15.2114 124.212 15.4568 124.625 15.9477C125.039 16.4385 125.248 17.1278 125.253 18.0156C125.253 18.9033 125.038 19.6082 124.606 20.1304C124.175 20.6526 123.562 20.9137 122.767 20.9137C122.445 20.9307 122.125 20.8683 121.832 20.7318C121.54 20.5954 121.284 20.389 121.088 20.1304C120.7 19.62 120.506 18.915 120.505 18.0156ZM121.505 18.0156C121.477 18.5353 121.588 19.0531 121.828 19.5136C121.922 19.6799 122.06 19.817 122.225 19.9101C122.39 20.0033 122.578 20.049 122.767 20.0423C122.979 20.0545 123.191 20.0136 123.383 19.923C123.576 19.8325 123.744 19.6953 123.872 19.5234C124.129 19.1787 124.258 18.6761 124.258 18.0156C124.258 16.7244 123.789 16.0789 122.85 16.0789C122.654 16.0709 122.459 16.1152 122.285 16.2073C122.111 16.2994 121.964 16.436 121.859 16.6037C121.606 17.0287 121.483 17.5199 121.505 18.0156Z" fill="#A6CBDE"/>
<path d="M134.331 20.8236V28.0024H144.329V32.6297H134.331V41.8215H148.048V46.6583H128.961V15.9868H148.28V20.8236H134.331Z" fill="#005C8D"/>
<path d="M153.025 46.6603V15.9868H158.396V41.8235H172.07V46.6603H153.025Z" fill="#005C8D"/>
<path d="M194.071 46.6604L191.861 40.443H181.49L179.384 46.6604H173.413L185.478 15.5679H187.833L200.004 46.6604H194.071ZM186.654 24.9477L183.018 36.276H190.296L186.654 24.9477Z" fill="#005C8D"/>
<path d="M21.8714 42.5657C19.4007 41.0446 17.3242 38.9472 15.8148 36.4482C14.2403 38.7256 13.1255 41.0422 12.573 43.2765C15.8341 43.7015 19.1551 43.49 22.3757 42.8673C22.2056 42.7674 22.0376 42.6695 21.8714 42.5657Z" fill="#A6CBDE"/>
<path d="M0.384797 31.9874C0.275116 31.2569 0.173132 30.5265 0.0942383 29.8999C0.173132 30.5285 0.27704 31.2589 0.384797 31.9874Z" fill="#A6CBDE"/>
<path d="M49.133 27.086C52.1835 23.4339 54.836 18.8909 54.9713 13.9816C55.0833 9.86939 53.1475 6.21733 50.0352 3.67165C49.1001 2.87906 48.121 2.14156 47.1025 1.46279C46.1929 0.907106 45.2451 0.418258 44.2664 0L44.2278 0.0391643C49.3184 4.21603 49.1079 10.404 45.7733 16.353C47.8557 19.2866 49.025 22.7843 49.131 26.3967H49.1175C49.131 26.6317 49.133 26.8549 49.133 27.086Z" fill="#A6CBDE"/>
<path d="M3.9778 39.5813C4.66733 40.2395 5.43277 40.8109 6.25749 41.283C6.29227 38.9429 6.94526 36.4716 8.15465 33.9769C7.08703 33.6583 6.06289 33.2058 5.10606 32.6296C4.21736 34.9658 3.80586 37.3098 3.9778 39.5813Z" fill="#A6CBDE"/>
<path d="M0 26.8705C0.0134237 25.9404 0.0805419 25.0729 0.191767 23.6121C0.0613653 25.1023 0 25.9776 0 26.8705Z" fill="#A6CBDE"/>
<path d="M1.01815 27.7029C0.688743 29.0867 0.534238 30.5073 0.558351 31.9307C0.567278 33.3065 0.86219 34.665 1.42386 35.9176C1.14759 33.9476 1.35238 31.8308 1.98798 29.6513C1.5913 29.0421 1.26584 28.3883 1.01815 27.7029Z" fill="#A6CBDE"/>
<path d="M4.34692 41.8215C4.6901 43.1472 5.2406 44.4086 5.97748 45.5578C5.89054 45.4325 5.80167 45.2993 5.71087 45.1662C6.33686 46.1062 7.10109 46.9435 7.97704 47.6492C7.21633 46.4298 6.69606 45.0725 6.44501 43.6525C5.68262 43.1205 4.97918 42.5067 4.34692 41.8215Z" fill="#A6CBDE"/>
<path d="M58.6498 15.7872C57.65 13.4337 56.4203 11.1875 54.9791 9.08228C58.5513 14.6514 56.2774 21.654 52.9042 26.7316C51.5847 28.6937 50.0776 30.5191 48.4047 32.1814C47.1028 36.5871 44.2064 40.3316 40.296 42.6643C36.3855 44.9971 31.7498 45.746 27.3176 44.7609C21.9526 46.3999 16.6533 46.9463 12.1925 46.02C12.133 47.4479 12.3898 48.8711 12.944 50.1852C30.6773 55.4919 64.9131 35.2107 58.6498 15.7872Z" fill="#A6CBDE"/>
<path d="M3.4292 41.4124L3.54898 41.665C3.87548 42.2387 4.27152 42.8967 4.67916 43.5507C4.27346 42.8947 3.88127 42.2348 3.55284 41.661C3.51227 41.5808 3.4775 41.4966 3.4292 41.4124Z" fill="#A6CBDE"/>
<path d="M2.60827 39.65C2.45818 39.3093 2.31387 38.9744 2.17725 38.6709C2.31772 38.9685 2.45626 39.3093 2.60827 39.65Z" fill="#A6CBDE"/>
<path d="M60.7671 25.3549C60.6995 24.1799 60.4116 22.304 60.3517 22.0142C61.8857 37.8463 31.9522 59.1047 14.2847 52.3665C15.2719 53.5708 16.6262 54.6341 18.3842 55.4996L18.2046 55.4173C19.6786 56.1262 21.4058 56.4415 23.0151 56.6236C24.7445 56.8112 26.4882 56.8217 28.2197 56.6549C32.0836 56.3083 35.8934 55.2489 39.4771 53.747C46.7354 50.7176 53.7078 45.6537 57.7649 38.7079C58.8462 36.8847 59.6726 34.9182 60.2204 32.8646C60.856 30.4227 60.8212 27.8614 60.7671 25.3549Z" fill="#A6CBDE"/>
<path d="M15.9772 54.3384C15.4305 54.0309 14.8026 53.6471 13.7903 53.0264C14.735 53.6354 15.2933 53.9761 15.9772 54.3384Z" fill="#A6CBDE"/>
<path d="M11.4777 51.3288C10.9792 50.9156 10.4074 50.4045 9.48584 49.582C10.3436 50.3869 10.8285 50.8216 11.4777 51.3288Z" fill="#A6CBDE"/>
<path d="M19.2441 40.5996L19.4635 40.7954C19.3885 40.7308 19.3192 40.6662 19.2441 40.5996Z" fill="#005C8D"/>
<path d="M22.3314 42.8398C22.1851 42.7556 22.0408 42.6694 21.8965 42.5813C22.0389 42.6694 22.1851 42.7556 22.3314 42.8398Z" fill="#005C8D"/>
<path d="M18.0598 39.4326L18.1941 39.5775L18.0598 39.4326Z" fill="#005C8D"/>
<path d="M18.7515 40.1433C18.8284 40.2216 18.9093 40.296 18.9901 40.3705C18.9093 40.2921 18.8284 40.2177 18.7515 40.1433Z" fill="#005C8D"/>
<path d="M17.001 38.1655C17.0182 38.189 17.0355 38.2145 17.0547 38.236C17.0259 38.2145 17.001 38.1851 17.001 38.1655Z" fill="#005C8D"/>
<path d="M16.2554 37.1394L16.2835 37.1805L16.2554 37.1394Z" fill="#005C8D"/>
<path d="M21.4233 42.2817C21.5715 42.3777 21.7197 42.4776 21.8698 42.5657C21.7197 42.4736 21.5715 42.3777 21.4233 42.2817Z" fill="#005C8D"/>
<path d="M20.9905 41.988L21.3061 42.2034L20.9905 41.988Z" fill="#005C8D"/>
<path d="M20.5249 41.6511C20.6307 41.7314 20.7366 41.8097 20.8443 41.8861C20.7366 41.8097 20.6307 41.7314 20.5249 41.6511Z" fill="#005C8D"/>
<path d="M20.0361 41.2751C20.1631 41.377 20.2921 41.471 20.421 41.5748C20.2844 41.4768 20.1631 41.377 20.0361 41.2751Z" fill="#005C8D"/>
<path d="M19.6421 40.9482L19.873 41.1441L19.6421 40.9482Z" fill="#005C8D"/>
<path d="M17.2639 38.5122L17.356 38.6258L17.2639 38.5122Z" fill="#005C8D"/>
<path d="M17.5806 38.8901L17.6266 38.9417L17.5806 38.8901Z" fill="#005C8D"/>
<path d="M18.5552 39.9474L18.396 39.7869L18.5552 39.9474Z" fill="#005C8D"/>
<path d="M31.9177 45.1739C31.6685 45.1837 31.4192 45.1896 31.1681 45.1896C29.8688 45.1902 28.5734 45.0484 27.3042 44.7666C28.5734 45.0484 29.8688 45.1902 31.1681 45.1896C31.4173 45.1915 31.6685 45.1837 31.9177 45.1739Z" fill="#005C8D"/>
<path d="M36.9479 44.2263C36.7555 44.2929 36.563 44.3582 36.3706 44.4221C36.563 44.3582 36.7555 44.2929 36.9479 44.2263Z" fill="#005C8D"/>
<path d="M37.5454 44.0068C37.3895 44.0675 37.2298 44.1263 37.072 44.1831C37.2298 44.1263 37.3895 44.0597 37.5454 44.0068Z" fill="#005C8D"/>
<path d="M38.8304 43.4507C38.6996 43.5133 38.5706 43.5741 38.4456 43.6328C38.5764 43.5741 38.7053 43.5133 38.8304 43.4507Z" fill="#005C8D"/>
<path d="M34.8598 44.804C34.6377 44.851 34.4136 44.894 34.1895 44.9332C34.4136 44.894 34.6377 44.8431 34.8598 44.804Z" fill="#005C8D"/>
<path d="M34.1143 44.9448C33.6467 45.0232 33.1721 45.0832 32.6904 45.125C33.1721 45.0845 33.6467 45.0245 34.1143 44.9448Z" fill="#005C8D"/>
<path d="M36.2213 44.4514C36.0192 44.5121 35.8153 44.5689 35.6094 44.6237C35.8153 44.5748 36.0192 44.518 36.2213 44.4514Z" fill="#005C8D"/>
<path d="M35.5476 44.6472C35.3415 44.6994 35.1329 44.7484 34.9216 44.7941C35.1303 44.7484 35.3389 44.6994 35.5476 44.6472Z" fill="#005C8D"/>
<path d="M38.2292 43.7268C38.0598 43.8012 37.8905 43.8717 37.7192 43.9403C37.8905 43.8639 38.0579 43.8012 38.2292 43.7268Z" fill="#005C8D"/>
<path d="M32.6731 45.127C32.4277 45.1465 32.1823 45.1622 31.9351 45.174C32.1823 45.1622 32.4277 45.1465 32.6731 45.127Z" fill="#005C8D"/>
<path d="M42.2715 41.2927L42.2476 41.313L42.2715 41.2927Z" fill="#005C8D"/>
<path d="M40.1189 42.7712C39.9906 42.8496 39.856 42.9259 39.7148 43.0004C39.8495 42.9233 39.9842 42.847 40.1189 42.7712Z" fill="#005C8D"/>
<path d="M40.5983 42.4795C40.5369 42.5187 40.4755 42.5578 40.4065 42.595L40.5983 42.4795Z" fill="#005C8D"/>
<path d="M39.4528 43.1394L39.1411 43.3L39.4528 43.1394Z" fill="#005C8D"/>
<path d="M41.2422 42.0566L41.1252 42.1369L41.2422 42.0566Z" fill="#005C8D"/>
<path d="M18.5582 26.3985H22.9205C23.5246 26.4008 24.1228 26.2782 24.6786 26.0382C27.7697 24.7008 29.8832 22.1825 30.8086 18.7537C30.8298 18.6739 30.8766 18.6036 30.9417 18.5539C31.0068 18.5042 31.0865 18.478 31.168 18.4795C31.2487 18.4781 31.3276 18.5041 31.392 18.5535C31.4565 18.6028 31.5027 18.6726 31.5235 18.7517C32.3677 21.8849 34.2282 24.2798 36.9039 25.6799L37.0971 25.7856L36.8807 25.86C36.5412 25.9809 36.2107 26.1262 35.8916 26.2948L35.8433 26.3202L35.7988 26.2928C33.7923 25.0999 32.2036 23.3014 31.2549 21.1486L31.1661 20.9528L31.0791 21.1486C29.9556 23.706 27.9378 25.7513 25.4147 26.8901C25.3471 26.9194 24.9471 27.0761 24.468 27.2621C23.9746 27.4534 23.4507 27.551 22.9225 27.55H19.5609C20.0243 28.3351 20.2188 29.2535 20.114 30.1622C20.0091 31.071 19.6109 31.9191 18.9813 32.5747C18.5331 33.0473 18.1049 33.5245 17.6966 34.0062C17.7835 34.1746 17.8743 34.343 17.9651 34.5075C19.5834 37.4218 22.0965 39.7207 25.1222 41.0544C28.1479 42.3881 31.5205 42.6837 34.7271 41.8961C37.9337 41.1085 40.7987 39.281 42.8865 36.6914C44.9743 34.1018 46.1705 30.8919 46.2931 27.55H38.7953C38.6597 27.5496 38.5251 27.5728 38.3973 27.6185C34.9024 28.8639 32.5242 31.484 31.5235 35.1948C31.5028 35.2747 31.4564 35.3452 31.3916 35.3952C31.3269 35.4452 31.2475 35.4719 31.1661 35.4709C31.085 35.4726 31.0057 35.4464 30.9412 35.3966C30.8766 35.3469 30.8306 35.2764 30.8106 35.1968C30.4289 33.7482 29.7728 32.3887 28.8786 31.1942C27.9614 29.9809 26.7911 28.9879 25.4514 28.2863L25.2582 28.1844L25.4514 28.1081C25.7819 27.9767 26.1044 27.8257 26.4173 27.6557L26.4637 27.6303L26.5101 27.6577C27.8197 28.4352 28.9579 29.477 29.8543 30.7184C30.3262 31.3718 30.7308 32.0726 31.0617 32.8097L31.1487 33.0055L31.2375 32.8097C32.3603 30.2524 34.3775 28.2071 36.9 27.0682L36.9657 27.0389L37.016 27.0115C37.3193 26.8705 38.3683 26.4083 39.1082 26.4083H46.2835C46.1886 23.8117 45.4449 21.2821 44.1221 19.0564C42.7993 16.8307 40.9407 14.9818 38.7204 13.683C36.5001 12.3842 33.9909 11.6779 31.4278 11.6305C28.8648 11.583 26.3318 12.1959 24.0662 13.4117C23.904 13.5645 23.7236 13.6961 23.5291 13.8033C23.2007 13.9815 22.8742 14.1656 22.5496 14.3516C20.7289 15.6265 19.2057 17.2901 18.0873 19.2256C16.9688 21.161 16.2822 23.3213 16.0757 25.5546C16.9722 25.5517 17.8447 25.8483 18.5582 26.3985Z" fill="#005C8D"/>
<path d="M14.5397 20.0306C13.7173 22.0539 13.2631 24.2114 13.199 26.3987H13.5854C14.0349 26.0479 14.5523 25.7971 15.1039 25.6624C15.3531 22.5021 16.5089 19.4846 18.4287 16.9817C17.0648 17.9471 15.7627 18.9673 14.5397 20.0306Z" fill="#005C8D"/>
<path d="M24.8911 11.9294C27.2968 10.9012 29.9129 10.4806 32.5144 10.7037C35.116 10.9268 37.6252 11.787 39.8263 13.2103C42.0273 14.6336 43.8544 16.5775 45.1505 18.8748C46.4466 21.1721 47.1728 23.754 47.2668 26.3987H49.133C49.0417 23.4788 48.2594 20.624 46.8521 18.0747C45.4447 15.5253 43.4535 13.3562 41.0461 11.7499C38.6388 10.1437 35.8859 9.14739 33.0192 8.845C30.1526 8.54261 27.2563 8.94296 24.5742 10.0123C24.6013 10.0633 24.6322 10.1103 24.6573 10.1631C24.9271 10.7091 25.0094 11.3307 24.8911 11.9294Z" fill="#005C8D"/>
<path d="M47.2669 27.5403C47.1178 31.7197 45.3943 35.6823 42.4508 38.613C39.5073 41.5437 35.5677 43.2196 31.4424 43.2961C31.3496 43.2961 31.2589 43.2961 31.1661 43.2961C29.1619 43.2989 27.1749 42.9203 25.3085 42.1799C21.7872 40.7748 18.862 38.1651 17.0398 34.8033C16.6057 35.3503 16.1975 35.8992 15.8149 36.4501C17.4263 39.1239 19.6881 41.3335 22.3835 42.8672C25.0775 44.4013 28.1162 45.2052 31.2062 45.2014C34.2962 45.1975 37.333 44.3859 40.0232 42.845C42.7134 41.3042 44.9661 39.0861 46.5636 36.4051C48.1611 33.7242 49.0494 30.6709 49.1428 27.5403H47.2765H47.2669Z" fill="#005C8D"/>
<path d="M15.6776 9.16651C16.1903 8.81669 16.5587 8.2884 16.7128 7.68172C16.867 7.07505 16.7963 6.43213 16.5141 5.87476C16.2272 5.32383 15.7528 4.89714 15.179 4.67386C14.6052 4.45059 13.971 4.4459 13.394 4.66066C12.6541 4.9446 12.0088 5.56536 11.3983 6.05099C10.699 6.59929 10.0144 7.16783 9.34469 7.7566C7.19523 9.6127 5.29364 11.7449 3.68797 14.0992C1.67521 17.0695 0.458872 20.5191 0.158321 24.1096C0.0280562 25.5416 -0.01646 26.9803 0.0250178 28.4177C0.121746 30.313 0.363318 32.1979 0.747563 34.0554C-0.510129 26.1951 4.42984 18.9204 9.8412 13.8466C11.671 12.1439 13.6217 10.5796 15.6776 9.16651Z" fill="#3E94C2"/>
<path d="M24.6594 10.1612C24.3388 9.5271 23.7902 9.04191 23.127 8.80579C22.4637 8.56967 21.7363 8.60064 21.0949 8.89232C19.5127 9.62665 17.9922 10.6684 16.551 11.6573C13.7829 13.5395 11.2294 15.7271 8.93725 18.1801C4.92268 22.5078 1.14574 28.3295 1.30803 34.5096C1.36405 36.603 2.04216 38.4104 2.89801 40.2864C3.77014 42.1316 4.80061 43.8956 5.97752 45.5579C2.6797 40.3784 3.87171 34.1454 6.80246 29.1089C9.73321 24.0724 14.1709 19.9053 18.9292 16.6312C20.3164 15.6769 21.7453 14.7911 23.2162 13.9739C24.5917 13.2082 25.4302 11.7219 24.6594 10.1612Z" fill="#3E94C2"/>
<path d="M19.2053 27.0234C18.7363 26.4603 18.1284 26.0332 17.4435 25.7859C16.7586 25.5386 16.0213 25.4797 15.3066 25.6155C13.7495 25.9151 12.7951 27.1429 11.8291 28.3139C9.89721 30.6892 8.21449 33.3484 7.19249 36.2681C6.22652 39.0625 5.8865 42.1428 6.76747 45.0037C7.21222 46.4273 7.92615 47.7496 8.86942 48.8966C9.61514 49.8131 10.5715 50.5768 11.4775 51.3287C13.5563 53.0578 15.921 54.4051 18.3765 55.5174C16.4986 54.5833 14.7657 53.2654 13.6181 51.4678C12.3855 49.5389 11.9953 47.2224 12.2658 44.9606C12.8086 40.3608 15.6099 36.227 18.6605 32.9176C19.4333 32.0815 20.0128 31.2257 20.1287 30.0528C20.2278 28.959 19.8958 27.8699 19.2053 27.0234Z" fill="#3E94C2"/>
</g>
<defs>
<clipPath id="clip0_213_2443">
<rect width="200" height="56.7901" fill="white"/>
</clipPath>
</defs>
</svg>
