<svg width="168" height="80" viewBox="0 0 168 80" fill="none" xmlns="http://www.w3.org/2000/svg">
<path d="M37.6258 72.0068C37.5807 71.3607 37.4756 70.7146 37.3403 70.0985C36.4688 65.9813 33.9894 61.9843 30.0976 60.0459C28.009 59.0091 25.4094 58.8288 23.3959 60.0008C22.4192 60.5718 21.6378 61.4283 20.7663 62.1496C19.8947 62.8859 18.858 63.517 17.731 63.532C17.0248 63.532 16.3486 63.3066 15.6875 63.0812C13.704 62.39 10.9992 61.8791 8.95561 61.4884C7.00219 61.0977 4.97362 60.8723 3.0202 61.3832C2.32899 61.5635 1.62283 61.8791 1.21712 62.4651C0.91659 62.9009 0.796354 63.4569 0.721223 63.9828C0.57096 65.1248 0.601016 66.402 1.38238 67.2435C1.89328 67.7995 2.6446 68.0549 3.36587 68.2653C6.38615 69.1969 9.6769 70.2788 12.8324 70.5793C15.7475 70.8498 17.8362 71.2255 20.4207 72.8333C24.1021 75.1173 27.1224 77.1608 31.6754 77.2811C33.5687 77.3412 35.6875 76.9655 36.8144 75.4478C37.5357 74.4711 37.701 73.239 37.6258 72.0068Z" fill="#F69834"/>
<path d="M21.6221 37.9574C21.6221 37.8372 21.577 37.7169 21.5319 37.5967C20.5703 35.478 18.5868 33.6598 17.5049 31.5111C16.4831 29.4976 15.7318 27.3488 14.7401 25.3202C13.1924 22.1497 9.81141 18.1377 7.72276 15.3127C7.33207 14.7868 6.94138 14.2609 6.40043 13.9002C4.62733 12.7282 2.02782 14.1707 1.36666 16.1842C0.705501 18.2128 1.44176 20.4217 2.46355 22.3C4.13147 25.3653 7.828 29.1069 10.4125 31.4359C11.6597 32.5629 12.982 33.6448 13.8686 35.0723C14.9505 36.7853 15.5214 39.0543 16.9339 40.5419C18.6769 42.3901 18.4816 39.2496 20.3299 38.9641C20.6304 38.9191 20.961 38.9641 21.2315 38.8289C21.532 38.6636 21.6521 38.318 21.6221 37.9724" fill="#47C5F2"/>
<path d="M31.2695 33.5688C31.3747 33.689 31.4948 33.8093 31.615 33.9295C32.6068 34.816 34.7856 34.0497 35.5069 33.0429C36.0779 32.2315 35.9877 31.1496 35.8826 30.1579C35.4618 26.4313 35.041 22.6898 34.6203 18.9633C33.9591 13.1331 34.47 7.07746 31.1191 1.90841C29.8119 -0.120138 26.8517 0.0301247 25.1988 1.65297C23.5759 3.24575 23.8014 5.87536 24.192 8.11428C25.4543 15.402 27.2725 22.4644 29.3912 29.5418C29.7969 30.8791 30.3078 32.4719 31.2695 33.5688Z" fill="#F08296"/>
<path d="M44.2376 32.8627C44.8988 33.6591 45.9657 34.3052 46.8522 34.3203C48.46 34.3503 49.1212 32.5772 49.4067 31.285C50.5938 25.8905 51.5855 20.436 52.3668 14.9664C52.7275 12.4269 53.043 9.85744 52.8477 7.30297C52.7726 6.32626 52.6222 5.30447 52.0513 4.49305C51.345 3.47126 50.158 3.02048 48.9709 2.84016C47.9341 2.6899 46.8371 2.58471 45.8755 3.08058C44.2526 3.92205 44.6733 7.27292 44.8086 8.70042C45.0189 10.9994 44.8537 13.2684 44.9589 15.5674C45.1692 19.7598 44.8086 23.9972 43.907 28.0994C43.6365 29.3466 43.306 30.6388 43.6516 31.871C43.7418 32.2166 43.9521 32.5622 44.2226 32.8928" fill="#D3DD31"/>
<path d="M56.1537 36.1829V36.228C55.9884 36.6337 55.8381 37.0995 56.0485 37.4752C56.2138 37.7607 56.5443 37.8959 56.8599 38.0011C57.6713 38.2866 58.6029 38.557 59.3843 38.1814C60.7817 37.5052 61.3978 34.7404 61.8185 33.403C62.4947 31.2543 63.1109 29.0754 63.6668 26.8966C64.4031 23.9665 65.4699 21.3519 65.7855 18.3467C65.8456 17.7606 65.8907 17.1746 65.7855 16.6036C65.4249 14.7854 62.0289 12.246 60.4211 14.2144C60.0454 14.6802 59.9704 15.3114 59.9253 15.9124C59.3543 22.7644 58.5278 29.7216 56.1537 36.1979" fill="#B73E93"/>
<path d="M56.1227 39.88C55.2812 39.6246 54.4248 39.3992 53.5382 39.3391C52.832 39.294 52.1257 39.3391 51.4495 39.1137C51.0138 38.9634 50.6231 38.708 50.2174 38.4976C48.5645 37.6111 46.6861 37.3706 44.913 36.7996C44.1767 36.5592 43.2151 36.2587 42.599 35.7929C41.8928 35.2519 41.5322 34.2602 40.9311 33.6141C40.8259 33.5089 40.7208 33.4037 40.5705 33.3887C40.3601 33.3887 40.2099 33.599 40.1047 33.7794C39.2632 35.1918 37.8657 36.2887 36.2879 36.7696C35.8672 36.9048 35.4165 36.98 35.0258 37.1753C34.1693 37.596 33.9138 38.167 32.8469 38.0468C32.3511 37.9867 31.8552 37.6712 31.7501 37.1753C31.69 36.8597 31.7951 36.5442 31.72 36.2286C31.6298 35.8229 31.2692 35.5224 30.8635 35.4172C30.4578 35.312 30.037 35.3421 29.6313 35.4172C28.4743 35.5975 27.3323 35.9582 26.2805 36.4691C26.0851 36.5592 25.8897 36.6644 25.7545 36.8447C25.469 37.2204 25.5892 37.7463 25.7095 38.1971C25.8146 38.6779 25.9048 39.1738 25.7996 39.6396C25.6944 40.1205 25.3638 40.5712 24.898 40.6915C24.5223 40.7966 24.1317 40.6915 23.7561 40.6163C21.427 40.2407 18.8575 41.8184 19.729 44.418C20.0145 45.2745 20.1798 46.1761 20.1948 47.0776C20.1948 47.4533 20.1948 47.859 19.9844 48.1896C19.5938 48.8507 18.6921 48.986 18.1361 49.5119C17.6403 49.9777 17.4751 50.729 17.5652 51.4052C17.6554 52.0814 17.9859 52.6975 18.3465 53.2835C18.7222 53.8846 19.158 54.4706 19.714 54.9063C21.0814 55.9582 23.17 55.9281 24.5074 54.8312C24.8981 54.5157 25.2887 54.0949 25.7996 54.14C26.1903 54.1701 26.4908 54.4706 26.7463 54.7711C27.2872 55.3722 27.723 55.9882 28.4593 56.2737C29.1956 56.5442 30.0821 56.8297 30.8635 56.9199C31.4495 56.98 32.0506 56.9048 32.5915 57.1453C33.5382 57.566 33.8537 58.8132 34.6952 59.4142C35.0558 59.6697 35.4766 59.7899 35.8522 60.0303C37.1144 60.8117 37.3699 62.5247 37.445 64.0123C37.475 64.7335 37.5652 65.56 38.1512 65.9958C38.6471 66.3564 39.2932 66.2963 39.9093 66.3564C41.412 66.5066 42.7793 67.5284 43.3503 68.9259C43.9213 70.3233 43.6358 72.0213 42.6591 73.1633C42.3586 73.5239 41.9829 73.8395 41.7425 74.2452C41.5021 74.6509 41.4269 75.2069 41.7124 75.5825C42.073 76.0484 42.7793 75.9883 43.3503 76.1385C43.9664 76.3038 44.5073 76.7696 44.7478 77.3707C44.9281 77.8215 44.9882 78.3925 45.4089 78.6329C46.2504 78.6028 46.8214 77.7914 47.2422 77.0551C47.9634 75.8079 49.0753 74.4255 49.5261 73.0581C49.8567 72.0213 49.8867 70.8342 50.1873 69.7674C50.3676 69.1513 50.5479 68.5352 50.8635 67.9943C51.4645 66.9725 52.5013 66.2963 53.5682 65.7854C54.6351 65.2745 55.7771 64.8988 56.7838 64.2978C57.2046 64.0423 57.6102 63.7568 57.8657 63.3511C58.1061 62.9905 58.2263 62.5547 58.3465 62.134C58.5569 61.3677 58.7523 60.6163 58.9627 59.85C59.173 59.0686 59.3834 58.2873 59.4735 57.4758C59.6238 56.1235 59.4135 54.726 59.729 53.4037C60.1047 51.7809 61.2166 50.4586 62.0881 49.0461C62.8694 47.7688 63.4555 46.2812 63.1399 44.7636C62.8244 43.261 62.3135 41.6531 60.7958 41.1422C59.6538 40.7666 58.4667 40.6314 57.3097 40.2857C56.919 40.1655 56.5134 40.0453 56.1227 39.9251" fill="#379248"/>
<path d="M86.1763 31.3006C85.6053 30.8048 84.8991 30.384 84.0426 30.0535C83.1861 29.7079 82.1943 29.3923 81.0974 29.1218C80.0907 28.8814 79.2492 28.656 78.6031 28.4306C77.9419 28.2052 77.431 27.9798 77.0553 27.7244C76.6797 27.4689 76.4242 27.1985 76.289 26.8829C76.1538 26.5674 76.0787 26.2067 76.0787 25.816V25.7559C76.0787 25.0497 76.3792 24.4637 76.9802 23.9678C77.5813 23.487 78.4228 23.2465 79.5197 23.2465C80.4814 23.2465 81.443 23.4269 82.3897 23.8025C83.3363 24.1782 84.2981 24.7191 85.2597 25.4254L87.2582 22.6154C86.1763 21.7439 85.0043 21.0978 83.7722 20.632C82.54 20.1812 81.1425 19.9558 79.5948 19.9558C78.543 19.9558 77.5813 20.106 76.6947 20.4066C75.8082 20.7071 75.0568 21.1278 74.4257 21.6538C73.7946 22.1947 73.2988 22.8258 72.9382 23.5922C72.5775 24.3435 72.3972 25.1849 72.3972 26.0865V26.1466C72.3972 27.1083 72.5475 27.9348 72.863 28.626C73.1786 29.3172 73.6293 29.8882 74.2304 30.369C74.8314 30.8348 75.5678 31.2405 76.4393 31.5711C77.3108 31.9017 78.3176 32.2022 79.4446 32.4577C80.4363 32.6831 81.2327 32.8934 81.8487 33.1188C82.4648 33.3442 82.9457 33.5846 83.3063 33.8401C83.6519 34.0955 83.9074 34.381 84.0276 34.6665C84.1628 34.952 84.2229 35.2976 84.2229 35.6733V35.7334C84.2229 36.5448 83.8924 37.1759 83.2162 37.6718C82.54 38.1526 81.6234 38.3931 80.4814 38.3931C79.1591 38.3931 77.957 38.1526 76.9202 37.6868C75.8683 37.221 74.8315 36.5298 73.8097 35.6432L71.5708 38.3029C72.833 39.4449 74.2154 40.3014 75.703 40.8574C77.1906 41.4134 78.7534 41.6838 80.3912 41.6838C81.5032 41.6838 82.5099 41.5486 83.4415 41.2631C84.3732 40.9776 85.1546 40.5719 85.8157 40.0309C86.4769 39.49 86.9877 38.8288 87.3634 38.0324C87.739 37.2511 87.9193 36.3645 87.9193 35.3728V35.3127C87.9193 34.4411 87.7691 33.6898 87.4836 33.0287C87.1981 32.3675 86.7624 31.7965 86.1914 31.3006H86.1763ZM91.6158 18.4832H94.4558L98.1373 15.0121L94.8165 13.5396L91.6158 18.4982V18.4832ZM91.2853 41.3683H94.9667V20.2263H91.2853V41.3683ZM99.4446 41.3683H103.126V32.7582H113.795V29.4073H103.126V23.5771H115.147V20.2263H99.4446V41.3683ZM144.103 41.3683H147.784V20.2263H144.103V41.3683ZM166.762 33.0136C166.477 32.3525 166.041 31.7815 165.47 31.2856C164.899 30.7898 164.193 30.369 163.336 30.0384C162.48 29.6928 161.488 29.3773 160.391 29.1068C159.385 28.8664 158.543 28.641 157.897 28.4156C157.236 28.1902 156.725 27.9648 156.349 27.7094C155.974 27.4539 155.718 27.1834 155.583 26.8679C155.448 26.5523 155.372 26.1917 155.372 25.801V25.7409C155.372 25.0347 155.673 24.4486 156.274 23.9528C156.875 23.4719 157.717 23.2315 158.814 23.2315C159.775 23.2315 160.737 23.4118 161.684 23.7875C162.63 24.1631 163.592 24.7041 164.554 25.4103L166.552 22.6004C165.47 21.7289 164.298 21.0828 163.066 20.6169C161.834 20.1662 160.436 19.9408 158.889 19.9408C157.837 19.9408 156.875 20.091 155.989 20.3915C155.102 20.6921 154.351 21.1128 153.72 21.6387C153.089 22.1797 152.593 22.8108 152.232 23.5771C151.871 24.3284 151.691 25.1699 151.691 26.0715V26.1316C151.691 27.0933 151.841 27.9197 152.157 28.6109C152.472 29.3021 152.923 29.8731 153.524 30.354C154.125 30.8198 154.862 31.2255 155.733 31.5561C156.605 31.8867 157.611 32.1872 158.738 32.4426C159.73 32.668 160.527 32.8784 161.143 33.1038C161.759 33.3292 162.239 33.5696 162.6 33.8251C162.961 34.0805 163.201 34.366 163.321 34.6515C163.457 34.937 163.517 35.2826 163.517 35.6583V35.7184C163.517 36.5298 163.186 37.1609 162.51 37.6568C161.834 38.1376 160.932 38.378 159.775 38.378C158.453 38.378 157.251 38.1376 156.214 37.6718C155.162 37.206 154.125 36.5148 153.103 35.6282L150.865 38.2879C152.127 39.4299 153.509 40.2864 154.997 40.8424C156.484 41.3983 158.047 41.6688 159.67 41.6688C160.782 41.6688 161.789 41.5336 162.72 41.2481C163.637 40.9626 164.433 40.5569 165.095 40.0159C165.756 39.475 166.267 38.8138 166.642 38.0174C167.018 37.236 167.198 36.3495 167.198 35.3578V35.2976C167.198 34.4261 167.048 33.6748 166.762 33.0136ZM130.083 20.2263H126.402V38.0475L132.487 39.8656C132.367 40.3916 132.262 40.9025 132.142 41.3683H141.203V38.0174H130.083V20.2263ZM118.243 39.0692C118.618 39.1895 118.994 39.3097 119.354 39.4449C120.121 39.7304 120.842 39.9859 121.503 40.2112C121.653 40.2563 121.789 40.3014 121.924 40.3465V20.2263H118.243V39.0692Z" fill="#77797B"/>
<path d="M166.282 55.3722C165.365 53.2385 164.088 51.3752 162.465 49.7824C160.842 48.1897 158.919 46.9425 156.68 46.0108C154.441 45.0942 152.022 44.6284 149.392 44.6284C146.762 44.6284 144.343 45.0942 142.104 46.0108C139.865 46.9274 137.927 48.1897 136.274 49.7975C134.621 51.4053 133.329 53.2836 132.412 55.4323C131.601 57.3257 131.15 59.3241 131.045 61.4278L126.402 50.4586C125.741 50.699 125.004 50.8193 124.193 50.8193C123.321 50.8193 122.465 50.699 121.623 50.4737C120.782 50.2483 119.97 49.9928 119.189 49.7073C118.423 49.4218 117.701 49.1664 117.04 48.941C116.379 48.7156 115.823 48.5954 115.372 48.5954C114.576 48.5954 113.99 48.8057 113.614 49.2415C113.239 49.6773 112.818 50.3084 112.442 51.1799L104.058 71.0146V45.3196H94.7864V63.2911L80.7669 45.3196H71.9614V79.3242H81.2327V60.6765L95.7932 79.3242H110.474L112.908 73.2535H126.026L128.505 79.3242H138.603L137.025 75.5826C138.468 76.8298 140.121 77.8366 141.999 78.6179C144.238 79.5345 146.657 80.0003 149.287 80.0003C151.916 80.0003 154.336 79.5345 156.575 78.6179C158.813 77.7013 160.752 76.4391 162.405 74.8313C164.058 73.2235 165.35 71.3452 166.267 69.1964C167.183 67.0477 167.649 64.7486 167.649 62.3294V62.2393C167.649 59.805 167.183 57.521 166.267 55.3873L166.282 55.3722ZM115.688 65.9658L119.52 56.3039L123.306 65.9658H115.673H115.688ZM158.047 62.4196C158.047 63.6517 157.837 64.8238 157.416 65.9207C156.995 67.0176 156.409 67.9793 155.658 68.8057C154.907 69.6322 154.005 70.2934 152.923 70.7742C151.856 71.255 150.669 71.4955 149.362 71.4955C148.055 71.4955 146.883 71.24 145.801 70.7441C144.734 70.2483 143.817 69.5721 143.051 68.7306C142.285 67.8891 141.699 66.9124 141.278 65.8155C140.857 64.7186 140.647 63.5465 140.647 62.3144V62.2242C140.647 60.9921 140.857 59.835 141.263 58.7231C141.668 57.6262 142.255 56.6645 143.021 55.838C143.787 55.0116 144.689 54.3504 145.756 53.8696C146.808 53.3888 147.995 53.1333 149.287 53.1333C150.579 53.1333 151.766 53.3888 152.848 53.8846C153.915 54.3805 154.846 55.0567 155.628 55.8981C156.409 56.7396 157.01 57.7163 157.431 58.8133C157.852 59.9102 158.062 61.0822 158.062 62.3144V62.4045L158.047 62.4196Z" fill="#E91D39"/>
<path d="M113.629 47.6785C114.005 47.2428 114.591 47.0324 115.387 47.0324C115.838 47.0324 116.394 47.1526 117.055 47.378C117.716 47.6034 118.437 47.8588 119.204 48.1443C119.97 48.4298 120.781 48.6853 121.638 48.9107C122.479 49.1361 123.351 49.2563 124.207 49.2563C126.161 49.2563 127.678 48.5651 128.73 47.1676C129.782 45.7702 130.609 43.6665 131.225 40.8265L126.071 39.4141C125.695 40.2856 125.319 40.9317 124.944 41.3675C124.568 41.8032 123.982 42.0136 123.186 42.0136C122.735 42.0136 122.179 41.8934 121.518 41.668C120.857 41.4426 120.135 41.1872 119.369 40.9017C118.603 40.6162 117.776 40.3607 116.905 40.1353C116.033 39.9099 115.192 39.7897 114.365 39.7897C112.412 39.7897 110.894 40.4809 109.842 41.8784C108.79 43.2758 107.949 45.3795 107.348 48.2195L112.502 49.6319C112.878 48.7604 113.253 48.1143 113.629 47.6785Z" fill="#E91D39"/>
<path d="M80.0908 5.31997H78.8586V4.83913H80.1659L80.5867 2.43492H79.2644V1.95408H80.6618L80.9773 0.0908203H81.4582L81.1427 1.95408H83.2463L83.5619 0.0908203H84.0427L83.7272 1.95408H84.9443V2.43492H83.637L83.2163 4.83913H84.5236V5.31997H83.1261L82.7955 7.22832H82.3147L82.6453 5.31997H80.5416L80.211 7.22832H79.7302L80.0607 5.31997H80.0908ZM82.7654 4.83913L83.1862 2.43492H81.0825L80.6618 4.83913H82.7654Z" fill="#F69834"/>
<path d="M114.469 0.586311H111.99V0.105469H117.474V0.586311H114.995V7.22794H114.469V0.586311Z" fill="#F69834"/>
<path d="M118.167 2.04373H118.662V3.51631C118.768 3.29091 118.888 3.06552 119.053 2.87018C119.203 2.67484 119.384 2.50955 119.579 2.37431C119.774 2.23907 119.985 2.13389 120.225 2.05876C120.466 1.98363 120.706 1.95357 120.961 1.9686V2.52457H120.916C120.616 2.52457 120.33 2.58468 120.06 2.68986C119.789 2.79505 119.549 2.97536 119.339 3.18573C119.128 3.41113 118.963 3.6816 118.843 3.99715C118.722 4.3127 118.662 4.68836 118.662 5.1091V7.22781H118.167V2.04373Z" fill="#F69834"/>
<path d="M123.802 7.34828C123.562 7.34828 123.321 7.31823 123.081 7.24309C122.841 7.18299 122.63 7.07781 122.435 6.94257C122.24 6.80733 122.089 6.64204 121.969 6.43167C121.849 6.22131 121.789 5.99591 121.789 5.72544C121.789 5.43994 121.849 5.19952 121.954 4.98915C122.059 4.77878 122.225 4.59846 122.42 4.46323C122.615 4.32799 122.856 4.20778 123.126 4.13265C123.412 4.05752 123.712 4.02746 124.058 4.02746C124.418 4.02746 124.734 4.04249 125.004 4.08757C125.275 4.13265 125.53 4.17773 125.771 4.25286V4.02746C125.771 3.50154 125.62 3.11086 125.32 2.84039C125.019 2.58494 124.599 2.4497 124.058 2.4497C123.742 2.4497 123.442 2.49478 123.186 2.56991C122.916 2.64504 122.675 2.75023 122.435 2.87044L122.255 2.43468C122.54 2.29944 122.826 2.17923 123.111 2.1041C123.397 2.01394 123.727 1.98389 124.088 1.98389C124.794 1.98389 125.35 2.17923 125.726 2.55489C126.071 2.90049 126.252 3.39636 126.252 4.01244V7.24309H125.771V6.3866C125.681 6.50681 125.575 6.62702 125.455 6.74723C125.335 6.86744 125.185 6.97262 125.019 7.06278C124.854 7.15294 124.674 7.22807 124.463 7.28817C124.253 7.34828 124.028 7.37833 123.787 7.37833L123.802 7.34828ZM123.817 6.89749C124.088 6.89749 124.328 6.85241 124.569 6.77728C124.809 6.70215 125.019 6.59696 125.2 6.4467C125.38 6.29644 125.515 6.14617 125.621 5.95083C125.726 5.75549 125.771 5.54512 125.771 5.3047V4.71867C125.56 4.65857 125.305 4.61349 125.004 4.56841C124.719 4.52333 124.388 4.49328 124.013 4.49328C123.457 4.49328 123.036 4.59846 122.751 4.82386C122.45 5.04925 122.315 5.33475 122.315 5.69538C122.315 5.90575 122.36 6.07104 122.435 6.22131C122.51 6.37157 122.63 6.49178 122.765 6.59696C122.901 6.70215 123.066 6.77728 123.246 6.82236C123.427 6.88246 123.622 6.89749 123.817 6.89749Z" fill="#F69834"/>
<path d="M129.798 7.31837C129.588 7.31837 129.408 7.28832 129.227 7.24324C129.047 7.18314 128.897 7.10801 128.761 6.98779C128.626 6.86758 128.521 6.71732 128.446 6.53701C128.371 6.35669 128.341 6.14632 128.341 5.9059V2.49493H127.589V2.04414H128.341V0.376221H128.837V2.04414H130.655V2.49493H128.837V5.83077C128.837 6.20643 128.927 6.46187 129.122 6.61214C129.317 6.7624 129.558 6.83753 129.873 6.83753C130.009 6.83753 130.129 6.83753 130.234 6.79245C130.354 6.7624 130.474 6.71732 130.625 6.65722V7.12303C130.489 7.18314 130.354 7.22822 130.219 7.25827C130.084 7.28832 129.933 7.30335 129.783 7.30335" fill="#F69834"/>
<path d="M134.321 7.34846C133.975 7.34846 133.659 7.28835 133.344 7.15312C133.028 7.01788 132.758 6.83756 132.532 6.59714C132.292 6.35672 132.112 6.07122 131.976 5.74064C131.841 5.41006 131.766 5.03441 131.766 4.6287C131.766 4.23801 131.826 3.87738 131.961 3.56183C132.097 3.24628 132.262 2.94575 132.487 2.70533C132.713 2.46491 132.968 2.26957 133.269 2.1193C133.569 1.98407 133.885 1.90894 134.245 1.90894C134.606 1.90894 134.937 1.98407 135.237 2.1193C135.523 2.25454 135.778 2.44988 135.989 2.6903C136.199 2.93072 136.349 3.21622 136.469 3.5468C136.574 3.87738 136.635 4.23801 136.635 4.61367V4.71886C136.635 4.71886 136.635 4.77896 136.635 4.80901H132.337C132.352 5.13959 132.427 5.42509 132.547 5.66551C132.668 5.92096 132.818 6.13133 133.013 6.29662C133.194 6.47693 133.404 6.61217 133.644 6.70233C133.885 6.79249 134.125 6.83756 134.381 6.83756C134.786 6.83756 135.132 6.76243 135.417 6.59714C135.703 6.44688 135.943 6.25154 136.169 6.01112L136.514 6.31164C136.244 6.59714 135.943 6.83756 135.613 7.01788C135.282 7.1982 134.862 7.30338 134.366 7.30338L134.321 7.34846ZM136.124 4.3432C136.109 4.07272 136.049 3.8323 135.958 3.59188C135.868 3.35146 135.748 3.14109 135.598 2.94575C135.448 2.76544 135.252 2.61517 135.027 2.49496C134.801 2.38978 134.546 2.32967 134.245 2.32967C133.99 2.32967 133.75 2.37475 133.524 2.47994C133.299 2.58512 133.103 2.72036 132.938 2.90067C132.773 3.08099 132.638 3.29136 132.532 3.5468C132.427 3.78722 132.352 4.0577 132.337 4.3432H136.124Z" fill="#F69834"/>
<path d="M88.5199 0.585334H86.0405V0.104492H91.5252V0.585334H89.0458V7.22696H88.5199V0.585334Z" fill="#E91D39"/>
<path d="M93.9903 7.34846C93.6447 7.34846 93.3291 7.28835 93.0135 7.15312C92.698 7.01788 92.4275 6.83756 92.2021 6.59714C91.9617 6.35672 91.7814 6.07122 91.6462 5.74064C91.5109 5.41006 91.4358 5.03441 91.4358 4.6287C91.4358 4.23801 91.4959 3.87738 91.6311 3.56183C91.7514 3.23125 91.9316 2.94575 92.157 2.70533C92.3824 2.46491 92.6379 2.26957 92.9384 2.1193C93.2389 1.98407 93.5545 1.90894 93.9152 1.90894C94.2758 1.90894 94.6063 1.98407 94.9069 2.1193C95.1924 2.25454 95.4478 2.44988 95.6582 2.6903C95.8685 2.93072 96.0188 3.21622 96.139 3.5468C96.2442 3.87738 96.3043 4.23801 96.3043 4.61367V4.71886C96.3043 4.71886 96.3043 4.77896 96.3043 4.80901H92.0068C92.0218 5.13959 92.097 5.42509 92.2172 5.66551C92.3374 5.92096 92.4877 6.13133 92.683 6.29662C92.8633 6.47693 93.0737 6.61217 93.3141 6.70233C93.5545 6.79249 93.7949 6.83756 94.0504 6.83756C94.4561 6.83756 94.8017 6.76243 95.0872 6.59714C95.3727 6.44688 95.6131 6.25154 95.8385 6.01112L96.1841 6.31164C95.9136 6.59714 95.6131 6.83756 95.2825 7.01788C94.9519 7.1982 94.5312 7.30338 94.0353 7.30338L93.9903 7.34846ZM95.7935 4.3432C95.7784 4.07272 95.7183 3.8323 95.6281 3.59188C95.5379 3.35146 95.4177 3.14109 95.2675 2.94575C95.1172 2.75041 94.9219 2.61517 94.6965 2.49496C94.4711 2.38978 94.2157 2.32967 93.9152 2.32967C93.6597 2.32967 93.4192 2.37475 93.1938 2.47994C92.9684 2.58512 92.7732 2.72036 92.6079 2.90067C92.4426 3.08099 92.3073 3.29136 92.2021 3.5468C92.097 3.78722 92.0218 4.0577 92.0068 4.3432H95.7935Z" fill="#E91D39"/>
<path d="M99.4147 7.33316C99.0391 7.33316 98.6484 7.25803 98.2727 7.1228C97.897 6.98756 97.5665 6.79222 97.281 6.56682L97.5816 6.17614C97.8671 6.38651 98.1675 6.56682 98.4681 6.67201C98.7836 6.79222 99.0992 6.85232 99.4298 6.85232C99.7754 6.85232 100.076 6.76217 100.316 6.58185C100.557 6.40153 100.677 6.16111 100.677 5.86059C100.677 5.6953 100.632 5.56006 100.572 5.45488C100.497 5.34969 100.391 5.24451 100.271 5.16938C100.136 5.09425 100.001 5.01911 99.8355 4.97403C99.6702 4.91393 99.5049 4.86885 99.3095 4.80875C99.0992 4.74864 98.8888 4.68853 98.6784 4.6134C98.4681 4.53827 98.2727 4.46314 98.1074 4.35796C97.9421 4.25277 97.8069 4.11754 97.7017 3.96727C97.5965 3.81701 97.5515 3.62167 97.5515 3.39627C97.5515 3.17088 97.5966 2.97554 97.6717 2.79522C97.7619 2.62993 97.867 2.47967 98.0173 2.34443C98.1675 2.20919 98.3478 2.11904 98.5582 2.0439C98.7686 1.96877 98.994 1.93872 99.2494 1.93872C99.565 1.93872 99.8806 1.9838 100.211 2.08898C100.542 2.19417 100.827 2.3294 101.098 2.50972L100.827 2.93046C100.587 2.78019 100.331 2.64496 100.061 2.5548C99.7904 2.46464 99.5049 2.41956 99.2344 2.41956C98.8738 2.41956 98.5883 2.50972 98.3779 2.67501C98.1675 2.8403 98.0623 3.06569 98.0623 3.32114C98.0623 3.48643 98.1074 3.60664 98.1825 3.71183C98.2577 3.81701 98.3779 3.90717 98.4981 3.9823C98.6334 4.05743 98.7836 4.11754 98.9639 4.17764C99.1443 4.23775 99.3246 4.29785 99.5049 4.34293C99.7152 4.40304 99.9257 4.46314 100.121 4.53827C100.331 4.6134 100.512 4.70356 100.677 4.80875C100.842 4.91393 100.977 5.04917 101.068 5.21446C101.173 5.36472 101.218 5.56006 101.218 5.78546C101.218 6.0409 101.173 6.23624 101.083 6.43159C100.992 6.6119 100.857 6.77719 100.707 6.91243C100.542 7.04767 100.361 7.15285 100.136 7.21295C99.9256 7.28809 99.6852 7.31814 99.4298 7.31814" fill="#E91D39"/>
<path d="M104.524 7.31837C104.314 7.31837 104.133 7.28832 103.953 7.24324C103.773 7.18314 103.623 7.10801 103.487 6.98779C103.352 6.86758 103.247 6.71732 103.172 6.53701C103.097 6.35669 103.067 6.14632 103.067 5.9059V2.49493H102.315V2.04414H103.067V0.376221H103.562V2.04414H105.381V2.49493H103.562V5.83077C103.562 6.20643 103.653 6.46187 103.848 6.61214C104.043 6.7624 104.284 6.83753 104.599 6.83753C104.734 6.83753 104.855 6.83753 104.96 6.79245C105.08 6.7624 105.2 6.71732 105.351 6.65722V7.12303C105.215 7.18314 105.08 7.22822 104.945 7.25827C104.81 7.28832 104.659 7.30335 104.509 7.30335" fill="#E91D39"/>
<path d="M109.046 7.34846C108.7 7.34846 108.385 7.28835 108.069 7.15312C107.754 7.01788 107.483 6.83756 107.258 6.59714C107.017 6.35672 106.837 6.07122 106.702 5.74064C106.567 5.41006 106.491 5.03441 106.491 4.6287C106.491 4.23801 106.552 3.87738 106.687 3.56183C106.807 3.23125 106.987 2.94575 107.198 2.70533C107.423 2.46491 107.679 2.26957 107.979 2.1193C108.28 1.98407 108.595 1.90894 108.956 1.90894C109.316 1.90894 109.647 1.98407 109.947 2.1193C110.233 2.25454 110.488 2.44988 110.699 2.6903C110.909 2.93072 111.059 3.21622 111.18 3.5468C111.285 3.87738 111.345 4.23801 111.345 4.61367V4.71886C111.345 4.71886 111.345 4.77896 111.345 4.80901H107.047C107.062 5.13959 107.138 5.42509 107.258 5.66551C107.378 5.90593 107.528 6.13133 107.724 6.29662C107.904 6.47693 108.114 6.61217 108.355 6.70233C108.595 6.79249 108.836 6.83756 109.091 6.83756C109.497 6.83756 109.842 6.76243 110.128 6.59714C110.413 6.44688 110.654 6.25154 110.879 6.01112L111.225 6.31164C110.954 6.59714 110.654 6.83756 110.323 7.01788C109.993 7.1982 109.572 7.30338 109.076 7.30338L109.046 7.34846ZM110.834 4.3432C110.819 4.07272 110.759 3.8323 110.669 3.59188C110.579 3.35146 110.458 3.14109 110.308 2.94575C110.158 2.76544 109.962 2.61517 109.737 2.49496C109.512 2.38978 109.256 2.32967 108.956 2.32967C108.7 2.32967 108.46 2.37475 108.234 2.47994C108.009 2.58512 107.814 2.72036 107.648 2.90067C107.483 3.08099 107.348 3.29136 107.243 3.5468C107.138 3.78722 107.062 4.0577 107.047 4.3432H110.834Z" fill="#E91D39"/>
<path d="M141.397 7.34786C140.886 7.34786 140.42 7.2577 139.984 7.06236C139.549 6.86702 139.173 6.61157 138.857 6.28099C138.542 5.95042 138.301 5.55973 138.121 5.12397C137.941 4.67318 137.851 4.19234 137.851 3.69647C137.851 3.17055 137.941 2.70473 138.121 2.25395C138.301 1.80316 138.542 1.41247 138.857 1.08189C139.173 0.751315 139.549 0.480842 139.984 0.2855C140.42 0.0901578 140.886 0 141.412 0C141.727 0 142.013 0.0300526 142.268 0.0751315C142.524 0.135237 142.764 0.210368 142.99 0.315552C143.215 0.420736 143.41 0.540947 143.606 0.676184C143.801 0.81142 143.981 0.97671 144.177 1.142L143.801 1.53268C143.651 1.38242 143.485 1.24718 143.32 1.11195C143.155 0.97671 142.975 0.871526 142.779 0.781368C142.584 0.69121 142.373 0.616078 142.148 0.555973C141.923 0.495868 141.682 0.480842 141.412 0.480842C140.991 0.480842 140.585 0.555973 140.225 0.721263C139.864 0.886552 139.549 1.11195 139.278 1.39745C139.008 1.68295 138.797 2.02855 138.647 2.40421C138.497 2.79489 138.422 3.2006 138.422 3.65139C138.422 4.11721 138.497 4.53794 138.662 4.92863C138.812 5.31931 139.023 5.64989 139.293 5.95042C139.564 6.23592 139.879 6.46131 140.24 6.6266C140.6 6.79189 141.006 6.88205 141.427 6.88205C141.938 6.88205 142.388 6.79189 142.764 6.59655C143.14 6.4012 143.516 6.13073 143.876 5.7701L144.237 6.1157C144.041 6.29602 143.846 6.46131 143.651 6.6266C143.455 6.77686 143.23 6.9121 143.005 7.01728C142.779 7.12247 142.539 7.21262 142.268 7.27273C141.998 7.33284 141.712 7.36289 141.397 7.36289" fill="#E91D39"/>
<path d="M147.543 7.34823C147.212 7.34823 146.927 7.28813 146.671 7.19797C146.416 7.09279 146.19 6.94252 146.01 6.76221C145.83 6.56686 145.695 6.34147 145.604 6.08602C145.514 5.83057 145.469 5.54507 145.469 5.22952V2.04395H145.965V5.12434C145.965 5.66529 146.1 6.08602 146.386 6.4166C146.671 6.73215 147.077 6.89744 147.603 6.89744C147.858 6.89744 148.084 6.85236 148.309 6.76221C148.535 6.67205 148.715 6.53681 148.88 6.38655C149.045 6.22126 149.166 6.02592 149.256 5.80052C149.346 5.57513 149.391 5.31968 149.391 5.04921V2.04395H149.887V7.22802H149.391V6.26634C149.211 6.56686 148.985 6.82231 148.685 7.03268C148.384 7.24305 147.994 7.34823 147.528 7.34823" fill="#E91D39"/>
<path d="M151.812 2.04373H152.308V3.51631C152.413 3.29091 152.533 3.06552 152.698 2.87018C152.849 2.67484 153.029 2.50955 153.224 2.37431C153.42 2.23907 153.63 2.13389 153.87 2.05876C154.111 1.98363 154.351 1.95357 154.607 1.9686V2.52457H154.562C154.261 2.52457 153.976 2.58468 153.705 2.68986C153.435 2.79505 153.194 2.97536 152.984 3.18573C152.773 3.41113 152.608 3.6816 152.488 3.99715C152.368 4.3127 152.308 4.68836 152.308 5.1091V7.22781H151.812V2.04373Z" fill="#E91D39"/>
<path d="M158.061 7.34846C157.715 7.34846 157.4 7.28835 157.084 7.15312C156.769 7.01788 156.498 6.83756 156.273 6.59714C156.032 6.35672 155.852 6.07122 155.717 5.74064C155.582 5.41006 155.506 5.03441 155.506 4.6287C155.506 4.23801 155.566 3.87738 155.702 3.56183C155.837 3.24628 156.002 2.94575 156.228 2.70533C156.453 2.46491 156.708 2.26957 157.009 2.1193C157.31 1.98407 157.625 1.90894 157.986 1.90894C158.346 1.90894 158.677 1.98407 158.977 2.1193C159.263 2.25454 159.518 2.44988 159.729 2.6903C159.939 2.93072 160.089 3.21622 160.21 3.5468C160.315 3.87738 160.375 4.23801 160.375 4.61367V4.71886C160.375 4.71886 160.375 4.77896 160.375 4.80901H156.077C156.092 5.13959 156.167 5.42509 156.288 5.66551C156.408 5.92096 156.558 6.13133 156.753 6.29662C156.934 6.47693 157.144 6.61217 157.385 6.70233C157.625 6.79249 157.865 6.83756 158.121 6.83756C158.527 6.83756 158.872 6.76243 159.158 6.59714C159.443 6.44688 159.684 6.25154 159.909 6.01112L160.255 6.31164C159.984 6.59714 159.684 6.83756 159.353 7.01788C159.022 7.1982 158.602 7.30338 158.106 7.30338L158.061 7.34846ZM159.864 4.3432C159.849 4.07272 159.789 3.8323 159.699 3.59188C159.608 3.35146 159.488 3.14109 159.338 2.94575C159.188 2.76544 158.992 2.61517 158.767 2.49496C158.542 2.38978 158.286 2.32967 157.986 2.32967C157.73 2.32967 157.49 2.37475 157.264 2.47994C157.039 2.58512 156.844 2.72036 156.678 2.90067C156.513 3.08099 156.378 3.29136 156.273 3.5468C156.168 3.78722 156.092 4.0577 156.077 4.3432H159.864Z" fill="#E91D39"/>
<path d="M160.541 9.48145H78.6777V9.81202H160.541V9.48145Z" fill="#E91D39"/>
</svg>
