<svg width="165" height="100" viewBox="0 0 165 100" fill="none" xmlns="http://www.w3.org/2000/svg">
<g clip-path="url(#clip0_8_873)">
<path d="M39.6651 8.06207C40.1382 6.69955 40.2991 6.45361 40.5403 6.45361C40.7816 6.45361 40.9377 6.66021 41.4156 7.92927C42.007 9.50821 48.2567 26.5618 50.6648 32.8333C52.0841 36.5077 53.2479 37.1668 54.0806 37.4177C54.5947 37.586 55.1312 37.669 55.6702 37.6636C55.9068 37.6636 56.0676 37.703 56.0676 37.9096C56.0676 38.1162 55.7081 38.2391 55.2728 38.2391C54.6767 38.2391 51.7766 38.2391 49.0373 38.1555C48.2851 38.1162 47.8451 38.1162 47.8451 37.8653C47.8451 37.6981 47.9634 37.6194 48.1242 37.5751C48.3608 37.4915 48.5973 37.1226 48.3608 36.4585L44.6658 26.311C44.6415 26.2337 44.5927 26.1673 44.5274 26.1226C44.4621 26.078 44.3841 26.0577 44.3062 26.065H35.7904C35.6984 26.0666 35.6096 26.0998 35.5377 26.1594C35.4658 26.219 35.4149 26.3017 35.393 26.3946L33.0274 33.6991C32.6997 34.5831 32.5128 35.5168 32.4739 36.4634C32.4739 37.2898 33.3066 37.6587 33.9831 37.6587H34.3805C34.6596 37.6587 34.7779 37.7423 34.7779 37.9047C34.7779 38.1506 34.5414 38.2342 34.1818 38.2342C33.2356 38.2342 31.523 38.1113 31.083 38.1113C30.643 38.1113 28.462 38.2342 26.5979 38.2342C26.0823 38.2342 25.8457 38.1506 25.8457 37.9047C25.8457 37.7374 26.0066 37.6587 26.2053 37.6587C26.4844 37.6587 27.0379 37.6194 27.3549 37.5751C29.1811 37.3292 29.9759 35.7601 30.6666 33.6941L39.6651 8.06207ZM43.7953 24.5943C43.994 24.5943 43.994 24.4713 43.9562 24.3041L40.1713 13.158C39.9726 12.5382 39.7739 12.5382 39.5752 13.158L36.0932 24.2844C36.0127 24.491 36.0932 24.5746 36.2114 24.5746L43.7953 24.5943Z" fill="#00477C"/>
<path d="M62.2937 33.4481C62.3741 36.3355 62.6911 37.2061 63.6421 37.452C64.2153 37.5849 64.8005 37.6542 65.3878 37.6586C65.4248 37.6573 65.4617 37.6638 65.4962 37.6779C65.5307 37.692 65.562 37.7133 65.5881 37.7406C65.6143 37.7678 65.6348 37.8003 65.6484 37.8362C65.662 37.872 65.6683 37.9104 65.667 37.9488C65.667 38.1554 65.4304 38.239 65.033 38.239C63.046 38.239 61.6598 38.1161 61.338 38.1161C61.0163 38.1161 59.5497 38.239 57.9648 38.239C57.6052 38.239 57.4065 38.1997 57.4065 37.9488C57.4052 37.9104 57.4115 37.872 57.4251 37.8362C57.4387 37.8003 57.4592 37.7678 57.4854 37.7406C57.5115 37.7133 57.5428 37.692 57.5773 37.6779C57.6118 37.6638 57.6487 37.6573 57.6857 37.6586C58.1654 37.6544 58.6426 37.585 59.105 37.452C59.9802 37.2061 60.0985 36.2568 60.0985 33.0743V12.9759C60.0985 11.574 60.2972 11.2002 60.5716 11.2002C60.969 11.2002 61.5651 11.9036 61.92 12.2725C62.4735 12.848 67.5594 18.4653 72.9575 24.245C76.4112 27.9587 80.144 32.1151 81.2179 33.2858L80.9009 15.7009C80.8631 13.4284 80.6644 12.6463 79.5904 12.4397C79.0261 12.3386 78.4551 12.2827 77.8825 12.2725C77.646 12.2725 77.6034 12.0659 77.6034 11.9429C77.6034 11.7363 77.8825 11.697 78.2799 11.697C79.8696 11.697 81.5349 11.7806 81.9323 11.7806C82.3297 11.7806 83.4794 11.697 84.9081 11.697C85.2677 11.697 85.5421 11.7363 85.5421 11.9429C85.5242 12.0379 85.4744 12.1232 85.4016 12.1836C85.3288 12.244 85.2378 12.2755 85.1447 12.2725C84.8651 12.2697 84.586 12.2977 84.312 12.3561C83.1624 12.6021 83.0819 13.3055 83.0819 15.4107L83.0015 35.9665C83.0015 38.2784 82.9637 38.485 82.7224 38.485C82.3628 38.485 82.008 38.1948 80.0635 36.3404C79.704 36.0108 74.6654 30.851 70.9705 26.847C66.9207 22.4201 62.9892 18.1358 61.92 16.8962L62.2937 33.4481Z" fill="#00477C"/>
<path d="M97.0763 30.2706C97.0763 35.9666 96.958 38.1407 95.9267 40.6346C95.1744 42.4103 93.6226 44.0778 90.8029 46.001C90.3298 46.3306 89.729 46.7044 89.3836 46.911C89.306 46.931 89.2269 46.9442 89.1471 46.9504C89.0666 46.9504 88.9105 46.911 88.9105 46.7438C88.9105 46.5765 89.0288 46.3699 89.3458 46.1683C89.7854 45.8956 90.1975 45.5775 90.5759 45.2189C92.8373 42.8677 93.8876 41.0478 93.8876 32.0069V21.8495C93.8876 16.3995 93.8876 15.4108 93.8072 14.2942C93.7267 13.0989 93.528 12.5185 92.3878 12.3562C91.9921 12.3064 91.5942 12.2784 91.1956 12.2726C91.1256 12.261 91.0609 12.2267 91.0107 12.1746C90.9606 12.1225 90.9276 12.0552 90.9165 11.9824C90.9165 11.7758 91.0773 11.6921 91.47 11.6921C93.0597 11.6921 95.3211 11.7758 95.5198 11.7758C95.7185 11.7758 97.8853 11.6921 98.9356 11.6921C99.333 11.6921 99.4939 11.7758 99.4939 11.9824C99.4828 12.0552 99.4498 12.1225 99.3996 12.1746C99.3495 12.2267 99.2848 12.261 99.2148 12.2726C98.9209 12.266 98.6273 12.2941 98.3395 12.3562C97.3933 12.5628 97.1899 13.0596 97.1094 14.2942C97.0716 15.4108 97.0716 16.3995 97.0716 21.8495L97.0763 30.2706Z" fill="#00477C"/>
<path d="M118.082 11.2002C125.945 11.2002 131.902 16.1928 131.902 24.3679C131.902 32.2135 126.305 38.6916 117.884 38.6916C108.313 38.6916 104.225 31.2199 104.225 24.9188C104.225 19.2523 108.431 11.2002 118.082 11.2002ZM118.877 37.27C122.014 37.27 128.339 35.5386 128.339 25.3812C128.339 16.9602 123.414 12.543 117.898 12.543C112.06 12.543 107.854 16.3404 107.854 23.9793C107.839 32.1299 112.561 37.2504 118.877 37.2504V37.27Z" fill="#00477C"/>
<path d="M62.7195 70.246C62.7195 60.3493 62.7195 58.5736 62.5965 56.5421C62.4734 54.3876 61.9861 53.3694 59.9707 52.9267C59.287 52.7973 58.5934 52.7331 57.8985 52.7349C57.6525 52.7349 57.4254 52.607 57.4254 52.3562C57.4254 51.9774 57.7282 51.8643 58.4 51.8643C59.8193 51.8643 61.4515 51.8643 62.7952 51.9282L65.2979 52.0561C65.7237 52.0561 77.8683 52.0561 79.2687 51.9922C80.1507 51.9614 81.0288 51.8562 81.8944 51.6774C82.1972 51.6134 82.4432 51.3625 82.7507 51.3625C82.9352 51.3625 82.9967 51.6183 82.9967 51.9331C82.9967 52.3758 82.6939 53.1383 82.5236 54.914C82.4621 55.5485 82.3391 58.3571 82.2208 59.0999C82.1593 59.4147 82.0363 59.7984 81.795 59.7984C81.4308 59.7984 81.3219 59.4836 81.3219 58.972C81.3266 58.1952 81.2034 57.4233 80.9576 56.6897C80.5319 55.6764 79.9216 54.914 76.624 54.5352C75.5879 54.4073 68.9361 54.3434 68.2642 54.3434C68.0182 54.3434 67.9 54.5352 67.9 54.9779V72.484C67.9 72.9267 67.9615 73.1186 68.2642 73.1186C69.0591 73.1186 76.5625 73.1186 77.9629 72.9907C79.3633 72.8628 80.2811 72.7349 80.8299 72.1004C81.2557 71.6085 81.5017 71.274 81.743 71.274C81.9843 71.274 82.0458 71.4019 82.0458 71.7659C82.0458 72.1299 81.743 73.2415 81.5727 75.3173C81.4497 76.5864 81.3267 78.9326 81.3267 79.3753C81.3267 79.818 81.3267 80.5805 80.9009 80.5805C80.5981 80.5805 80.4751 80.3247 80.4751 80.0099C80.5038 79.3021 80.4207 78.5942 80.2291 77.9144C79.9831 77.0241 79.4342 75.9469 77.0545 75.696C75.4081 75.5042 69.3666 75.3812 68.3305 75.3812C68.2729 75.3741 68.2145 75.3807 68.1598 75.4004C68.105 75.4201 68.0552 75.4525 68.0142 75.4951C67.9733 75.5378 67.9421 75.5895 67.9231 75.6464C67.9041 75.7034 67.8978 75.7641 67.9047 75.8239V81.4068C67.9047 83.5613 67.8432 90.9199 67.9047 92.2529C68.0892 96.6306 69.0023 97.4521 75.0013 97.4521C76.5862 97.4521 79.2592 97.4521 80.8583 96.7536C82.4574 96.0551 83.1765 94.7861 83.6023 92.184C83.7253 91.4855 83.8483 91.2347 84.1511 91.2347C84.4539 91.2347 84.5154 91.7265 84.5154 92.184C84.3494 94.2477 84.0841 96.3014 83.7206 98.3375C83.2948 99.9853 82.8075 99.9853 80.4088 99.9853C75.8339 99.9853 72.4796 99.8574 70.0999 99.7934C67.7202 99.7295 66.2583 99.6016 65.3405 99.6016C65.2175 99.6016 64.1814 99.6016 62.8992 99.6655C61.6171 99.7295 60.2735 99.7934 59.3604 99.7934C58.6886 99.7934 58.3858 99.6656 58.3858 99.3016C58.3858 99.1097 58.5088 98.9228 58.8589 98.9228C59.4758 98.9001 60.0891 98.8144 60.6898 98.667C61.9104 98.4112 62.2132 97.0192 62.4593 95.1796C62.762 92.5136 62.762 87.5062 62.762 81.4068L62.7195 70.246Z" fill="#00477C"/>
<path d="M99.4135 81.5397C99.4135 90.8855 99.6595 94.9239 100.757 96.0651C101.732 97.0783 103.321 97.5407 108.081 97.5407C111.312 97.5407 113.999 97.4768 115.461 95.6371C116.272 94.5165 116.815 93.2116 117.046 91.8299C117.108 91.338 117.231 91.0036 117.595 91.0036C117.959 91.0036 117.959 91.2593 117.959 91.9529C117.817 94.0898 117.511 96.2115 117.046 98.2982C116.62 99.7739 116.436 100.01 113.205 100.01C108.809 100.01 105.635 99.8821 103.075 99.8181C100.516 99.7542 98.6234 99.6263 96.854 99.6263C96.608 99.6263 95.5719 99.6902 94.3513 99.6902C93.1307 99.6902 91.7871 99.8181 90.874 99.8181C90.2022 99.8181 89.8994 99.6902 89.8994 99.3262C89.8994 99.1344 90.0224 98.9475 90.3725 98.9475C90.9894 98.9248 91.6026 98.8391 92.2034 98.6917C93.424 98.4359 93.7268 97.0439 93.9728 95.2043C94.2756 92.5382 94.2756 87.5309 94.2756 81.4315V70.2657C94.2756 60.369 94.2756 58.5933 94.1526 56.5618C94.0296 54.4074 93.5423 53.3892 91.5269 52.9465C90.8432 52.8171 90.1496 52.7529 89.4547 52.7547C89.2087 52.7547 88.9816 52.6268 88.9816 52.3759C88.9816 51.9972 89.2844 51.884 89.9562 51.884C92.7002 51.884 96.5465 52.0759 96.8493 52.0759C97.1521 52.0759 101.609 51.884 103.44 51.884C104.111 51.884 104.414 52.0119 104.414 52.3759C104.414 52.6317 104.168 52.7547 103.941 52.7547C103.266 52.7691 102.592 52.8333 101.926 52.9465C100.156 53.2613 99.669 54.3435 99.5602 56.5618C99.4372 58.5933 99.4372 60.369 99.4372 70.2657L99.4135 81.5397Z" fill="#00477C"/>
<path d="M139.802 53.4382C140.536 51.3428 140.777 50.9788 141.146 50.9788C141.515 50.9788 141.756 51.2936 142.49 53.2611C143.403 55.6713 152.983 81.8691 156.683 91.51C158.878 97.1568 160.647 98.1701 161.93 98.5489C162.719 98.8077 163.543 98.9355 164.371 98.9276C164.735 98.9276 164.981 98.9916 164.981 99.3064C164.981 99.6212 164.432 99.7982 163.761 99.7982C162.847 99.7982 158.391 99.7982 154.18 99.6704C153.021 99.6064 152.349 99.6064 152.349 99.2277C152.349 98.9719 152.534 98.8489 152.775 98.785C153.139 98.6571 153.508 98.0865 153.139 97.0732L147.462 81.4706C147.424 81.3529 147.35 81.2516 147.25 81.183C147.151 81.1143 147.032 81.0823 146.913 81.0919H133.822C133.683 81.0942 133.548 81.1434 133.438 81.2321C133.328 81.3208 133.249 81.4442 133.212 81.5838L129.55 92.8135C129.044 94.1723 128.755 95.6077 128.694 97.0634C128.694 98.3324 129.976 98.903 131.012 98.903H131.623C132.048 98.903 132.233 99.0309 132.233 99.2818C132.233 99.6605 131.869 99.7736 131.32 99.7736C129.853 99.7736 127.232 99.5818 126.56 99.5818C125.888 99.5818 122.534 99.7736 119.667 99.7736C118.872 99.7736 118.508 99.6458 118.508 99.2818C118.508 99.026 118.754 98.903 119.057 98.903C119.483 98.903 120.339 98.8391 120.826 98.7751C123.632 98.3964 124.852 95.9861 125.95 92.8135L139.802 53.4382ZM146.147 78.8096C146.45 78.8096 146.45 78.6177 146.393 78.3669L140.593 61.2395C140.277 60.2885 139.973 60.2885 139.679 61.2395L134.31 78.3669C134.187 78.6817 134.31 78.8096 134.494 78.8096H146.147Z" fill="#00477C"/>
<path d="M1.65587 50.6295C1.65587 47.5995 1.65587 47.0486 1.61329 46.4288C1.57071 45.809 1.45716 45.445 0.818471 45.3516C0.598599 45.3246 0.377505 45.3099 0.156125 45.3073C0.117035 45.3006 0.0809429 45.2814 0.0529335 45.2523C0.0249241 45.2232 0.00640991 45.1856 0 45.145C0 45.0319 0.0898899 44.9827 0.307518 44.9827C1.19222 44.9827 2.40337 45.0269 2.5595 45.0269C2.98056 45.0269 4.45192 44.9827 5.3177 44.9827C7.81096 44.9827 8.69566 45.7844 9.02684 46.0845C9.33015 46.3881 9.57217 46.7515 9.7387 47.1536C9.90524 47.5556 9.99295 47.9881 9.9967 48.4259C9.9967 51.2247 7.96708 53.084 4.98652 53.084C4.80218 53.0955 4.61734 53.0955 4.43299 53.084C4.38497 53.0814 4.33919 53.0621 4.30311 53.029C4.26703 52.996 4.24277 52.9512 4.23429 52.902C4.23429 52.7397 4.3431 52.6954 4.74051 52.6954C6.83636 52.6954 8.34084 51.3181 8.34084 49.5523C8.36196 49.008 8.27498 48.465 8.08532 47.9572C7.89566 47.4495 7.6074 46.9878 7.2385 46.601C6.89233 46.2561 6.47827 45.9935 6.02492 45.8313C5.57158 45.6691 5.08976 45.6111 4.61277 45.6615C4.25161 45.6585 3.89083 45.6864 3.53409 45.7451C3.42528 45.7451 3.37797 45.9074 3.37797 46.114V54.053C3.37797 55.9369 3.37797 57.4962 3.46786 58.2783C3.53409 58.8538 3.64291 59.2178 4.23902 59.3112C4.52394 59.3606 4.81149 59.3918 5.10007 59.4047C5.12075 59.404 5.14134 59.4077 5.16058 59.4157C5.17982 59.4236 5.1973 59.4355 5.21193 59.4507C5.22656 59.4659 5.23803 59.4841 5.24565 59.5041C5.25326 59.5241 5.25685 59.5455 5.25619 59.567C5.25619 59.6605 5.1663 59.7293 4.94868 59.7293C3.88892 59.7293 2.60681 59.6605 2.52165 59.6605C2.43649 59.6605 1.19695 59.7293 0.600843 59.7293C0.402139 59.7293 0.293325 59.6851 0.293325 59.567C0.292668 59.5455 0.296257 59.5241 0.30387 59.5041C0.311484 59.4841 0.32296 59.4659 0.337591 59.4507C0.352221 59.4355 0.369696 59.4236 0.388935 59.4157C0.408174 59.4077 0.428769 59.404 0.449449 59.4047C0.650827 59.3961 0.850708 59.3648 1.04556 59.3112C1.41931 59.2178 1.46662 58.8538 1.55178 58.2783C1.65994 56.8729 1.69626 55.4624 1.6606 54.053L1.65587 50.6295Z" fill="#00477C"/>
<path d="M16.6438 45.3764C16.8851 44.732 16.975 44.6189 17.117 44.6189C17.2589 44.6189 17.3819 44.8944 17.5901 45.3321C17.9449 46.1585 21.0579 54.2156 22.2501 57.1767C22.9551 58.9229 23.4849 59.1737 23.906 59.3115C24.1564 59.3878 24.4162 59.4259 24.6772 59.4246C24.786 59.4246 24.9184 59.4689 24.9184 59.5869C24.9184 59.705 24.6961 59.7492 24.4785 59.7492C24.2608 59.7492 22.7564 59.7492 21.408 59.705C21.0343 59.705 20.722 59.705 20.722 59.5672C20.722 59.4295 20.7646 59.4738 20.8545 59.4295C20.9021 59.4105 20.9452 59.3809 20.9806 59.3427C21.0161 59.3046 21.0431 59.2588 21.0598 59.2087C21.0765 59.1586 21.0824 59.1052 21.0772 59.0525C21.0719 58.9997 21.0557 58.9488 21.0295 58.9032L19.2838 54.4271C19.2412 54.3336 19.2175 54.3139 19.1087 54.3139H14.6142C14.5684 54.3137 14.5238 54.3297 14.4877 54.3591C14.4516 54.3886 14.4262 54.4299 14.4155 54.4763L13.3132 57.5997C13.1474 58.016 13.0498 58.4583 13.0246 58.9081C13.0246 59.2967 13.3558 59.4344 13.6869 59.4344H13.862C14.0181 59.4344 14.0607 59.5033 14.0607 59.5968C14.0607 59.6902 13.9519 59.7591 13.7721 59.7591C13.299 59.7591 12.2487 59.6902 12.0263 59.6902C11.804 59.6902 10.8578 59.7591 10.063 59.7591C9.82168 59.7591 9.68921 59.7148 9.68921 59.5968C9.69282 59.5515 9.713 59.5095 9.74557 59.4793C9.77815 59.4491 9.82063 59.433 9.86426 59.4344C10.0557 59.4302 10.2468 59.4154 10.4367 59.3902C11.3214 59.277 11.6952 58.5884 12.0689 57.5997L16.6438 45.3764ZM18.8059 53.5023C18.8958 53.5023 18.8958 53.458 18.8722 53.3646L16.9561 48.0129C16.8457 47.7145 16.7353 47.7145 16.6249 48.0129L14.8129 53.3597C14.7909 53.4515 14.8129 53.4974 14.8792 53.4974L18.8059 53.5023Z" fill="#00477C"/>
<path d="M27.44 50.6295C27.44 47.5995 27.44 47.0486 27.3975 46.4288C27.3549 45.809 27.2413 45.445 26.6027 45.3516C26.3828 45.3246 26.1617 45.3099 25.9403 45.3073C25.9012 45.3006 25.8651 45.2814 25.8371 45.2523C25.8091 45.2232 25.7906 45.1856 25.7842 45.145C25.7842 45.0319 25.8741 44.9827 26.0917 44.9827C26.9764 44.9827 28.2774 45.0269 28.3863 45.0269C28.585 45.0269 30.2172 44.9827 30.8133 44.9827C32.0481 44.9827 33.4201 45.0958 34.4325 45.8336C34.8363 46.1422 35.1674 46.5421 35.401 47.003C35.6345 47.464 35.7644 47.974 35.7809 48.4947C35.7809 49.9409 35.2084 51.3427 33.4154 52.9463C35.005 55.0122 36.3533 56.778 37.4793 57.9979C38.5154 59.0997 39.1589 59.2817 39.6414 59.3506C39.8674 59.3965 40.0972 59.4196 40.3274 59.4195C40.371 59.418 40.4135 59.4341 40.4461 59.4643C40.4787 59.4945 40.4989 59.5366 40.5025 59.5818C40.5025 59.6949 40.3937 59.7441 40.0294 59.7441H38.8324C37.7301 59.7441 37.2428 59.631 36.7555 59.3555C35.9181 58.8981 35.2084 57.9536 34.1061 56.4878C33.2876 55.4303 32.4266 54.1711 32.0102 53.6398C31.9788 53.5994 31.938 53.5678 31.8917 53.548C31.8454 53.5282 31.795 53.5209 31.7453 53.5267L29.271 53.4824C29.1811 53.4824 29.1385 53.5267 29.1385 53.6447V54.1071C29.1385 55.991 29.1385 57.506 29.2284 58.3078C29.2946 58.8833 29.4034 59.2473 29.9995 59.3408C30.2845 59.3901 30.572 59.4213 30.8606 59.4342C30.8818 59.4309 30.9035 59.4328 30.9239 59.4398C30.9443 59.4467 30.9629 59.4586 30.9781 59.4744C30.9933 59.4902 31.0047 59.5095 31.0114 59.5307C31.0181 59.5519 31.0199 59.5745 31.0167 59.5965C31.0167 59.69 30.9268 59.7589 30.7092 59.7589C29.6494 59.7589 28.4146 59.69 28.3437 59.69C28.2727 59.69 27.019 59.7589 26.4229 59.7589C26.2242 59.7589 26.1154 59.7146 26.1154 59.5965C26.1147 59.575 26.1183 59.5536 26.1259 59.5336C26.1335 59.5136 26.145 59.4954 26.1596 59.4802C26.1742 59.465 26.1917 59.4531 26.211 59.4452C26.2302 59.4373 26.2508 59.4335 26.2715 59.4342C26.4729 59.4256 26.6727 59.3943 26.8676 59.3408C27.2413 59.2473 27.2887 58.8833 27.3738 58.3078C27.482 56.9024 27.5183 55.492 27.4826 54.0825L27.44 50.6295ZM29.1196 52.2822C29.1189 52.3324 29.1308 52.3818 29.154 52.4258C29.1772 52.4698 29.211 52.5067 29.252 52.5331C29.9456 52.7553 30.6698 52.8567 31.3952 52.8331C31.9032 52.8741 32.4113 52.754 32.8524 52.4888C33.5147 52.0314 34.0209 51.0132 34.0209 49.5031C34.0209 47.0683 32.7388 45.6713 30.6666 45.6713C30.2008 45.6692 29.7356 45.707 29.2757 45.7844C29.2304 45.8022 29.1912 45.8338 29.1634 45.875C29.1355 45.9162 29.1203 45.9652 29.1196 46.0156V52.2822Z" fill="#00477C"/>
<path d="M45.366 45.3764C45.6073 44.732 45.6972 44.6189 45.8391 44.6189C45.981 44.6189 46.104 44.8944 46.3122 45.3321C46.667 46.1585 49.7801 54.2156 50.9723 57.1767C51.6772 58.9229 52.2071 59.1737 52.6281 59.3115C52.8786 59.3878 53.1383 59.4259 53.3993 59.4246C53.5081 59.4246 53.6406 59.4689 53.6406 59.5869C53.6406 59.705 53.4182 59.7492 53.2006 59.7492C52.983 59.7492 51.4785 59.7492 50.1302 59.705C49.7564 59.705 49.4441 59.705 49.4441 59.5672C49.4441 59.4295 49.4867 59.4738 49.5766 59.4295C49.6242 59.4105 49.6673 59.3809 49.7028 59.3427C49.7382 59.3046 49.7652 59.2588 49.7819 59.2087C49.7986 59.1586 49.8045 59.1052 49.7993 59.0525C49.7941 58.9997 49.7778 58.9488 49.7517 58.9032L48.0059 54.4271C47.9633 54.3336 47.9397 54.3139 47.8309 54.3139H43.3364C43.2905 54.3137 43.2459 54.3297 43.2098 54.3591C43.1738 54.3886 43.1483 54.4299 43.1377 54.4763L42.0353 57.5997C41.8695 58.016 41.772 58.4583 41.7467 58.9081C41.7467 59.2967 42.0779 59.4344 42.4091 59.4344H42.5794C42.7355 59.4344 42.7781 59.5033 42.7781 59.5968C42.7781 59.6902 42.6693 59.7591 42.4895 59.7591C42.0164 59.7591 40.9661 59.6902 40.7438 59.6902C40.5214 59.6902 39.5752 59.7591 38.7804 59.7591C38.5391 59.7591 38.4066 59.7148 38.4066 59.5968C38.4102 59.5515 38.4304 59.5095 38.463 59.4793C38.4956 59.4491 38.538 59.433 38.5817 59.4344C38.7731 59.4302 38.9642 59.4154 39.1541 59.3902C40.0388 59.277 40.4126 58.5884 40.7863 57.5997L45.366 45.3764ZM47.5281 53.5023C47.618 53.5023 47.618 53.458 47.5943 53.3646L45.6735 48.0129C45.5631 47.7145 45.4527 47.7145 45.3423 48.0129L43.5256 53.3646C43.5035 53.4564 43.5256 53.5023 43.5918 53.5023H47.5281Z" fill="#00477C"/>
<path d="M3.51994 5.57304C3.51994 2.57747 3.51994 2.0364 3.48209 1.42154C3.44424 0.80669 3.31177 0.462371 2.68727 0.324643C2.48111 0.286969 2.27209 0.268859 2.06277 0.270536C1.98708 0.270536 1.89246 0.231185 1.89246 0.152484C1.89246 0.0737826 2.006 0 2.20944 0C3.0421 0 4.16809 0.0590261 4.33368 0.0590261C4.49926 0.0590261 5.60633 0 6.1504 0C6.35383 0 6.44372 0.0393507 6.44372 0.152484C6.44372 0.265617 6.36803 0.265617 6.29706 0.265617C6.13801 0.271017 5.97972 0.290767 5.82396 0.324643C5.3272 0.403345 5.1758 0.747664 5.13795 1.42154C5.10011 2.09543 5.10011 2.57255 5.10011 5.57304V8.26365C5.10011 11.028 5.69149 12.1987 6.4863 13.0103C6.85294 13.3822 7.2914 13.6687 7.77263 13.8511C8.25385 14.0334 8.76685 14.1073 9.27762 14.0679C9.82764 14.0644 10.3707 13.9394 10.8707 13.7011C11.3707 13.4628 11.8162 13.1167 12.1778 12.6857C13.0293 11.5888 13.2517 9.95573 13.2517 7.97836V5.57304C13.2517 2.57747 13.2517 2.0364 13.2139 1.42154C13.176 0.80669 13.0293 0.437777 12.419 0.324643C12.2238 0.288993 12.0259 0.270891 11.8277 0.270536C11.752 0.270536 11.681 0.231185 11.681 0.157403C11.681 0.0836203 11.7756 0.00491884 11.9743 0.00491884C12.7739 0 13.8147 0.0590261 13.9235 0.0590261C14.0323 0.0590261 14.9218 0 15.4753 0C15.6787 0 15.7686 0.0393507 15.7686 0.152484C15.7686 0.265617 15.6929 0.265617 15.622 0.265617C15.4629 0.271017 15.3046 0.290767 15.1489 0.324643C14.6663 0.442696 14.5149 0.747664 14.477 1.42154C14.4392 2.09543 14.4392 2.57255 14.4392 5.57304V7.62912C14.4392 9.70487 14.2168 12.0069 12.7407 13.3743C11.7018 14.3363 10.3464 14.8454 8.95591 14.7959C8.32668 14.7959 6.46265 14.7172 5.17107 13.4333C4.22486 12.5234 3.51994 11.1805 3.51994 8.36203V5.57304Z" fill="#00477C"/>
<path d="M31.3479 12.4299C31.4047 13.0054 31.5135 13.9055 32.1806 14.122C32.5225 14.2296 32.8784 14.281 33.2356 14.2744C33.3113 14.2744 33.3633 14.3138 33.3633 14.3876C33.3633 14.4614 33.2167 14.5401 33.0321 14.5401C32.6631 14.5401 30.8511 14.5401 30.2598 14.4614C29.8718 14.422 29.7867 14.363 29.7867 14.2892C29.7881 14.2577 29.7996 14.2275 29.8193 14.2035C29.8389 14.1794 29.8657 14.1629 29.8955 14.1564C29.9901 14.1564 30.0043 13.8858 29.9712 13.5809L29.2047 5.2828H29.1669L25.2496 13.6448C24.9184 14.3581 24.8238 14.5105 24.6771 14.5105C24.5305 14.5105 24.4358 14.3581 24.1236 13.7629C23.6978 12.9562 22.6286 10.8608 22.2312 9.98029C21.7581 8.94242 20.4381 6.1977 20.1637 5.52382H20.088L19.4588 12.9021C19.4588 13.1529 19.4588 13.4579 19.4588 13.7284C19.4568 13.8418 19.4955 13.9519 19.5671 14.0373C19.6388 14.1227 19.7384 14.1774 19.8467 14.1908C20.0519 14.2499 20.2632 14.2829 20.476 14.2892C20.5327 14.2892 20.6037 14.3482 20.6037 14.4023C20.6037 14.4564 20.4949 14.5548 20.3104 14.5548C19.7001 14.5548 18.9242 14.4958 18.7964 14.4958C18.6687 14.4958 17.8502 14.5548 17.4292 14.5548C17.2636 14.5548 17.15 14.5155 17.15 14.4023C17.15 14.2892 17.2257 14.2892 17.3156 14.2892C17.4745 14.282 17.6327 14.2622 17.7887 14.2302C18.3233 14.1318 18.3422 13.5366 18.4179 12.9218L19.6007 2.25771C19.6007 2.08555 19.6953 1.9675 19.7852 1.9675C19.8581 1.97061 19.9284 1.9961 19.9874 2.04075C20.0463 2.0854 20.0912 2.1472 20.1164 2.21836L25.0083 12.3315L29.7393 2.20852C29.815 2.05604 29.886 1.93799 29.9995 1.93799C30.1131 1.93799 30.203 2.0708 30.2408 2.38068L31.3479 12.4299Z" fill="#00477C"/>
</g>
<defs>
<clipPath id="clip0_8_873">
<rect width="165" height="100" fill="white"/>
</clipPath>
</defs>
</svg>
